<svg width="71" height="71" viewBox="0 0 71 71" fill="none" xmlns="http://www.w3.org/2000/svg">
<path d="M4.47217 4.47266H67.3628V67.3633H4.47217V4.47266Z" fill="#230151"/>
<path d="M0.916992 0.917969V70.918H70.917V0.917969H0.916992ZM67.3623 67.3633H4.47168V4.47266H67.3623V67.3633Z" fill="#F975DC"/>
<path d="M57.519 33.293C57.519 33.293 57.1909 25.3086 48.4956 25.3086C39.7456 25.3086 39.0347 37.3398 39.0347 37.3398V39.9102C39.0347 39.9102 40.5659 49.918 47.9487 49.918C55.3315 49.918 56.0425 48.4961 56.0425 48.4961V44.0664C56.0425 44.0664 45.4878 49.0977 44.4487 38.5977H57.5737V33.293H57.519ZM52.5972 34.6055H44.394C44.394 34.6055 44.394 30.0664 48.4956 29.5742C52.98 29.5742 52.5972 34.6055 52.5972 34.6055ZM28.5347 17.2695H21.9175V19.3477L13.1675 49.3711H18.3081L20.7144 40.5664H29.9019L32.3628 49.3711H37.9956L28.5347 17.2695ZM21.8081 35.4258L25.3081 22.0273L28.8081 35.4258H21.8081Z" fill="#F975DC"/>
</svg>
