<svg width="24" height="24" viewBox="0 0 24 24" fill="none" xmlns="http://www.w3.org/2000/svg">
<path fill-rule="evenodd" clip-rule="evenodd" d="M3 4.8C3 4.35818 3.44772 4 4 4H16C16.5523 4 17 4.35818 17 4.8C17 5.24183 16.5523 5.6 16 5.6H4C3.44772 5.6 3 5.24182 3 4.8Z" fill="white"/>
<path fill-rule="evenodd" clip-rule="evenodd" d="M3 11.8C3 11.3582 3.44772 11 4 11H20C20.5523 11 21 11.3582 21 11.8C21 12.2418 20.5523 12.6 20 12.6H4C3.44772 12.6 3 12.2418 3 11.8Z" fill="white"/>
<path fill-rule="evenodd" clip-rule="evenodd" d="M3 18.8C3 18.3582 3.44772 18 4 18H12C12.5523 18 13 18.3582 13 18.8C13 19.2418 12.5523 19.6 12 19.6H4C3.44772 19.6 3 19.2418 3 18.8Z" fill="white"/>
</svg>
