<svg width="553" height="196" viewBox="0 0 553 196" fill="none" xmlns="http://www.w3.org/2000/svg">
<g filter="url(#filter0_d_2144_148869)">
<path d="M454.134 91.0333L448.01 91.7637C453.123 82.493 461.101 77.9981 472.058 78.1667C478.631 78.2229 483.463 79.6275 486.61 82.3244C489.7 85.0776 491.273 88.7858 491.273 93.5616V124.689C491.273 127.386 491.498 129.408 491.835 130.701C492.228 131.993 492.678 133.06 493.127 133.903C493.352 134.296 493.577 134.69 493.745 135.139H480.71C478.463 134.971 477.002 134.072 476.328 132.442C479.867 128.565 482.002 124.97 482.564 121.542C478.463 129.071 473.181 133.735 466.551 135.589C459.921 137.443 453.966 136.881 448.628 133.959C443.29 130.981 440.425 126.093 440.144 119.182C440.425 111.092 442.897 105.473 447.56 102.439C452.168 99.3488 457.168 97.2137 462.562 96.0338C466.27 95.0787 469.417 93.9549 471.945 92.6065C474.53 91.258 475.934 89.1791 476.103 86.3136C476.047 84.4595 475.092 83.1672 473.125 82.3806C471.215 81.594 468.405 81.7064 464.641 82.6616C460.877 83.6729 457.393 86.4822 454.134 91.0333ZM476.103 94.3482C474.811 95.6405 472.732 96.8204 469.922 97.888C466.551 99.124 463.236 100.978 460.09 103.45C456.944 105.979 455.146 109.968 454.696 115.418C454.584 122.666 456.55 127.442 460.652 129.689C464.81 131.993 469.922 130.532 476.103 125.419V122.273V94.3482Z" fill="white"/>
<path d="M432.391 78.335C433.346 78.335 433.964 78.5597 434.301 78.953C434.639 79.4025 434.807 80.2453 434.751 81.5937L433.908 82.8298L400.477 131.262L434.807 131.318L433.009 135.083H383.734C383.116 135.083 382.779 134.802 382.667 134.24C382.554 133.678 382.554 133.116 382.61 132.442C382.61 132.161 382.61 131.88 382.61 131.655L416.996 81.987L385.363 81.9309L386.543 78.335H432.391Z" fill="white"/>
<path d="M323.052 82.2118L338.223 78.335V83.5041C335.413 87.2123 334.065 91.651 334.121 96.764C334.908 92.3253 336.481 88.7855 338.897 86.2572C341.313 83.785 343.897 81.987 346.594 80.9195C349.347 79.852 351.595 79.2339 353.28 79.1216C362.664 78.5597 368.956 80.47 372.215 84.9087C375.53 89.3474 377.047 93.7299 376.766 98.0562V132.273V135.139H361.708V132.273V99.3485C361.708 94.067 360.697 90.4149 358.618 88.4484C356.595 86.4819 354.46 85.4706 352.325 85.3582C349.123 85.0773 346.032 86.2572 342.998 88.8979C339.964 91.5948 338.391 95.6964 338.223 101.203V132.273C338.223 133.06 338.223 133.678 338.223 134.24C338.223 134.746 338.223 135.139 338.223 135.364C338.223 135.645 338.223 135.869 338.223 135.982C338.223 136.038 338.223 136.094 338.223 136.094C338.223 136.038 338.223 135.982 338.223 135.869C338.223 135.813 338.223 135.701 338.223 135.588C338.223 135.476 338.223 135.364 338.223 135.251C338.223 135.195 338.223 135.139 338.223 135.139H323.052C323.052 135.139 323.052 134.97 323.052 134.746C323.052 134.521 323.052 134.184 323.052 133.847C323.052 133.51 323.052 133.229 323.052 132.892C323.052 132.611 323.052 132.386 323.052 132.273V82.2118Z" fill="white"/>
<path d="M301.927 81.0319C306.478 83.6727 309.287 88.0552 310.298 94.1794C311.31 100.36 308.163 104.181 300.971 105.698C293.78 107.215 288.442 108.844 284.958 110.642C281.531 112.44 279.284 114.463 278.216 116.71C281.587 123.677 286.588 127.554 293.105 128.453C299.454 129.296 304.68 125.812 308.613 118.115L313.22 118.058C311.197 123.509 307.938 127.722 303.444 130.7C298.949 133.678 293.892 135.195 288.33 135.195C280.52 135.308 273.946 132.723 268.552 127.554C263.214 122.385 260.349 115.249 259.899 106.091C260.237 96.9326 262.99 89.9655 268.215 85.1897C273.384 80.4701 279.171 77.9417 285.52 77.6046C291.869 77.3237 297.319 78.4474 301.927 81.0319ZM285.97 82.0433C282.149 82.0995 279.34 84.0098 277.486 87.6619C275.631 91.2578 274.676 95.5279 274.62 100.36C274.564 105.192 275.294 109.462 276.811 113.114C276.868 113.114 276.924 113.114 276.98 113.114C278.16 111.204 280.239 109.406 283.16 107.776C286.138 106.091 289.285 104.799 292.656 103.9C296.027 102.944 297.038 99.798 295.802 94.348C295.409 91.8758 294.454 89.2351 292.881 86.4258C291.307 83.6727 289.004 82.2118 285.97 82.0433Z" fill="white"/>
<path d="M250.629 51.3096V135.42C247.819 134.184 244.898 133.566 241.92 133.678C238.886 133.734 236.02 134.071 233.267 134.521C232.031 134.746 230.907 134.914 229.784 135.027C219.502 136.094 211.355 135.42 205.399 132.892C199.443 130.363 195.229 126.767 192.757 121.992C190.341 117.272 189.105 112.328 189.105 107.046C189.105 99.18 191.24 92.5501 195.623 87.1562C200.005 81.7062 206.972 78.8969 216.468 78.6721C221.974 78.7845 226.637 80.9196 230.458 85.0211C234.335 89.1227 236.976 94.348 238.324 100.641C238.268 98.3934 237.987 96.146 237.537 93.8985C237.088 91.5949 236.638 89.6846 236.189 88.1114C235.739 86.5944 235.515 85.8077 235.515 85.8077V55.355L250.629 51.3096ZM216.074 83.7289C213.321 83.7289 210.849 84.9088 208.714 87.1562C205.68 90.2464 204.219 96.146 204.331 104.742C205.568 123.677 212.703 132.554 225.626 131.375C227.649 131.262 229.728 130.757 231.863 129.858C233.998 129.015 235.121 127.442 235.29 125.138V108.114C235.29 101.989 233.717 96.764 230.458 92.4377C227.199 88.1114 223.491 85.3583 219.389 84.1784C218.209 83.8412 217.142 83.7289 216.074 83.7289Z" fill="white"/>
<path d="M144.1 91.0333L137.976 91.7637C143.089 82.493 151.067 77.9981 162.023 78.1667C168.597 78.2229 173.429 79.6275 176.576 82.3244C179.666 85.0776 181.239 88.7858 181.239 93.5616V124.689C181.239 127.386 181.464 129.408 181.801 130.701C182.194 131.993 182.644 133.06 183.093 133.903C183.318 134.296 183.543 134.69 183.711 135.139H170.676C168.429 134.971 166.968 134.072 166.294 132.442C169.833 128.565 171.968 124.97 172.53 121.542C168.429 129.071 163.147 133.735 156.517 135.589C149.887 137.443 143.932 136.881 138.594 133.959C133.256 130.981 130.391 126.093 130.11 119.182C130.391 111.092 132.863 105.473 137.526 102.439C142.134 99.3488 147.134 97.2137 152.528 96.0338C156.236 95.0787 159.383 93.9549 161.911 92.6065C164.496 91.258 165.9 89.1791 166.069 86.3136C166.013 84.4595 165.058 83.1672 163.091 82.3806C161.181 81.594 158.371 81.7064 154.607 82.6616C150.842 83.6729 147.359 86.4822 144.1 91.0333ZM166.069 94.3482C164.777 95.6405 162.698 96.8204 159.888 97.888C156.517 99.124 153.202 100.978 150.056 103.45C146.909 105.979 145.112 109.968 144.662 115.418C144.55 122.666 146.516 127.442 150.618 129.689C154.775 131.993 159.888 130.532 166.069 125.419V122.273V94.3482Z" fill="white"/>
<path d="M88.3081 51.141C95.9494 50.8039 102.355 52.4333 107.468 56.0292C112.58 59.6813 115.277 62.2658 115.558 63.8952L115.839 75.8628C113.985 70.1319 110.558 65.1875 105.501 60.9735C100.444 56.7596 94.8257 54.7369 88.7014 54.9055C81.1725 55.6359 75.3854 60.1869 71.2838 68.671C67.1822 77.0989 65.6652 86.5943 66.7889 97.2135C68.1936 107.552 71.7333 115.474 77.4643 121.093C83.139 126.655 90.1061 128.846 98.3654 127.722C103.31 126.711 107.861 124.183 112.019 120.137C113.929 118.058 115.615 115.53 117.075 112.552L121.907 112.328C115.446 127.722 104.434 135.308 88.9262 135.195C79.5431 135.364 71.0591 131.993 63.474 125.138C55.8888 118.227 51.7311 107.664 51.0007 93.3928C50.9445 79.1778 54.428 68.5586 61.5636 61.6478C68.6992 54.6807 77.6328 51.1972 88.3081 51.141Z" fill="white"/>
</g>
<defs>
<filter id="filter0_d_2144_148869" x="0" y="0.0976562" width="552.745" height="195.562" filterUnits="userSpaceOnUse" color-interpolation-filters="sRGB">
<feFlood flood-opacity="0" result="BackgroundImageFix"/>
<feColorMatrix in="SourceAlpha" type="matrix" values="0 0 0 0 0 0 0 0 0 0 0 0 0 0 0 0 0 0 127 0" result="hardAlpha"/>
<feMorphology radius="1" operator="dilate" in="SourceAlpha" result="effect1_dropShadow_2144_148869"/>
<feOffset dx="4" dy="4"/>
<feGaussianBlur stdDeviation="27"/>
<feComposite in2="hardAlpha" operator="out"/>
<feColorMatrix type="matrix" values="0 0 0 0 0 0 0 0 0 0 0 0 0 0 0 0 0 0 0.25 0"/>
<feBlend mode="normal" in2="BackgroundImageFix" result="effect1_dropShadow_2144_148869"/>
<feBlend mode="normal" in="SourceGraphic" in2="effect1_dropShadow_2144_148869" result="shape"/>
</filter>
</defs>
</svg>
