<svg width="145" height="54" viewBox="0 0 145 54" fill="none" xmlns="http://www.w3.org/2000/svg">
<path d="M0.00968655 12.316C0.00968655 14.6263 0.00968655 16.9583 0.00968655 19.2685C0.00968655 20.7506 0.00968655 22.2544 0.00968655 23.7364C0.00968655 24.739 0.00968655 25.7198 0.00968655 26.7223C0.00968655 27.5505 0.00968655 28.4005 0.00968655 29.2287C0.00968655 31.1467 0.00968655 31.1467 0.00968655 31.1467C0.00968655 32.062 -0.0121082 32.6287 0.00968655 33.5877C0.0314813 34.0889 0.0532762 34.503 0.16225 35.0479C0.249429 35.462 0.314813 35.8107 0.554555 36.203C0.881476 36.7479 1.29558 37.0312 1.38275 37.0966C1.70968 37.3146 2.0148 37.4017 2.23275 37.4453C2.51608 37.4889 2.95197 37.5543 3.47505 37.6415C4.39043 37.7723 5.02247 37.8594 5.24042 37.8812C6.37375 38.012 7.35451 38.2953 8.6186 38.6223C9.53398 38.862 11.1032 39.2979 13.0647 40.0825C15.5057 41.0633 17.2275 42.044 17.707 42.3274C18.9711 43.0466 20.4749 44.0273 22.1095 45.3568C22.3929 45.5094 22.8724 45.7273 23.4826 45.8145C24.2672 45.9017 24.8993 45.7273 25.2262 45.5966C25.3352 45.5312 26.2723 44.8991 26.3595 43.7004C26.4249 42.7633 25.9454 42.1094 25.8364 41.9786C25.2044 41.3902 24.3108 40.5838 23.1557 39.7338C22.4147 39.1889 20.0826 37.5107 16.007 35.8107C13.5442 34.7864 9.90449 33.5223 5.21863 32.7813C5.19683 25.9377 5.17504 19.0942 5.15324 12.2288C5.15324 12.2288 4.80453 10.0276 2.66864 9.875C2.69044 9.875 0.358402 9.91859 0.00968655 12.316Z" fill="#F5B400"/>
<path d="M50.2684 34.742C49.1787 34.9599 47.762 35.2651 46.1274 35.7228C42.4441 36.7471 39.7634 37.924 39.0659 38.2292C35.2518 39.9291 32.2224 41.2804 29.2801 44.2445C27.2096 46.3368 25.9019 48.5163 25.0955 50.1291C25.0083 50.347 24.8776 50.6522 24.834 51.0663C24.834 51.1098 24.7686 51.5893 24.8558 52.0034C25.0519 53.0278 26.0545 53.638 26.2288 53.747C26.4032 53.8342 26.6647 53.9432 26.9916 53.9868C27.6019 54.0521 28.0814 53.856 28.2993 53.747C28.8006 53.4855 29.0839 53.1585 29.2365 52.9188C29.4762 52.5483 29.4544 52.3957 29.8032 51.7419C29.9339 51.5239 30.0647 51.2842 30.3698 50.8483C30.457 50.7393 30.8057 50.1945 31.089 49.7804C31.1544 49.6932 31.9172 48.6252 32.8108 47.6881C33.0506 47.4265 33.9877 46.4676 35.9493 45.1817C37.9544 43.874 39.6544 43.133 40.1557 42.8932C44.7543 40.9317 51.7069 39.515 52.753 39.3189C52.9274 39.2971 53.8645 39.1227 54.6709 38.4253C54.9543 38.1856 55.085 37.9894 55.1504 37.8804C55.5209 37.2702 55.4991 36.6164 55.4991 36.2023C55.4555 35.0471 55.5209 33.892 55.4991 32.7369C55.4991 32.7369 55.4991 32.7369 55.4991 30.6228C55.4991 29.3369 55.4991 28.051 55.4991 26.7651C55.4991 25.6318 55.4991 24.4767 55.4991 23.3434C55.4991 22.21 55.4991 21.0549 55.4991 19.9216C55.4991 18.9626 55.4773 17.9819 55.4991 17.0229C55.5209 16.1511 55.5427 15.3229 55.4555 14.146C55.4338 13.7537 55.412 13.4268 55.3902 13.2088C55.2594 12.9691 54.9325 12.446 54.3004 12.0973C54.1697 12.0319 53.6248 11.7268 52.8402 11.7704C52.5568 11.7704 52.0556 11.8357 51.5325 12.1627C51.3363 12.2934 50.7261 12.6639 50.421 13.4268C50.2902 13.7319 50.2684 14.0152 50.2466 14.2114C50.2466 21.0549 50.2684 27.8985 50.2684 34.742Z" fill="#F5B400"/>
<path d="M47.0203 24.0634V2.09435H46.9986C46.9986 1.98537 46.9768 1.81102 46.9114 1.63666C46.8242 1.35333 46.6716 1.15718 46.5627 1.0482C46.4973 0.961022 46.2357 0.677691 45.8434 0.459744C45.2114 0.111028 44.187 -0.0851247 43.2499 0.394359C43.0319 0.503333 42.7486 0.677691 42.4652 0.982817C42.4216 1.02641 42.2473 1.24435 42.0947 1.54948C42.0076 1.72384 41.964 1.85461 41.964 1.8982C41.9422 1.96358 41.9422 2.02896 41.9204 2.07255V2.09435V21.4699C41.3755 21.6224 34.5756 23.6929 30.8922 28.3788L26.0102 28.5314C25.3128 27.6814 24.4846 26.8096 23.482 25.9596C20.3218 23.257 17.0308 22.0801 14.7859 21.5135V1.98537C14.7859 1.8764 14.7641 1.70204 14.6988 1.52769C14.6116 1.24435 14.459 1.0482 14.35 0.939228C14.2847 0.852049 14.0231 0.568718 13.6308 0.35077C12.9988 0.00205448 11.9744 -0.194098 11.0372 0.285386C10.8193 0.394359 10.536 0.568717 10.2526 0.873844C10.209 0.917433 10.0347 1.13538 9.88212 1.44051C9.79494 1.61486 9.75135 1.74563 9.75135 1.78922C9.72956 1.85461 9.72956 1.91999 9.70776 1.96358V1.98537V23.9981C9.70776 24.0852 9.72956 24.2378 9.77315 24.3904C9.79494 24.4775 9.86033 24.6519 10.0347 24.8481C10.318 25.1968 10.6885 25.3711 10.8847 25.4801C11.2334 25.6545 11.7565 25.8724 12.4975 26.0032C14.0449 26.3737 16.0282 27.0493 18.0769 28.3352C23.1115 31.4954 25.3346 36.2685 26.141 38.339V38.3608C26.141 38.3608 26.1628 38.4698 26.2282 38.5787C26.3153 38.7531 26.4461 38.9928 26.4461 38.9928C26.5769 39.189 26.7948 39.5159 27.1871 39.7774C27.9282 40.2787 28.9525 40.3877 29.7807 39.8428C30.173 39.5813 30.5217 39.0364 30.5653 38.971C30.6525 38.8185 30.7397 38.6877 30.7397 38.6877C30.8051 38.5569 30.8487 38.4262 30.8704 38.339C31.5461 36.4428 33.3986 31.9749 37.9101 28.8365C39.8935 27.4634 41.8332 26.7224 43.3152 26.3301C43.5332 26.2865 43.8601 26.2211 44.2524 26.1121C44.9063 25.9378 45.255 25.8506 45.6255 25.6763C45.6255 25.6763 46.5627 25.2404 46.846 24.6519C46.8678 24.6301 46.9114 24.5211 46.9332 24.4122C46.9985 24.2378 46.9986 24.1506 46.9986 24.0634C47.0203 24.0852 47.0203 24.0634 47.0203 24.0634Z" fill="white"/>
<path d="M30.8702 15.1924H26.2279V30.2525H30.8702V15.1924Z" fill="white"/>
<path d="M28.2558 3.05322C24.7686 3.05322 21.9353 6.01731 21.9353 9.65703C21.9353 13.2967 24.7686 16.2608 28.2558 16.2608C31.7429 16.2608 34.5762 13.2967 34.5762 9.65703C34.5762 6.01731 31.7429 3.05322 28.2558 3.05322ZM31.6122 12.6865C30.784 13.5147 29.6942 13.9506 28.5391 13.9506C27.384 13.9506 26.2725 13.5147 25.4443 12.6865C24.6161 11.8583 24.1802 10.7686 24.1802 9.59164C24.1802 8.43652 24.6379 7.34678 25.4443 6.49679C26.2725 5.66859 27.384 5.2327 28.5391 5.2327C29.6942 5.2327 30.8058 5.66859 31.6122 6.49679C31.7865 6.64935 31.9173 6.82371 32.0481 6.99807L30.784 7.93524C30.2827 7.23781 29.4545 6.78012 28.5173 6.78012C26.9699 6.78012 25.7058 8.04422 25.7058 9.59164C25.7058 11.1391 26.9699 12.4032 28.5173 12.4032C29.4545 12.4032 30.2609 11.9237 30.784 11.2262L32.0481 12.1634C31.9173 12.3378 31.7865 12.5339 31.6122 12.6865Z" fill="white"/>
<path d="M65.111 25.3286C64.3699 25.3286 63.6725 25.1978 63.0405 24.9145C62.4084 24.6312 61.9071 24.1953 61.5366 23.585C61.1661 22.9748 60.97 22.1684 60.97 21.144V15.6953C60.97 14.6928 61.1661 13.8646 61.5366 13.2543C61.9071 12.6441 62.4084 12.2082 63.0405 11.9248C63.6725 11.6415 64.3699 11.5107 65.111 11.5107C65.961 11.5107 66.7238 11.6633 67.334 11.9466C67.9661 12.23 68.4456 12.6441 68.8161 13.1453C69.1648 13.6466 69.3391 14.2351 69.3391 14.8889C69.3391 15.303 69.252 15.5864 69.0994 15.7171C68.9468 15.8479 68.6853 15.9133 68.3584 15.9133C68.0533 15.9133 67.8135 15.8697 67.6392 15.7607C67.4648 15.6517 67.3776 15.4992 67.3558 15.2594C67.334 15.1069 67.3122 14.9107 67.2686 14.671C67.2251 14.453 67.1161 14.2351 66.9853 13.9953C66.8328 13.7774 66.6366 13.603 66.3315 13.4505C66.0481 13.2979 65.6558 13.2325 65.1546 13.2325C64.4353 13.2325 63.8687 13.4287 63.4982 13.821C63.1059 14.2133 62.9097 14.8235 62.9097 15.6517V21.1004C62.9097 21.9286 63.1059 22.5389 63.4982 22.9312C63.8905 23.3235 64.4571 23.5196 65.1981 23.5196C65.6776 23.5196 66.0481 23.4542 66.3315 23.3017C66.6148 23.1491 66.811 22.9748 66.9635 22.7568C67.0943 22.5389 67.2033 22.2991 67.2468 22.0594C67.2904 21.8196 67.334 21.6017 67.3558 21.3838C67.3776 21.144 67.4648 20.9697 67.6392 20.8825C67.8135 20.7735 68.0533 20.7299 68.3148 20.7299C68.6635 20.7299 68.925 20.7953 69.0776 20.9261C69.2302 21.0568 69.3173 21.3402 69.3173 21.7543C69.3173 22.4299 69.143 23.0402 68.7943 23.5632C68.4456 24.0863 67.9443 24.5004 67.3122 24.8055C66.7238 25.176 65.961 25.3286 65.111 25.3286Z" fill="#F5B400"/>
<path d="M72.194 25.2196C71.9543 25.2196 71.7145 25.176 71.5184 25.0671C71.3222 24.9581 71.2133 24.8055 71.2133 24.5658V12.1428C71.2133 11.9248 71.3222 11.7505 71.5184 11.6633C71.7145 11.5543 71.9543 11.5107 72.194 11.5107C72.4338 11.5107 72.6735 11.5543 72.8697 11.6633C73.0658 11.7723 73.1748 11.9248 73.1748 12.1428V17.3081H77.8389V12.1428C77.8389 11.9248 77.9478 11.7505 78.144 11.6633C78.3401 11.5543 78.5799 11.5107 78.8196 11.5107C79.0594 11.5107 79.2991 11.5543 79.4953 11.6633C79.6914 11.7723 79.8004 11.9248 79.8004 12.1428V24.544C79.8004 24.7619 79.6914 24.9363 79.4953 25.0453C79.2991 25.1542 79.0594 25.1978 78.8196 25.1978C78.5799 25.1978 78.3401 25.1542 78.144 25.0453C77.9478 24.9363 77.8389 24.7837 77.8389 24.544V18.8774H73.1966V24.544C73.1966 24.7619 73.0876 24.9363 72.8914 25.0453C72.6735 25.1542 72.4556 25.2196 72.194 25.2196Z" fill="#F5B400"/>
<path d="M83.1557 25.2196C82.9378 25.2196 82.7416 25.1542 82.5673 25.0453C82.3711 24.9363 82.2839 24.7619 82.2839 24.5658V12.1646C82.2839 11.9466 82.3711 11.7941 82.5673 11.6851C82.7634 11.5761 82.9596 11.5107 83.1557 11.5107H89.8031C90.0429 11.5107 90.2172 11.5979 90.3044 11.7941C90.4134 11.9902 90.457 12.1864 90.457 12.3825C90.457 12.6223 90.3916 12.8402 90.2826 13.0146C90.1736 13.1889 89.9993 13.2761 89.8031 13.2761H84.2673V17.5697H87.1442C87.3621 17.5697 87.5147 17.6569 87.6236 17.8094C87.7326 17.962 87.798 18.1581 87.798 18.3761C87.798 18.5504 87.7544 18.7248 87.6454 18.8992C87.5365 19.0735 87.3839 19.1607 87.1442 19.1607H84.2673V23.476H89.8031C90.0211 23.476 90.1736 23.5632 90.2826 23.7376C90.3916 23.9119 90.457 24.1299 90.457 24.3696C90.457 24.5658 90.4134 24.7619 90.3044 24.9581C90.1954 25.1542 90.0429 25.2414 89.8031 25.2414H83.1557V25.2196Z" fill="#F5B400"/>
<path d="M93.0074 25.2196C92.7676 25.2196 92.5279 25.1542 92.3317 25.0453C92.1356 24.9363 92.0266 24.7619 92.0266 24.5658V12.1646C92.0266 11.9248 92.1356 11.7505 92.3317 11.6633C92.5279 11.5543 92.7676 11.5107 93.0074 11.5107C93.2471 11.5107 93.4433 11.5543 93.6176 11.6197C93.792 11.6851 93.9445 11.7941 94.0753 11.9684C94.2061 12.121 94.3586 12.3607 94.5112 12.6441L98.6522 20.7517V12.1428C98.6522 11.9248 98.7612 11.7505 98.9573 11.6633C99.1535 11.5543 99.3932 11.5107 99.633 11.5107C99.8727 11.5107 100.112 11.5543 100.309 11.6633C100.505 11.7723 100.614 11.9248 100.614 12.1428V24.544C100.614 24.7619 100.505 24.9145 100.309 25.0235C100.112 25.1324 99.8727 25.1978 99.633 25.1978C99.3932 25.1978 99.1535 25.1324 98.9573 25.0017C98.7612 24.8709 98.5868 24.6966 98.4561 24.4568L93.9881 15.9351V24.544C93.9881 24.7619 93.8792 24.9145 93.683 25.0235C93.4869 25.1542 93.2689 25.2196 93.0074 25.2196Z" fill="#F5B400"/>
<path d="M107.13 25.3286C106.345 25.3286 105.648 25.1978 105.016 24.9145C104.384 24.6312 103.883 24.1953 103.512 23.585C103.142 22.9748 102.967 22.1684 102.967 21.144V15.6953C102.967 14.6928 103.142 13.8646 103.512 13.2543C103.883 12.6441 104.384 12.2082 105.016 11.9248C105.648 11.6415 106.367 11.5107 107.152 11.5107C107.936 11.5107 108.656 11.6415 109.288 11.9248C109.92 12.2082 110.421 12.6441 110.791 13.2543C111.162 13.8646 111.358 14.671 111.358 15.6953V21.144C111.358 22.1466 111.162 22.9748 110.791 23.585C110.421 24.1953 109.92 24.6312 109.288 24.9145C108.634 25.176 107.936 25.3286 107.13 25.3286ZM107.13 23.5632C107.827 23.5632 108.372 23.3671 108.765 22.9748C109.157 22.5825 109.353 21.9722 109.353 21.144V15.6953C109.353 14.8671 109.157 14.2569 108.765 13.8646C108.372 13.4723 107.827 13.2761 107.13 13.2761C106.433 13.2761 105.888 13.4723 105.495 13.8646C105.103 14.2569 104.907 14.8671 104.907 15.6953V21.144C104.907 21.9722 105.103 22.5825 105.495 22.9748C105.888 23.3671 106.433 23.5632 107.13 23.5632Z" fill="#F5B400"/>
<path d="M117.657 25.3286C116.916 25.3286 116.219 25.1978 115.587 24.9145C114.955 24.6312 114.454 24.1953 114.083 23.585C113.713 22.9748 113.516 22.1684 113.516 21.144V15.6953C113.516 14.6928 113.713 13.8646 114.083 13.2543C114.454 12.6441 114.955 12.2082 115.587 11.9248C116.219 11.6415 116.916 11.5107 117.657 11.5107C118.507 11.5107 119.27 11.6633 119.881 11.9466C120.513 12.23 120.992 12.6441 121.363 13.1453C121.711 13.6466 121.886 14.2351 121.886 14.8889C121.886 15.303 121.798 15.5864 121.646 15.7171C121.493 15.8479 121.232 15.9133 120.905 15.9133C120.6 15.9133 120.36 15.8697 120.186 15.7607C120.011 15.6517 119.924 15.4992 119.902 15.2594C119.881 15.1069 119.859 14.9107 119.815 14.671C119.772 14.453 119.663 14.2351 119.532 13.9953C119.379 13.7774 119.183 13.603 118.878 13.4505C118.595 13.2979 118.202 13.2325 117.701 13.2325C116.982 13.2325 116.415 13.4287 116.045 13.821C115.652 14.2133 115.456 14.8235 115.456 15.6517V21.1004C115.456 21.9286 115.652 22.5389 116.045 22.9312C116.437 23.3235 117.004 23.5196 117.745 23.5196C118.224 23.5196 118.595 23.4542 118.878 23.3017C119.161 23.1491 119.357 22.9748 119.51 22.7568C119.641 22.5389 119.75 22.2991 119.793 22.0594C119.837 21.8196 119.881 21.6017 119.902 21.3838C119.924 21.144 120.011 20.9697 120.186 20.8825C120.36 20.7735 120.6 20.7299 120.861 20.7299C121.21 20.7299 121.472 20.7953 121.624 20.9261C121.777 21.0568 121.864 21.3402 121.864 21.7543C121.864 22.4299 121.689 23.0402 121.341 23.5632C120.992 24.0863 120.491 24.5004 119.859 24.8055C119.27 25.176 118.529 25.3286 117.657 25.3286Z" fill="white"/>
<path d="M127.792 25.3286C127.007 25.3286 126.31 25.1978 125.677 24.9145C125.045 24.6312 124.544 24.1953 124.174 23.585C123.803 22.9748 123.629 22.1684 123.629 21.144V15.6953C123.629 14.6928 123.803 13.8646 124.174 13.2543C124.544 12.6441 125.045 12.2082 125.677 11.9248C126.31 11.6415 127.029 11.5107 127.813 11.5107C128.598 11.5107 129.317 11.6415 129.949 11.9248C130.581 12.2082 131.083 12.6441 131.453 13.2543C131.824 13.8646 132.02 14.671 132.02 15.6953V21.144C132.02 22.1466 131.824 22.9748 131.453 23.585C131.083 24.1953 130.581 24.6312 129.949 24.9145C129.317 25.176 128.598 25.3286 127.792 25.3286ZM127.792 23.5632C128.489 23.5632 129.034 23.3671 129.426 22.9748C129.818 22.5825 130.015 21.9722 130.015 21.144V15.6953C130.015 14.8671 129.818 14.2569 129.426 13.8646C129.034 13.4723 128.489 13.2761 127.792 13.2761C127.094 13.2761 126.549 13.4723 126.157 13.8646C125.765 14.2569 125.569 14.8671 125.569 15.6953V21.144C125.569 21.9722 125.765 22.5825 126.157 22.9748C126.549 23.3671 127.094 23.5632 127.792 23.5632Z" fill="white"/>
<path d="M135.311 25.219C135.071 25.219 134.832 25.1536 134.635 25.0446C134.439 24.9356 134.33 24.7613 134.33 24.5651V12.4908C134.33 12.1203 134.439 11.8588 134.635 11.7062C134.832 11.5537 135.071 11.4883 135.311 11.4883C135.551 11.4883 135.747 11.5319 135.921 11.5973C136.096 11.6626 136.248 11.7716 136.401 11.946C136.553 12.1203 136.706 12.3383 136.859 12.6216L139.474 17.5908L142.133 12.6216C142.285 12.3383 142.438 12.0985 142.591 11.946C142.743 11.7934 142.896 11.6626 143.07 11.5973C143.244 11.5319 143.441 11.4883 143.68 11.4883C143.942 11.4883 144.182 11.5537 144.378 11.7062C144.574 11.8588 144.683 12.0985 144.683 12.4908V24.5433C144.683 24.7613 144.574 24.9138 144.378 25.0228C144.182 25.1318 143.942 25.1972 143.702 25.1972C143.462 25.1972 143.223 25.1318 143.026 25.0228C142.83 24.9138 142.721 24.7395 142.721 24.5433V15.5639L140.215 20.2062C140.106 20.3587 139.997 20.4895 139.888 20.5549C139.757 20.6203 139.626 20.6639 139.496 20.6639C139.387 20.6639 139.256 20.6421 139.147 20.5767C139.016 20.5113 138.907 20.4023 138.82 20.228L136.314 15.4767V24.5869C136.314 24.8049 136.205 24.9574 136.009 25.0664C135.791 25.1536 135.573 25.219 135.311 25.219Z" fill="white"/>
<path d="M61.1392 35.9244C61.0303 35.9244 60.9431 35.9026 60.8777 35.8372C60.8123 35.7936 60.7905 35.7282 60.7905 35.6411V29.4949C60.7905 29.4078 60.8341 29.3424 60.8995 29.2988C60.9649 29.2552 61.0521 29.2334 61.1392 29.2334H62.7303C63.079 29.2334 63.3841 29.277 63.6674 29.3642C63.9508 29.4513 64.1905 29.6039 64.3431 29.8219C64.5174 30.0398 64.6046 30.3667 64.6046 30.8026C64.6046 31.1949 64.5392 31.5001 64.3867 31.7616C64.2341 32.0231 64.0597 32.1975 63.82 32.3065C64.0161 32.3718 64.1687 32.4808 64.3213 32.6116C64.4738 32.7424 64.5828 32.8949 64.6482 33.0911C64.7354 33.2872 64.779 33.5488 64.779 33.8539V34.0282C64.779 34.5077 64.6918 34.8782 64.5392 35.1398C64.3867 35.4013 64.1687 35.6193 63.8854 35.75C63.602 35.8808 63.2969 35.9244 62.9482 35.9244H61.1392ZM61.5751 31.9795H62.7303C63.1226 31.9795 63.3841 31.8924 63.5803 31.718C63.7546 31.5436 63.8418 31.2821 63.8418 30.8898C63.8418 30.6501 63.7982 30.4321 63.6892 30.3013C63.602 30.1488 63.4713 30.0616 63.2969 29.9962C63.1226 29.9308 62.9264 29.909 62.7085 29.909H61.5751V31.9795ZM61.5751 35.2487H62.8174C63.1879 35.2487 63.4931 35.1398 63.6892 34.9436C63.8854 34.7475 63.9943 34.4205 63.9943 33.9847V33.8321C63.9943 33.3962 63.8854 33.0911 63.6892 32.8949C63.4931 32.7206 63.1879 32.6334 62.8174 32.6334H61.5751V35.2487Z" fill="white"/>
<path d="M66.4828 35.657C66.3956 35.657 66.3084 35.6352 66.243 35.5916C66.1776 35.548 66.134 35.4826 66.134 35.3954V29.2493C66.134 29.1622 66.1776 29.0968 66.243 29.0532C66.3084 29.0096 66.3956 28.9878 66.4828 28.9878H69.7738C69.8827 28.9878 69.9481 29.0314 69.9917 29.0968C70.0353 29.1622 70.0571 29.2493 70.0571 29.3147C70.0571 29.4019 70.0353 29.4891 69.9917 29.5545C69.9481 29.6198 69.8827 29.6634 69.7956 29.6634H66.9186V31.9955H68.3571C68.4443 31.9955 68.5097 32.0391 68.5532 32.1044C68.5968 32.1698 68.6186 32.257 68.6186 32.3224C68.6186 32.3878 68.5968 32.475 68.5532 32.5403C68.5097 32.6057 68.4443 32.6493 68.3353 32.6493H66.8968V34.9813H69.7738C69.8609 34.9813 69.9263 35.0249 69.9699 35.0903C70.0135 35.1557 70.0353 35.2429 70.0353 35.3519C70.0353 35.439 70.0135 35.5044 69.9699 35.5698C69.9263 35.6352 69.8609 35.6788 69.752 35.6788H66.4828V35.657Z" fill="white"/>
<path d="M71.2349 35.657C71.1478 35.657 71.0606 35.6352 70.9952 35.5916C70.9298 35.548 70.8862 35.4826 70.8862 35.3954V29.2493C70.8862 29.1622 70.9298 29.0968 71.017 29.0532C71.1042 29.0096 71.1914 28.9878 71.2785 28.9878C71.3875 28.9878 71.4747 29.0096 71.5401 29.0532C71.6273 29.0968 71.6708 29.1622 71.6708 29.2493V34.9813H74.199C74.2862 34.9813 74.3516 35.0249 74.3952 35.0903C74.4388 35.1557 74.4606 35.2429 74.4606 35.3301C74.4606 35.4172 74.4388 35.5044 74.3952 35.5698C74.3516 35.6352 74.2862 35.6788 74.199 35.6788H71.2349V35.657Z" fill="white"/>
<path d="M75.5936 35.657C75.5064 35.657 75.4192 35.6352 75.3321 35.5916C75.2449 35.548 75.2013 35.4826 75.2013 35.3954V29.2493C75.2013 29.1622 75.2449 29.0968 75.3321 29.0532C75.4192 29.0096 75.5064 28.9878 75.5936 28.9878C75.7026 28.9878 75.7898 29.0096 75.8551 29.0532C75.9423 29.0968 75.9859 29.1622 75.9859 29.2493V35.3954C75.9859 35.4826 75.9423 35.548 75.8551 35.5916C75.7898 35.6352 75.7026 35.657 75.5936 35.657Z" fill="white"/>
<path d="M77.665 35.657C77.5778 35.657 77.4906 35.6352 77.4253 35.5916C77.3599 35.548 77.3163 35.4826 77.3163 35.3954V29.2493C77.3163 29.1622 77.3599 29.0968 77.4253 29.0532C77.4906 29.0096 77.5778 28.9878 77.665 28.9878H80.956C81.065 28.9878 81.1304 29.0314 81.1739 29.0968C81.2175 29.1622 81.2393 29.2493 81.2393 29.3147C81.2393 29.4019 81.2175 29.4891 81.1739 29.5545C81.1304 29.6198 81.065 29.6634 80.9778 29.6634H78.1009V31.9955H79.5393C79.6265 31.9955 79.6919 32.0391 79.7355 32.1044C79.7791 32.1698 79.8009 32.257 79.8009 32.3224C79.8009 32.3878 79.7791 32.475 79.7355 32.5403C79.6919 32.6057 79.6265 32.6493 79.5176 32.6493H78.0791V34.9813H80.956C81.0432 34.9813 81.1086 35.0249 81.1522 35.0903C81.1957 35.1557 81.2175 35.2429 81.2175 35.3519C81.2175 35.439 81.1957 35.5044 81.1522 35.5698C81.1086 35.6352 81.0432 35.6788 80.9342 35.6788H77.665V35.657Z" fill="white"/>
<path d="M83.9627 35.7224C83.8537 35.7224 83.7665 35.7006 83.6575 35.657C83.5704 35.6134 83.505 35.548 83.4832 35.4608L81.587 29.3801C81.587 29.3583 81.587 29.3365 81.587 29.3147C81.587 29.2493 81.6088 29.2057 81.6524 29.1404C81.696 29.0968 81.7614 29.0532 81.8268 29.0314C81.8922 29.0096 81.9793 28.9878 82.0447 28.9878C82.1101 28.9878 82.1755 29.0096 82.2191 29.0314C82.2627 29.0532 82.3063 29.0968 82.3281 29.1622L83.9627 34.589L85.5755 29.1622C85.5973 29.0968 85.6191 29.0532 85.6844 29.0314C85.7498 29.0096 85.7934 28.9878 85.8588 28.9878C85.9242 28.9878 86.0114 29.0096 86.0767 29.0314C86.1421 29.0532 86.2075 29.0968 86.2511 29.1404C86.2947 29.1839 86.3165 29.2493 86.3165 29.3147V29.3365C86.3165 29.3583 86.3165 29.3583 86.3165 29.3801L84.4204 35.4608C84.3986 35.548 84.3332 35.6134 84.246 35.657C84.1588 35.7006 84.0716 35.7224 83.9627 35.7224Z" fill="white"/>
<path d="M87.4936 35.657C87.4064 35.657 87.3193 35.6352 87.2539 35.5916C87.1885 35.548 87.1449 35.4826 87.1449 35.3954V29.2493C87.1449 29.1622 87.1885 29.0968 87.2539 29.0532C87.3193 29.0096 87.4064 28.9878 87.4936 28.9878H90.7846C90.8936 28.9878 90.959 29.0314 91.0026 29.0968C91.0461 29.1622 91.0679 29.2493 91.0679 29.3147C91.0679 29.4019 91.0461 29.4891 91.0026 29.5545C90.959 29.6198 90.8936 29.6634 90.8064 29.6634H87.9295V31.9955H89.368C89.4551 31.9955 89.5205 32.0391 89.5641 32.1044C89.6077 32.1698 89.6295 32.257 89.6295 32.3224C89.6295 32.3878 89.6077 32.475 89.5641 32.5403C89.5205 32.6057 89.4551 32.6493 89.3462 32.6493H87.9077V34.9813H90.7846C90.8718 34.9813 90.9372 35.0249 90.9808 35.0903C91.0244 35.1557 91.0462 35.2429 91.0462 35.3519C91.0462 35.439 91.0244 35.5044 90.9808 35.5698C90.9372 35.6352 90.8718 35.6788 90.7628 35.6788H87.4936V35.657Z" fill="white"/>
<path d="M94.1411 35.657C94.0539 35.657 93.9667 35.6352 93.8795 35.5916C93.7924 35.548 93.7488 35.4826 93.7488 35.3954V29.2493C93.7488 29.1622 93.7924 29.0968 93.8795 29.0532C93.9667 29.0096 94.0539 28.9878 94.1411 28.9878C94.2501 28.9878 94.3372 29.0096 94.4026 29.0532C94.4898 29.0968 94.5334 29.1622 94.5334 29.2493V35.3954C94.5334 35.4826 94.4898 35.548 94.4026 35.5916C94.3372 35.6352 94.2283 35.657 94.1411 35.657Z" fill="white"/>
<path d="M96.2337 35.657C96.1466 35.657 96.0594 35.6352 95.9722 35.5916C95.885 35.548 95.8414 35.4826 95.8414 35.3954V29.2493C95.8414 29.1622 95.885 29.075 95.9722 29.0532C96.0594 29.0096 96.1466 28.9878 96.2337 28.9878C96.3427 28.9878 96.4081 29.0096 96.4735 29.0532C96.5389 29.0968 96.6042 29.1404 96.6478 29.2057C96.7132 29.2711 96.7568 29.3583 96.8222 29.4673L99.1106 33.9352V29.2493C99.1106 29.1622 99.1542 29.0968 99.2414 29.0532C99.3286 29.0096 99.4158 28.9878 99.5029 28.9878C99.6119 28.9878 99.6991 29.0096 99.7645 29.0532C99.8517 29.0968 99.8953 29.1622 99.8953 29.2493V35.3954C99.8953 35.4826 99.8517 35.548 99.7645 35.5916C99.6773 35.6352 99.5901 35.657 99.5029 35.657C99.4158 35.657 99.3068 35.6134 99.2196 35.548C99.1324 35.4826 99.0671 35.3954 99.0017 35.3083L96.5825 30.7096V35.3954C96.5825 35.4826 96.5389 35.548 96.4517 35.5916C96.4299 35.6352 96.3427 35.657 96.2337 35.657Z" fill="white"/>
<path d="M105.017 35.7225C104.668 35.7225 104.319 35.6572 104.036 35.5264C103.731 35.3956 103.491 35.1777 103.317 34.8943C103.142 34.611 103.055 34.2187 103.055 33.7392V30.9931C103.055 30.5136 103.142 30.1213 103.339 29.838C103.513 29.5546 103.753 29.3367 104.058 29.2059C104.363 29.0751 104.69 29.0098 105.039 29.0098C105.453 29.0098 105.823 29.0751 106.107 29.2277C106.412 29.3585 106.63 29.5546 106.782 29.7944C106.935 30.0341 107.022 30.2957 107.022 30.6008C107.022 30.7751 107 30.8841 106.935 30.9495C106.869 31.0149 106.782 31.0367 106.651 31.0367C106.521 31.0367 106.433 31.0149 106.368 30.9713C106.303 30.9277 106.259 30.8623 106.259 30.7751C106.259 30.688 106.237 30.579 106.216 30.47C106.194 30.361 106.128 30.2303 106.041 30.1213C105.954 30.0123 105.845 29.9251 105.671 29.838C105.518 29.7726 105.3 29.729 105.039 29.729C104.646 29.729 104.341 29.838 104.123 30.0341C103.905 30.2521 103.796 30.579 103.796 31.0149V33.761C103.796 34.1969 103.905 34.5238 104.123 34.7418C104.341 34.9597 104.646 35.0469 105.06 35.0469C105.322 35.0469 105.518 35.0033 105.671 34.9379C105.823 34.8725 105.932 34.7636 105.998 34.6546C106.063 34.5456 106.128 34.4367 106.15 34.3059C106.172 34.1751 106.194 34.0661 106.216 33.9572C106.216 33.87 106.259 33.8046 106.325 33.761C106.39 33.7174 106.477 33.6956 106.608 33.6956C106.739 33.6956 106.826 33.7174 106.891 33.7828C106.957 33.8482 106.978 33.9572 106.978 34.1315C106.978 34.4367 106.891 34.6982 106.739 34.9597C106.564 35.1995 106.346 35.3956 106.041 35.5482C105.78 35.6572 105.431 35.7225 105.017 35.7225Z" fill="white"/>
<path d="M111.598 35.6791C111.532 35.6791 111.467 35.6573 111.402 35.5919C111.336 35.5265 111.293 35.4611 111.249 35.374L109.854 32.6932H108.786V35.374C108.786 35.4611 108.743 35.5265 108.655 35.5701C108.568 35.6137 108.481 35.6355 108.394 35.6355C108.307 35.6355 108.22 35.6137 108.132 35.5701C108.045 35.5265 108.002 35.4611 108.002 35.374V29.2278C108.002 29.1625 108.023 29.0971 108.089 29.0535C108.132 29.0099 108.198 28.9881 108.285 28.9663H109.985C110.355 28.9663 110.704 29.0317 111.009 29.1407C111.314 29.2496 111.576 29.4458 111.75 29.7073C111.925 29.9689 112.034 30.3394 112.034 30.7971C112.034 31.1676 111.968 31.4727 111.859 31.7124C111.728 31.9522 111.576 32.1483 111.358 32.2791C111.14 32.4099 110.922 32.5188 110.661 32.5624L112.034 35.1342C112.055 35.156 112.055 35.1778 112.055 35.1996C112.055 35.2214 112.055 35.2432 112.055 35.265C112.055 35.3304 112.034 35.3958 111.99 35.4611C111.946 35.5265 111.881 35.5701 111.816 35.6137C111.75 35.6573 111.685 35.6791 111.598 35.6791ZM108.786 32.0612H109.985C110.377 32.0612 110.682 31.974 110.9 31.7778C111.14 31.6035 111.249 31.2766 111.249 30.8625C111.249 30.4484 111.14 30.1214 110.9 29.9471C110.661 29.7727 110.355 29.6855 109.985 29.6855H108.786V32.0612Z" fill="white"/>
<path d="M113.363 35.6679C113.363 35.6619 113.359 35.657 113.353 35.6569C113.269 35.6551 113.186 35.6334 113.124 35.5916C113.058 35.548 113.015 35.4826 113.015 35.3954V29.2493C113.015 29.1622 113.058 29.0968 113.124 29.0532C113.189 29.0096 113.276 28.9878 113.363 28.9878H116.654C116.763 28.9878 116.829 29.0314 116.872 29.0968C116.916 29.1622 116.938 29.2493 116.938 29.3147C116.938 29.4019 116.916 29.4891 116.872 29.5545C116.829 29.6198 116.763 29.6634 116.676 29.6634H114.965C114.321 29.6634 113.799 30.1855 113.799 30.8294C113.799 31.4734 114.321 31.9955 114.965 31.9955H115.238C115.325 31.9955 115.39 32.0391 115.434 32.1044C115.478 32.1698 115.499 32.257 115.499 32.3224C115.499 32.3878 115.478 32.475 115.434 32.5403C115.39 32.6057 115.325 32.6493 115.216 32.6493H114.944C114.3 32.6493 113.778 33.1714 113.778 33.8153C113.778 34.4593 114.3 34.9813 114.944 34.9813H116.654C116.742 34.9813 116.807 35.0249 116.851 35.0903C116.894 35.1557 116.916 35.2429 116.916 35.3519C116.916 35.439 116.894 35.5044 116.851 35.5698C116.807 35.6352 116.742 35.6788 116.633 35.6788H113.374C113.368 35.6788 113.363 35.6739 113.363 35.6679Z" fill="white"/>
<path d="M117.723 35.6574C117.657 35.6574 117.592 35.6356 117.505 35.6138C117.418 35.592 117.374 35.5484 117.33 35.5049C117.287 35.4613 117.265 35.3959 117.265 35.3305C117.265 35.3087 117.265 35.2869 117.265 35.2651L119.161 29.1844C119.183 29.0972 119.248 29.0318 119.336 28.9882C119.423 28.9446 119.532 28.9229 119.641 28.9229C119.75 28.9229 119.859 28.9446 119.946 28.9882C120.033 29.0318 120.098 29.0972 120.12 29.1844L122.016 35.2651C122.038 35.2869 122.038 35.3087 122.038 35.3305C122.038 35.3959 122.016 35.4395 121.951 35.5049C121.907 35.5484 121.842 35.592 121.755 35.6138C121.689 35.6356 121.602 35.6574 121.537 35.6574C121.471 35.6574 121.406 35.6356 121.362 35.6138C121.319 35.592 121.275 35.5485 121.253 35.4831L120.839 34.11H118.398L118.006 35.4831C117.984 35.5485 117.962 35.592 117.897 35.6138C117.853 35.6574 117.81 35.6574 117.723 35.6574ZM118.616 33.4997H120.687L119.641 30.0562L118.616 33.4997Z" fill="white"/>
<path d="M123.912 35.6573C123.803 35.6573 123.716 35.6355 123.65 35.5919C123.585 35.5483 123.52 35.4829 123.52 35.3958V29.6855H122.016C121.929 29.6855 121.863 29.6419 121.82 29.5766C121.776 29.5112 121.754 29.424 121.754 29.315C121.754 29.2278 121.776 29.1407 121.82 29.0753C121.863 29.0099 121.929 28.9663 122.016 28.9663H125.786C125.873 28.9663 125.939 29.0099 125.982 29.0753C126.026 29.1407 126.048 29.2278 126.048 29.315C126.048 29.4022 126.026 29.4894 125.982 29.5766C125.939 29.6637 125.873 29.6855 125.786 29.6855H124.282V35.3958C124.282 35.4829 124.239 35.5483 124.152 35.5919C124.065 35.6355 123.999 35.6573 123.912 35.6573Z" fill="white"/>
<path d="M127.226 35.657C127.138 35.657 127.051 35.6352 126.964 35.5916C126.877 35.548 126.833 35.4826 126.833 35.3954V29.2493C126.833 29.1622 126.877 29.0968 126.964 29.0532C127.051 29.0096 127.138 28.9878 127.226 28.9878C127.335 28.9878 127.422 29.0096 127.487 29.0532C127.574 29.0968 127.618 29.1622 127.618 29.2493V35.3954C127.618 35.4826 127.574 35.548 127.487 35.5916C127.422 35.6352 127.335 35.657 127.226 35.657Z" fill="white"/>
<path d="M130.822 35.7224C130.713 35.7224 130.626 35.7006 130.517 35.657C130.43 35.6134 130.364 35.548 130.343 35.4608L128.447 29.3801C128.447 29.3583 128.447 29.3365 128.447 29.3147C128.447 29.2493 128.468 29.2057 128.512 29.1404C128.556 29.0968 128.621 29.0532 128.686 29.0314C128.752 29.0096 128.839 28.9878 128.904 28.9878C128.97 28.9878 129.035 29.0096 129.079 29.0314C129.122 29.0532 129.166 29.0968 129.188 29.1622L130.822 34.589L132.435 29.1622C132.457 29.0968 132.479 29.0532 132.544 29.0314C132.609 29.0096 132.653 28.9878 132.718 28.9878C132.784 28.9878 132.871 29.0096 132.936 29.0314C133.002 29.0532 133.067 29.0968 133.111 29.1404C133.154 29.1839 133.176 29.2493 133.176 29.3147V29.3365C133.176 29.3583 133.176 29.3583 133.176 29.3801L131.28 35.4608C131.258 35.548 131.193 35.6134 131.105 35.657C131.04 35.7006 130.931 35.7224 130.822 35.7224Z" fill="white"/>
<path d="M134.396 35.657C134.308 35.657 134.221 35.6352 134.134 35.5916C134.047 35.548 134.003 35.4826 134.003 35.3954V29.2493C134.003 29.1622 134.047 29.0968 134.134 29.0532C134.221 29.0096 134.308 28.9878 134.396 28.9878C134.505 28.9878 134.592 29.0096 134.657 29.0532C134.744 29.0968 134.788 29.1622 134.788 29.2493V35.3954C134.788 35.4826 134.744 35.548 134.657 35.5916C134.57 35.6352 134.483 35.657 134.396 35.657Z" fill="white"/>
<path d="M137.709 35.6573C137.6 35.6573 137.513 35.6355 137.447 35.5919C137.382 35.5483 137.317 35.4829 137.317 35.3958V29.6855H135.813C135.726 29.6855 135.66 29.6419 135.617 29.5766C135.573 29.5112 135.551 29.424 135.551 29.315C135.551 29.2278 135.573 29.1407 135.617 29.0753C135.66 29.0099 135.726 28.9663 135.813 28.9663H139.583C139.67 28.9663 139.736 29.0099 139.779 29.0753C139.823 29.1407 139.845 29.2278 139.845 29.315C139.845 29.4022 139.823 29.4894 139.779 29.5766C139.736 29.6637 139.67 29.6855 139.583 29.6855H138.079V35.3958C138.079 35.4829 138.036 35.5483 137.949 35.5919C137.862 35.6355 137.818 35.6573 137.709 35.6573Z" fill="white"/>
<path d="M142.482 35.657C142.395 35.657 142.308 35.6352 142.22 35.5916C142.133 35.548 142.09 35.4826 142.09 35.3954V33.0852C142.09 33.0416 142.09 33.0198 142.068 32.998L140.15 29.4673C140.128 29.4455 140.128 29.4019 140.128 29.3801C140.128 29.3583 140.128 29.3365 140.128 29.3147C140.128 29.2493 140.15 29.2057 140.193 29.1404C140.237 29.0968 140.302 29.0532 140.368 29.0314C140.433 29.0096 140.499 28.9878 140.586 28.9878C140.673 28.9878 140.717 29.0096 140.738 29.0314C140.782 29.075 140.825 29.1186 140.847 29.1839L142.46 32.3224L144.095 29.1839C144.138 29.1186 144.182 29.075 144.225 29.0314C144.269 28.9878 144.313 28.9878 144.378 28.9878C144.443 28.9878 144.509 29.0096 144.596 29.0314C144.661 29.0532 144.727 29.0968 144.77 29.1404C144.814 29.1839 144.836 29.2493 144.836 29.3147C144.836 29.3365 144.836 29.3583 144.836 29.3801C144.836 29.4019 144.814 29.4455 144.814 29.4673L142.896 32.998C142.874 33.0198 142.874 33.0634 142.874 33.0852V35.3954C142.874 35.4826 142.831 35.548 142.743 35.5916C142.656 35.6352 142.591 35.657 142.482 35.657Z" fill="white"/>
</svg>
