<svg width="391" height="294" viewBox="0 0 391 294" fill="none" xmlns="http://www.w3.org/2000/svg">
<rect x="0.5" y="0.5" width="389.59" height="293" rx="19.5" fill="#0E0E0E"/>
<rect x="0.5" y="0.5" width="389.59" height="293" rx="19.5" stroke="#2D2D2D"/>
<path d="M148.518 87.3401C148.518 91.1556 148.518 95.0071 148.518 98.8226C148.518 101.27 148.518 103.754 148.518 106.202C148.518 107.857 148.518 109.477 148.518 111.133C148.518 112.501 148.518 113.905 148.518 115.272C148.518 118.44 148.518 118.44 148.518 118.44C148.518 119.952 148.482 120.888 148.518 122.472C148.554 123.299 148.59 123.983 148.77 124.883C148.914 125.567 149.022 126.143 149.417 126.791C149.957 127.691 150.641 128.159 150.785 128.267C151.325 128.627 151.829 128.771 152.189 128.843C152.657 128.915 153.377 129.023 154.241 129.167C155.753 129.383 156.797 129.527 157.156 129.563C159.028 129.779 160.648 130.247 162.736 130.786C164.248 131.182 166.839 131.902 170.079 133.198C174.11 134.818 176.954 136.438 177.746 136.906C179.834 138.093 182.317 139.713 185.017 141.909C185.485 142.161 186.277 142.521 187.285 142.665C188.58 142.809 189.624 142.521 190.164 142.305C190.344 142.197 191.892 141.153 192.036 139.173C192.144 137.626 191.352 136.546 191.172 136.33C190.128 135.358 188.652 134.026 186.745 132.622C185.521 131.722 181.669 128.951 174.938 126.143C170.871 124.451 164.859 122.364 157.12 121.14C157.084 109.837 157.048 98.5346 157.012 87.1961C157.012 87.1961 156.437 83.5606 152.909 83.3086C152.945 83.3086 149.094 83.3806 148.518 87.3401Z" fill="#F5B400"/>
<path d="M231.523 124.379C229.723 124.739 227.384 125.243 224.684 125.998C218.601 127.69 214.173 129.634 213.021 130.138C206.722 132.946 201.719 135.177 196.86 140.073C193.44 143.528 191.28 147.128 189.948 149.791C189.804 150.151 189.589 150.655 189.517 151.339C189.517 151.411 189.409 152.203 189.553 152.887C189.876 154.579 191.532 155.587 191.82 155.767C192.108 155.911 192.54 156.091 193.08 156.163C194.088 156.271 194.88 155.947 195.24 155.767C196.068 155.335 196.536 154.795 196.788 154.399C197.184 153.787 197.148 153.535 197.723 152.455C197.939 152.095 198.155 151.699 198.659 150.979C198.803 150.799 199.379 149.899 199.847 149.215C199.955 149.071 201.215 147.308 202.691 145.76C203.087 145.328 204.635 143.744 207.874 141.62C211.186 139.461 213.993 138.237 214.821 137.841C222.416 134.601 233.899 132.262 235.627 131.938C235.915 131.902 237.462 131.614 238.794 130.462C239.262 130.066 239.478 129.742 239.586 129.562C240.198 128.554 240.162 127.474 240.162 126.79C240.09 124.883 240.198 122.975 240.162 121.067C240.162 121.067 240.162 121.067 240.162 117.576C240.162 115.452 240.162 113.328 240.162 111.204C240.162 109.333 240.162 107.425 240.162 105.553C240.162 103.681 240.162 101.774 240.162 99.9019C240.162 98.3181 240.126 96.6983 240.162 95.1145C240.198 93.6747 240.234 92.3069 240.09 90.3631C240.054 89.7152 240.018 89.1753 239.982 88.8153C239.766 88.4194 239.226 87.5555 238.182 86.9796C237.966 86.8716 237.066 86.3676 235.771 86.4396C235.303 86.4396 234.475 86.5476 233.611 87.0875C233.287 87.3035 232.279 87.9154 231.775 89.1753C231.559 89.6792 231.523 90.1471 231.487 90.4711C231.487 101.774 231.523 113.076 231.523 124.379Z" fill="#F5B400"/>
<path d="M226.159 106.742V70.4589H226.123C226.123 70.279 226.087 69.991 225.979 69.703C225.835 69.2351 225.583 68.9111 225.403 68.7312C225.295 68.5872 224.863 68.1192 224.215 67.7593C223.171 67.1834 221.48 66.8594 219.932 67.6513C219.572 67.8313 219.104 68.1192 218.636 68.6232C218.564 68.6952 218.276 69.0551 218.024 69.5591C217.88 69.847 217.808 70.063 217.808 70.135C217.772 70.243 217.772 70.351 217.736 70.423V70.4589V102.459C216.836 102.711 205.606 106.13 199.522 113.869L191.459 114.121C190.308 112.717 188.94 111.278 187.284 109.874C182.065 105.41 176.629 103.467 172.922 102.531V70.279C172.922 70.099 172.886 69.811 172.778 69.5231C172.634 69.0551 172.382 68.7312 172.202 68.5512C172.094 68.4072 171.662 67.9393 171.014 67.5793C169.97 67.0034 168.278 66.6794 166.731 67.4713C166.371 67.6513 165.903 67.9393 165.435 68.4432C165.363 68.5152 165.075 68.8752 164.823 69.3791C164.679 69.667 164.607 69.883 164.607 69.955C164.571 70.063 164.571 70.171 164.535 70.243V70.279V106.634C164.535 106.778 164.571 107.03 164.643 107.282C164.679 107.426 164.787 107.714 165.075 108.038C165.543 108.614 166.155 108.902 166.479 109.082C167.055 109.37 167.918 109.73 169.142 109.946C171.698 110.558 174.974 111.674 178.357 113.797C186.672 119.017 190.344 126.9 191.675 130.319V130.355C191.675 130.355 191.711 130.535 191.819 130.715C191.963 131.003 192.179 131.399 192.179 131.399C192.395 131.723 192.755 132.263 193.403 132.695C194.627 133.523 196.319 133.703 197.687 132.803C198.335 132.371 198.91 131.471 198.982 131.363C199.126 131.111 199.27 130.895 199.27 130.895C199.378 130.679 199.45 130.463 199.486 130.319C200.602 127.188 203.662 119.809 211.113 114.625C214.388 112.358 217.592 111.134 220.04 110.486C220.4 110.414 220.94 110.306 221.588 110.126C222.667 109.838 223.243 109.694 223.855 109.406C223.855 109.406 225.403 108.686 225.871 107.714C225.907 107.678 225.979 107.498 226.015 107.318C226.123 107.03 226.123 106.886 226.123 106.742C226.159 106.778 226.159 106.742 226.159 106.742Z" fill="white"/>
<path d="M199.486 92.0908H191.819V116.964H199.486V92.0908Z" fill="white"/>
<path d="M195.167 72.043C189.408 72.043 184.729 76.9383 184.729 82.9496C184.729 88.9608 189.408 93.8561 195.167 93.8561C200.927 93.8561 205.606 88.9608 205.606 82.9496C205.606 76.9383 200.927 72.043 195.167 72.043ZM200.711 87.9529C199.343 89.3207 197.543 90.0406 195.635 90.0406C193.727 90.0406 191.892 89.3207 190.524 87.9529C189.156 86.5851 188.436 84.7853 188.436 82.8416C188.436 80.9338 189.192 79.134 190.524 77.7302C191.892 76.3624 193.727 75.6425 195.635 75.6425C197.543 75.6425 199.379 76.3624 200.711 77.7302C200.999 77.9822 201.214 78.2702 201.43 78.5581L199.343 80.1059C198.515 78.9541 197.147 78.1982 195.599 78.1982C193.044 78.1982 190.956 80.2859 190.956 82.8416C190.956 85.3972 193.044 87.485 195.599 87.485C197.147 87.485 198.479 86.6931 199.343 85.5412L201.43 87.089C201.214 87.377 200.999 87.7009 200.711 87.9529Z" fill="white"/>
<path d="M104.385 201.968C102.604 201.968 100.927 201.653 99.4082 200.972C97.889 200.291 96.6841 199.243 95.7935 197.777C94.9029 196.31 94.4314 194.371 94.4314 191.909V178.812C94.4314 176.402 94.9029 174.412 95.7935 172.945C96.6841 171.478 97.889 170.43 99.4082 169.749C100.927 169.068 102.604 168.754 104.385 168.754C106.428 168.754 108.262 169.121 109.729 169.802C111.248 170.483 112.4 171.478 113.291 172.683C114.129 173.888 114.548 175.302 114.548 176.874C114.548 177.869 114.339 178.55 113.972 178.865C113.605 179.179 112.977 179.336 112.191 179.336C111.457 179.336 110.881 179.231 110.462 178.969C110.043 178.708 109.833 178.341 109.781 177.765C109.729 177.398 109.676 176.926 109.571 176.35C109.467 175.826 109.205 175.302 108.89 174.726C108.524 174.202 108.052 173.783 107.319 173.416C106.638 173.05 105.695 172.893 104.49 172.893C102.761 172.893 101.399 173.364 100.508 174.307C99.5654 175.25 99.0939 176.717 99.0939 178.708V191.804C99.0939 193.795 99.5654 195.262 100.508 196.205C101.451 197.148 102.813 197.619 104.595 197.619C105.747 197.619 106.638 197.462 107.319 197.095C108 196.729 108.471 196.31 108.838 195.786C109.152 195.262 109.414 194.686 109.519 194.109C109.624 193.533 109.729 193.009 109.781 192.485C109.833 191.909 110.043 191.49 110.462 191.28C110.881 191.019 111.457 190.914 112.086 190.914C112.924 190.914 113.553 191.071 113.92 191.385C114.286 191.7 114.496 192.381 114.496 193.376C114.496 195 114.077 196.467 113.238 197.724C112.4 198.981 111.195 199.977 109.676 200.71C108.262 201.601 106.428 201.968 104.385 201.968Z" fill="#F5B400"/>
<path d="M121.411 201.706C120.834 201.706 120.258 201.601 119.787 201.339C119.315 201.077 119.053 200.71 119.053 200.134V170.273C119.053 169.749 119.315 169.33 119.787 169.121C120.258 168.859 120.834 168.754 121.411 168.754C121.987 168.754 122.563 168.859 123.035 169.121C123.506 169.383 123.768 169.749 123.768 170.273V182.689H134.979V170.273C134.979 169.749 135.241 169.33 135.712 169.121C136.184 168.859 136.76 168.754 137.336 168.754C137.913 168.754 138.489 168.859 138.96 169.121C139.432 169.383 139.694 169.749 139.694 170.273V200.082C139.694 200.605 139.432 201.025 138.96 201.286C138.489 201.548 137.913 201.653 137.336 201.653C136.76 201.653 136.184 201.548 135.712 201.286C135.241 201.025 134.979 200.658 134.979 200.082V186.461H123.82V200.082C123.82 200.605 123.558 201.025 123.087 201.286C122.563 201.548 122.039 201.706 121.411 201.706Z" fill="#F5B400"/>
<path d="M147.759 201.706C147.235 201.706 146.764 201.548 146.345 201.286C145.873 201.025 145.664 200.605 145.664 200.134V170.326C145.664 169.802 145.873 169.435 146.345 169.173C146.816 168.911 147.288 168.754 147.759 168.754H163.737C164.313 168.754 164.733 168.963 164.942 169.435C165.204 169.906 165.309 170.378 165.309 170.849C165.309 171.426 165.152 171.95 164.89 172.369C164.628 172.788 164.209 172.997 163.737 172.997H150.431V183.318H157.346C157.87 183.318 158.237 183.527 158.498 183.894C158.76 184.261 158.918 184.732 158.918 185.256C158.918 185.675 158.813 186.094 158.551 186.513C158.289 186.932 157.922 187.142 157.346 187.142H150.431V197.515H163.737C164.261 197.515 164.628 197.724 164.89 198.143C165.152 198.562 165.309 199.086 165.309 199.662C165.309 200.134 165.204 200.605 164.942 201.077C164.68 201.548 164.313 201.758 163.737 201.758H147.759V201.706Z" fill="#F5B400"/>
<path d="M171.439 201.706C170.863 201.706 170.286 201.548 169.815 201.286C169.343 201.025 169.081 200.605 169.081 200.134V170.326C169.081 169.749 169.343 169.33 169.815 169.121C170.286 168.859 170.863 168.754 171.439 168.754C172.015 168.754 172.487 168.859 172.906 169.016C173.325 169.173 173.692 169.435 174.006 169.854C174.32 170.221 174.687 170.797 175.054 171.478L185.007 190.966V170.273C185.007 169.749 185.269 169.33 185.741 169.121C186.212 168.859 186.788 168.754 187.365 168.754C187.941 168.754 188.517 168.859 188.989 169.121C189.46 169.383 189.722 169.749 189.722 170.273V200.082C189.722 200.605 189.46 200.972 188.989 201.234C188.517 201.496 187.941 201.653 187.365 201.653C186.788 201.653 186.212 201.496 185.741 201.182C185.269 200.867 184.85 200.448 184.536 199.872L173.796 179.389V200.082C173.796 200.605 173.534 200.972 173.063 201.234C172.591 201.548 172.068 201.706 171.439 201.706Z" fill="#F5B400"/>
<path d="M205.385 201.968C203.499 201.968 201.823 201.653 200.303 200.972C198.784 200.291 197.579 199.243 196.689 197.777C195.798 196.31 195.379 194.371 195.379 191.909V178.812C195.379 176.402 195.798 174.412 196.689 172.945C197.579 171.478 198.784 170.43 200.303 169.749C201.823 169.068 203.551 168.754 205.437 168.754C207.323 168.754 209.052 169.068 210.571 169.749C212.091 170.43 213.296 171.478 214.186 172.945C215.077 174.412 215.548 176.35 215.548 178.812V191.909C215.548 194.319 215.077 196.31 214.186 197.777C213.296 199.243 212.091 200.291 210.571 200.972C209 201.601 207.323 201.968 205.385 201.968ZM205.385 197.724C207.061 197.724 208.371 197.253 209.314 196.31C210.257 195.367 210.729 193.9 210.729 191.909V178.812C210.729 176.822 210.257 175.355 209.314 174.412C208.371 173.469 207.061 172.997 205.385 172.997C203.709 172.997 202.399 173.469 201.456 174.412C200.513 175.355 200.042 176.822 200.042 178.812V191.909C200.042 193.9 200.513 195.367 201.456 196.31C202.399 197.253 203.709 197.724 205.385 197.724Z" fill="#F5B400"/>
<path d="M230.69 201.968C228.909 201.968 227.232 201.653 225.713 200.972C224.194 200.291 222.989 199.243 222.098 197.777C221.208 196.31 220.736 194.371 220.736 191.909V178.812C220.736 176.402 221.208 174.412 222.098 172.945C222.989 171.478 224.194 170.43 225.713 169.749C227.232 169.068 228.909 168.754 230.69 168.754C232.733 168.754 234.567 169.121 236.033 169.802C237.553 170.483 238.705 171.478 239.596 172.683C240.434 173.888 240.853 175.302 240.853 176.874C240.853 177.869 240.644 178.55 240.277 178.865C239.91 179.179 239.281 179.336 238.496 179.336C237.762 179.336 237.186 179.231 236.767 178.969C236.348 178.708 236.138 178.341 236.086 177.765C236.033 177.398 235.981 176.926 235.876 176.35C235.771 175.826 235.51 175.302 235.195 174.726C234.829 174.202 234.357 173.783 233.624 173.416C232.943 173.05 232 172.893 230.795 172.893C229.066 172.893 227.704 173.364 226.813 174.307C225.87 175.25 225.399 176.717 225.399 178.708V191.804C225.399 193.795 225.87 195.262 226.813 196.205C227.756 197.148 229.118 197.619 230.899 197.619C232.052 197.619 232.943 197.462 233.624 197.095C234.305 196.729 234.776 196.31 235.143 195.786C235.457 195.262 235.719 194.686 235.824 194.109C235.929 193.533 236.033 193.009 236.086 192.485C236.138 191.909 236.348 191.49 236.767 191.28C237.186 191.019 237.762 190.914 238.391 190.914C239.229 190.914 239.858 191.071 240.224 191.385C240.591 191.7 240.801 192.381 240.801 193.376C240.801 195 240.382 196.467 239.543 197.724C238.705 198.981 237.5 199.977 235.981 200.71C234.567 201.601 232.785 201.968 230.69 201.968Z" fill="white"/>
<path d="M255.049 201.968C253.163 201.968 251.486 201.653 249.967 200.972C248.448 200.291 247.243 199.243 246.352 197.777C245.462 196.31 245.043 194.371 245.043 191.909V178.812C245.043 176.402 245.462 174.412 246.352 172.945C247.243 171.478 248.448 170.43 249.967 169.749C251.486 169.068 253.215 168.754 255.101 168.754C256.987 168.754 258.716 169.068 260.235 169.749C261.754 170.43 262.959 171.478 263.85 172.945C264.74 174.412 265.212 176.35 265.212 178.812V191.909C265.212 194.319 264.74 196.31 263.85 197.777C262.959 199.243 261.754 200.291 260.235 200.972C258.716 201.601 256.987 201.968 255.049 201.968ZM255.049 197.724C256.725 197.724 258.035 197.253 258.978 196.31C259.921 195.367 260.392 193.9 260.392 191.909V178.812C260.392 176.822 259.921 175.355 258.978 174.412C258.035 173.469 256.725 172.997 255.049 172.997C253.372 172.997 252.063 173.469 251.12 174.412C250.177 175.355 249.705 176.822 249.705 178.812V191.909C249.705 193.9 250.177 195.367 251.12 196.31C252.063 197.253 253.372 197.724 255.049 197.724Z" fill="white"/>
<path d="M273.124 201.704C272.547 201.704 271.971 201.547 271.5 201.285C271.028 201.023 270.766 200.604 270.766 200.133V171.11C270.766 170.219 271.028 169.591 271.5 169.224C271.971 168.857 272.547 168.7 273.124 168.7C273.7 168.7 274.171 168.805 274.59 168.962C275.009 169.119 275.376 169.381 275.743 169.8C276.11 170.219 276.476 170.743 276.843 171.424L283.13 183.369L289.521 171.424C289.888 170.743 290.254 170.167 290.621 169.8C290.988 169.434 291.354 169.119 291.773 168.962C292.193 168.805 292.664 168.7 293.24 168.7C293.869 168.7 294.445 168.857 294.917 169.224C295.388 169.591 295.65 170.167 295.65 171.11V200.08C295.65 200.604 295.388 200.971 294.917 201.233C294.445 201.495 293.869 201.652 293.293 201.652C292.716 201.652 292.14 201.495 291.669 201.233C291.197 200.971 290.935 200.552 290.935 200.08V178.497L284.911 189.655C284.649 190.022 284.387 190.336 284.125 190.493C283.811 190.651 283.496 190.755 283.182 190.755C282.92 190.755 282.606 190.703 282.344 190.546C282.029 190.389 281.767 190.127 281.558 189.708L275.533 178.287V200.185C275.533 200.709 275.271 201.076 274.8 201.338C274.276 201.547 273.752 201.704 273.124 201.704Z" fill="white"/>
<path d="M94.8382 227.436C94.5763 227.436 94.3667 227.384 94.2095 227.227C94.0524 227.122 94 226.965 94 226.755V211.982C94 211.773 94.1048 211.615 94.2619 211.511C94.4191 211.406 94.6287 211.354 94.8382 211.354H98.6625C99.5007 211.354 100.234 211.458 100.915 211.668C101.596 211.877 102.172 212.244 102.539 212.768C102.958 213.292 103.168 214.078 103.168 215.125C103.168 216.068 103.011 216.802 102.644 217.43C102.277 218.059 101.858 218.478 101.282 218.74C101.753 218.897 102.12 219.159 102.487 219.474C102.853 219.788 103.115 220.155 103.273 220.626C103.482 221.098 103.587 221.726 103.587 222.46V222.879C103.587 224.031 103.377 224.922 103.011 225.551C102.644 226.179 102.12 226.703 101.439 227.017C100.758 227.332 100.025 227.436 99.1864 227.436H94.8382ZM95.886 217.954H98.6625C99.6055 217.954 100.234 217.745 100.706 217.326C101.125 216.907 101.334 216.278 101.334 215.335C101.334 214.759 101.229 214.235 100.968 213.921C100.758 213.554 100.444 213.344 100.025 213.187C99.6055 213.03 99.134 212.978 98.6101 212.978H95.886V217.954ZM95.886 225.812H98.872C99.7626 225.812 100.496 225.551 100.968 225.079C101.439 224.608 101.701 223.822 101.701 222.774V222.407C101.701 221.36 101.439 220.626 100.968 220.155C100.496 219.736 99.7626 219.526 98.872 219.526H95.886V225.812Z" fill="white"/>
<path d="M107.681 226.794C107.472 226.794 107.262 226.742 107.105 226.637C106.948 226.532 106.843 226.375 106.843 226.166V211.392C106.843 211.183 106.948 211.026 107.105 210.921C107.262 210.816 107.472 210.764 107.681 210.764H115.592C115.854 210.764 116.011 210.868 116.116 211.026C116.22 211.183 116.273 211.392 116.273 211.549C116.273 211.759 116.22 211.969 116.116 212.126C116.011 212.283 115.854 212.388 115.644 212.388H108.729V217.993H112.187C112.396 217.993 112.553 218.098 112.658 218.255C112.763 218.412 112.815 218.622 112.815 218.779C112.815 218.936 112.763 219.146 112.658 219.303C112.553 219.46 112.396 219.565 112.134 219.565H108.677V225.17H115.592C115.801 225.17 115.959 225.275 116.063 225.432C116.168 225.589 116.22 225.799 116.22 226.061C116.22 226.27 116.168 226.428 116.063 226.585C115.959 226.742 115.801 226.847 115.539 226.847H107.681V226.794Z" fill="white"/>
<path d="M119.104 226.794C118.895 226.794 118.685 226.742 118.528 226.637C118.371 226.532 118.266 226.375 118.266 226.166V211.392C118.266 211.183 118.371 211.026 118.581 210.921C118.79 210.816 119 210.764 119.209 210.764C119.471 210.764 119.681 210.816 119.838 210.921C120.047 211.026 120.152 211.183 120.152 211.392V225.17H126.229C126.439 225.17 126.596 225.275 126.701 225.432C126.805 225.589 126.858 225.799 126.858 226.008C126.858 226.218 126.805 226.428 126.701 226.585C126.596 226.742 126.439 226.847 126.229 226.847H119.104V226.794Z" fill="white"/>
<path d="M129.581 226.794C129.372 226.794 129.162 226.742 128.953 226.637C128.743 226.532 128.638 226.375 128.638 226.166V211.392C128.638 211.183 128.743 211.026 128.953 210.921C129.162 210.816 129.372 210.764 129.581 210.764C129.843 210.764 130.053 210.816 130.21 210.921C130.42 211.026 130.524 211.183 130.524 211.392V226.166C130.524 226.375 130.42 226.532 130.21 226.637C130.053 226.742 129.843 226.794 129.581 226.794Z" fill="white"/>
<path d="M134.561 226.794C134.352 226.794 134.142 226.742 133.985 226.637C133.828 226.532 133.723 226.375 133.723 226.166V211.392C133.723 211.183 133.828 211.026 133.985 210.921C134.142 210.816 134.352 210.764 134.561 210.764H142.472C142.734 210.764 142.891 210.868 142.996 211.026C143.1 211.183 143.153 211.392 143.153 211.549C143.153 211.759 143.1 211.969 142.996 212.126C142.891 212.283 142.734 212.388 142.524 212.388H135.609V217.993H139.067C139.276 217.993 139.433 218.098 139.538 218.255C139.643 218.412 139.695 218.622 139.695 218.779C139.695 218.936 139.643 219.146 139.538 219.303C139.433 219.46 139.276 219.565 139.014 219.565H135.557V225.17H142.472C142.681 225.17 142.838 225.275 142.943 225.432C143.048 225.589 143.1 225.799 143.1 226.061C143.1 226.27 143.048 226.428 142.943 226.585C142.838 226.742 142.681 226.847 142.419 226.847H134.561V226.794Z" fill="white"/>
<path d="M149.697 226.951C149.435 226.951 149.226 226.899 148.964 226.794C148.754 226.689 148.597 226.532 148.545 226.323L143.987 211.707C143.987 211.654 143.987 211.602 143.987 211.549C143.987 211.392 144.04 211.288 144.144 211.13C144.249 211.026 144.406 210.921 144.563 210.868C144.721 210.816 144.93 210.764 145.087 210.764C145.244 210.764 145.402 210.816 145.506 210.868C145.611 210.921 145.716 211.026 145.768 211.183L149.697 224.227L153.574 211.183C153.626 211.026 153.679 210.921 153.836 210.868C153.993 210.816 154.098 210.764 154.255 210.764C154.412 210.764 154.622 210.816 154.779 210.868C154.936 210.921 155.093 211.026 155.198 211.13C155.303 211.235 155.355 211.392 155.355 211.549V211.602C155.355 211.654 155.355 211.654 155.355 211.707L150.798 226.323C150.745 226.532 150.588 226.689 150.378 226.794C150.169 226.899 149.959 226.951 149.697 226.951Z" fill="white"/>
<path d="M158.185 226.794C157.976 226.794 157.766 226.742 157.609 226.637C157.452 226.532 157.347 226.375 157.347 226.166V211.392C157.347 211.183 157.452 211.026 157.609 210.921C157.766 210.816 157.976 210.764 158.185 210.764H166.096C166.358 210.764 166.515 210.868 166.62 211.026C166.725 211.183 166.777 211.392 166.777 211.549C166.777 211.759 166.725 211.969 166.62 212.126C166.515 212.283 166.358 212.388 166.148 212.388H159.233V217.993H162.691C162.9 217.993 163.058 218.098 163.162 218.255C163.267 218.412 163.319 218.622 163.319 218.779C163.319 218.936 163.267 219.146 163.162 219.303C163.058 219.46 162.9 219.565 162.638 219.565H159.181V225.17H166.096C166.306 225.17 166.463 225.275 166.567 225.432C166.672 225.589 166.725 225.799 166.725 226.061C166.725 226.27 166.672 226.428 166.567 226.585C166.463 226.742 166.306 226.847 166.044 226.847H158.185V226.794Z" fill="white"/>
<path d="M174.163 226.794C173.954 226.794 173.744 226.742 173.534 226.637C173.325 226.532 173.22 226.375 173.22 226.166V211.392C173.22 211.183 173.325 211.026 173.534 210.921C173.744 210.816 173.954 210.764 174.163 210.764C174.425 210.764 174.635 210.816 174.792 210.921C175.001 211.026 175.106 211.183 175.106 211.392V226.166C175.106 226.375 175.001 226.532 174.792 226.637C174.635 226.742 174.373 226.794 174.163 226.794Z" fill="white"/>
<path d="M179.194 226.794C178.984 226.794 178.774 226.742 178.565 226.637C178.355 226.532 178.251 226.375 178.251 226.166V211.392C178.251 211.183 178.355 210.973 178.565 210.921C178.774 210.816 178.984 210.764 179.194 210.764C179.456 210.764 179.613 210.816 179.77 210.921C179.927 211.026 180.084 211.13 180.189 211.288C180.346 211.445 180.451 211.654 180.608 211.916L186.109 222.656V211.392C186.109 211.183 186.214 211.026 186.423 210.921C186.633 210.816 186.842 210.764 187.052 210.764C187.314 210.764 187.523 210.816 187.68 210.921C187.89 211.026 187.995 211.183 187.995 211.392V226.166C187.995 226.375 187.89 226.532 187.68 226.637C187.471 226.742 187.261 226.794 187.052 226.794C186.842 226.794 186.58 226.689 186.371 226.532C186.161 226.375 186.004 226.166 185.847 225.956L180.032 214.902V226.166C180.032 226.375 179.927 226.532 179.717 226.637C179.665 226.742 179.456 226.794 179.194 226.794Z" fill="white"/>
<path d="M200.305 226.953C199.467 226.953 198.629 226.796 197.948 226.481C197.214 226.167 196.638 225.643 196.219 224.962C195.8 224.281 195.59 223.338 195.59 222.185V215.585C195.59 214.432 195.8 213.489 196.271 212.808C196.691 212.127 197.267 211.603 198 211.289C198.734 210.975 199.519 210.817 200.358 210.817C201.353 210.817 202.244 210.975 202.925 211.341C203.658 211.656 204.182 212.127 204.549 212.703C204.915 213.28 205.125 213.908 205.125 214.642C205.125 215.061 205.073 215.323 204.915 215.48C204.758 215.637 204.549 215.689 204.234 215.689C203.92 215.689 203.71 215.637 203.553 215.532C203.396 215.427 203.291 215.27 203.291 215.061C203.291 214.851 203.239 214.589 203.187 214.327C203.134 214.065 202.977 213.751 202.768 213.489C202.558 213.227 202.296 213.018 201.877 212.808C201.51 212.651 200.986 212.546 200.358 212.546C199.415 212.546 198.681 212.808 198.157 213.28C197.634 213.803 197.372 214.589 197.372 215.637V222.238C197.372 223.286 197.634 224.071 198.157 224.595C198.681 225.119 199.415 225.329 200.41 225.329C201.039 225.329 201.51 225.224 201.877 225.067C202.244 224.91 202.506 224.648 202.663 224.386C202.82 224.124 202.977 223.862 203.029 223.548C203.082 223.233 203.134 222.971 203.187 222.709C203.187 222.5 203.291 222.343 203.449 222.238C203.606 222.133 203.815 222.081 204.13 222.081C204.444 222.081 204.653 222.133 204.811 222.29C204.968 222.447 205.02 222.709 205.02 223.128C205.02 223.862 204.811 224.49 204.444 225.119C204.025 225.695 203.501 226.167 202.768 226.534C202.139 226.796 201.301 226.953 200.305 226.953Z" fill="white"/>
<path d="M216.123 226.847C215.966 226.847 215.809 226.795 215.652 226.638C215.495 226.481 215.39 226.323 215.285 226.114L211.932 219.67H209.365V226.114C209.365 226.323 209.261 226.481 209.051 226.585C208.842 226.69 208.632 226.742 208.422 226.742C208.213 226.742 208.003 226.69 207.794 226.585C207.584 226.481 207.479 226.323 207.479 226.114V211.341C207.479 211.183 207.532 211.026 207.689 210.921C207.794 210.817 207.951 210.764 208.161 210.712H212.247C213.137 210.712 213.976 210.869 214.709 211.131C215.442 211.393 216.071 211.864 216.49 212.493C216.909 213.122 217.171 214.012 217.171 215.112C217.171 216.003 217.014 216.736 216.752 217.313C216.438 217.889 216.071 218.36 215.547 218.675C215.023 218.989 214.499 219.251 213.871 219.356L217.171 225.538C217.224 225.59 217.224 225.642 217.224 225.695C217.224 225.747 217.224 225.799 217.224 225.852C217.224 226.009 217.171 226.166 217.066 226.323C216.962 226.481 216.804 226.585 216.647 226.69C216.49 226.795 216.333 226.847 216.123 226.847ZM209.365 218.151H212.247C213.19 218.151 213.923 217.941 214.447 217.47C215.023 217.051 215.285 216.265 215.285 215.27C215.285 214.274 215.023 213.488 214.447 213.069C213.871 212.65 213.137 212.441 212.247 212.441H209.365V218.151Z" fill="white"/>
<path d="M220.368 226.82C220.368 226.806 220.356 226.794 220.342 226.794C220.141 226.79 219.943 226.737 219.792 226.637C219.635 226.532 219.53 226.375 219.53 226.166V211.392C219.53 211.183 219.635 211.026 219.792 210.921C219.949 210.816 220.159 210.764 220.368 210.764H228.279C228.541 210.764 228.698 210.868 228.803 211.026C228.907 211.183 228.96 211.392 228.96 211.549C228.96 211.759 228.907 211.969 228.803 212.126C228.698 212.283 228.541 212.388 228.331 212.388H224.219C222.671 212.388 221.416 213.643 221.416 215.19C221.416 216.738 222.671 217.993 224.219 217.993H224.874C225.083 217.993 225.24 218.098 225.345 218.255C225.45 218.412 225.502 218.622 225.502 218.779C225.502 218.936 225.45 219.146 225.345 219.303C225.24 219.46 225.083 219.565 224.821 219.565H224.166C222.618 219.565 221.364 220.82 221.364 222.367C221.364 223.915 222.618 225.17 224.166 225.17H228.279C228.488 225.17 228.645 225.275 228.75 225.432C228.855 225.589 228.907 225.799 228.907 226.061C228.907 226.27 228.855 226.428 228.75 226.585C228.645 226.742 228.488 226.847 228.226 226.847H220.394C220.38 226.847 220.368 226.835 220.368 226.82Z" fill="white"/>
<path d="M230.847 226.795C230.69 226.795 230.532 226.743 230.323 226.69C230.113 226.638 230.009 226.533 229.904 226.428C229.799 226.324 229.747 226.166 229.747 226.009C229.747 225.957 229.747 225.905 229.747 225.852L234.304 211.236C234.357 211.027 234.514 210.869 234.723 210.765C234.933 210.66 235.195 210.607 235.457 210.607C235.719 210.607 235.981 210.66 236.19 210.765C236.4 210.869 236.557 211.027 236.609 211.236L241.167 225.852C241.219 225.905 241.219 225.957 241.219 226.009C241.219 226.166 241.167 226.271 241.01 226.428C240.905 226.533 240.748 226.638 240.538 226.69C240.381 226.743 240.172 226.795 240.015 226.795C239.857 226.795 239.7 226.743 239.595 226.69C239.491 226.638 239.386 226.533 239.333 226.376L238.338 223.076H232.471L231.528 226.376C231.475 226.533 231.423 226.638 231.266 226.69C231.161 226.795 231.056 226.795 230.847 226.795ZM232.995 221.609H237.971L235.457 213.332L232.995 221.609Z" fill="white"/>
<path d="M245.724 226.795C245.462 226.795 245.252 226.742 245.095 226.638C244.938 226.533 244.781 226.376 244.781 226.166V212.441H241.166C240.956 212.441 240.799 212.336 240.695 212.179C240.59 212.022 240.537 211.812 240.537 211.55C240.537 211.341 240.59 211.131 240.695 210.974C240.799 210.817 240.956 210.712 241.166 210.712H250.229C250.439 210.712 250.596 210.817 250.701 210.974C250.805 211.131 250.858 211.341 250.858 211.55C250.858 211.76 250.805 211.969 250.701 212.179C250.596 212.388 250.439 212.441 250.229 212.441H246.614V226.166C246.614 226.376 246.51 226.533 246.3 226.638C246.09 226.742 245.933 226.795 245.724 226.795Z" fill="white"/>
<path d="M253.687 226.794C253.478 226.794 253.268 226.742 253.059 226.637C252.849 226.532 252.744 226.375 252.744 226.166V211.392C252.744 211.183 252.849 211.026 253.059 210.921C253.268 210.816 253.478 210.764 253.687 210.764C253.949 210.764 254.159 210.816 254.316 210.921C254.525 211.026 254.63 211.183 254.63 211.392V226.166C254.63 226.375 254.525 226.532 254.316 226.637C254.159 226.742 253.949 226.794 253.687 226.794Z" fill="white"/>
<path d="M262.333 226.951C262.071 226.951 261.862 226.899 261.6 226.794C261.39 226.689 261.233 226.532 261.181 226.323L256.623 211.707C256.623 211.654 256.623 211.602 256.623 211.549C256.623 211.392 256.676 211.288 256.78 211.13C256.885 211.026 257.042 210.921 257.199 210.868C257.357 210.816 257.566 210.764 257.723 210.764C257.88 210.764 258.038 210.816 258.142 210.868C258.247 210.921 258.352 211.026 258.404 211.183L262.333 224.227L266.21 211.183C266.262 211.026 266.315 210.921 266.472 210.868C266.629 210.816 266.734 210.764 266.891 210.764C267.048 210.764 267.258 210.816 267.415 210.868C267.572 210.921 267.729 211.026 267.834 211.13C267.939 211.235 267.991 211.392 267.991 211.549V211.602C267.991 211.654 267.991 211.654 267.991 211.707L263.434 226.323C263.381 226.532 263.224 226.689 263.014 226.794C262.857 226.899 262.595 226.951 262.333 226.951Z" fill="white"/>
<path d="M270.923 226.794C270.713 226.794 270.504 226.742 270.294 226.637C270.085 226.532 269.98 226.375 269.98 226.166V211.392C269.98 211.183 270.085 211.026 270.294 210.921C270.504 210.816 270.713 210.764 270.923 210.764C271.185 210.764 271.394 210.816 271.552 210.921C271.761 211.026 271.866 211.183 271.866 211.392V226.166C271.866 226.375 271.761 226.532 271.552 226.637C271.342 226.742 271.132 226.794 270.923 226.794Z" fill="white"/>
<path d="M278.886 226.795C278.625 226.795 278.415 226.742 278.258 226.638C278.101 226.533 277.943 226.376 277.943 226.166V212.441H274.329C274.119 212.441 273.962 212.336 273.857 212.179C273.752 212.022 273.7 211.812 273.7 211.55C273.7 211.341 273.752 211.131 273.857 210.974C273.962 210.817 274.119 210.712 274.329 210.712H283.392C283.601 210.712 283.758 210.817 283.863 210.974C283.968 211.131 284.02 211.341 284.02 211.55C284.02 211.76 283.968 211.969 283.863 212.179C283.758 212.388 283.601 212.441 283.392 212.441H279.777V226.166C279.777 226.376 279.672 226.533 279.463 226.638C279.253 226.742 279.148 226.795 278.886 226.795Z" fill="white"/>
<path d="M290.359 226.794C290.15 226.794 289.94 226.742 289.731 226.637C289.521 226.532 289.416 226.375 289.416 226.166V220.613C289.416 220.508 289.416 220.455 289.364 220.403L284.754 211.916C284.701 211.864 284.701 211.759 284.701 211.707C284.701 211.654 284.701 211.602 284.701 211.549C284.701 211.392 284.754 211.288 284.858 211.13C284.963 211.026 285.12 210.921 285.278 210.868C285.435 210.816 285.592 210.764 285.801 210.764C286.011 210.764 286.116 210.816 286.168 210.868C286.273 210.973 286.378 211.078 286.43 211.235L290.307 218.779L294.236 211.235C294.341 211.078 294.445 210.973 294.55 210.868C294.655 210.764 294.76 210.764 294.917 210.764C295.074 210.764 295.231 210.816 295.441 210.868C295.598 210.921 295.755 211.026 295.86 211.13C295.965 211.235 296.017 211.392 296.017 211.549C296.017 211.602 296.017 211.654 296.017 211.707C296.017 211.759 295.965 211.864 295.965 211.916L291.355 220.403C291.302 220.455 291.302 220.56 291.302 220.613V226.166C291.302 226.375 291.197 226.532 290.988 226.637C290.778 226.742 290.621 226.794 290.359 226.794Z" fill="white"/>
</svg>
