<svg width="70" height="70" viewBox="0 0 70 70" fill="none" xmlns="http://www.w3.org/2000/svg">
<path d="M4.79053 0.546875L10.2894 62.2798L34.9633 69.1595L59.7061 62.2546L65.2093 0.546875H4.79053ZM53.7856 14.6902L51.9552 35.2554L51.9607 35.3664L51.953 35.6218V35.6196L50.6526 49.9991L50.5093 51.2766L34.9999 55.5663V55.5669L34.9879 55.5773L19.5053 51.2635L18.4569 39.375H26.0492L26.5879 45.4202L35.0021 47.7006L34.9999 47.705V47.7039L43.4453 45.3912L44.3378 35.5469H26.683L26.5315 33.8827L26.1865 29.9841L26.0054 27.8906H45.0088L45.7001 20.2344H16.7562L16.6047 18.5713L16.2601 14.6716L16.0786 12.5781H53.9666L53.7856 14.6902Z" fill="#1572B6"/>
</svg>
