<svg width="70" height="70" viewBox="0 0 70 70" fill="none" xmlns="http://www.w3.org/2000/svg">
<path d="M49.8126 13.6327C46.3389 11.4693 43.062 10.6173 39.7851 8.45438C37.7524 7.07789 34.9349 3.80047 32.574 0.982422C32.1158 5.50508 30.7393 7.34039 29.167 8.6507C25.824 11.273 23.7261 12.0588 20.8425 13.6322C18.4171 14.8774 5.24341 22.7426 5.24341 39.6525C5.24341 56.5635 19.4665 69.0159 35.2619 69.0159C51.0595 69.0159 64.7571 57.5457 64.7571 40.177C64.7571 22.8082 51.9104 14.943 49.8126 13.6327ZM50.1916 62.8482C49.8635 63.1763 46.8486 65.2736 43.3097 65.6012C39.7698 65.9287 34.9858 66.1262 32.101 63.5039C31.6427 63.0445 31.774 62.3899 32.101 62.1274C32.4291 61.8655 32.6916 61.668 33.0848 61.668C33.478 61.668 33.4129 61.668 33.6093 61.7993C34.9196 62.8477 36.8861 63.7002 41.0807 63.7002C45.2763 63.7002 48.2251 62.5201 49.5359 61.5373C50.1265 61.078 50.3885 61.4723 50.4536 61.7337C50.5197 61.9962 50.651 62.3899 50.1916 62.8482ZM38.7215 56.884C39.4422 56.2283 40.6229 55.1805 41.7369 54.7211C42.8509 54.2628 43.4415 54.3279 44.4893 54.3279C45.5383 54.3279 46.6522 54.393 47.4397 54.918C48.2261 55.4419 48.685 56.622 48.9469 57.2772C49.2089 57.9323 48.9469 58.3256 48.4225 58.5875C47.9642 58.85 47.898 58.7188 47.4397 57.8678C46.9804 57.0152 46.5872 56.1632 44.293 56.1632C41.9989 56.1632 41.2775 56.9496 40.1636 57.8678C39.0496 58.7855 38.6564 59.1131 38.2632 58.5875C37.87 58.0636 38.0001 57.5397 38.7215 56.884ZM56.0908 57.4084C53.7315 57.2121 49.0115 49.8709 45.996 49.7402C42.1958 49.6089 33.9358 57.6704 27.4471 57.6704C23.515 57.6704 22.3354 57.0814 21.024 56.2283C19.0575 54.8523 18.0747 52.7545 18.1404 49.8709C18.206 44.7581 22.9906 39.9735 29.0204 39.9079C36.6893 39.8434 41.9978 47.5111 45.8658 47.4455C49.1427 47.3804 55.4351 40.9573 58.5156 40.9573C61.7925 40.9573 62.7112 44.3655 62.7112 46.3971C62.7112 48.4288 62.0555 52.0994 60.4822 54.393C58.9088 56.6871 57.9261 57.5397 56.0908 57.4084Z" fill="#0073BA"/>
</svg>
