<svg width="548" height="349" viewBox="0 0 548 349" fill="none" xmlns="http://www.w3.org/2000/svg">
<g filter="url(#filter0_d_2412_474)">
<path d="M275.088 52.9477H259.469V50.2958H272.436V45.7065L257.607 31.0943L259.469 29.2109L275.088 44.5916V52.9477Z" fill="white"/>
<path d="M355.52 118.735L334.814 98.04H325.44V88.6666L320.537 83.7634L325.332 78.9792V52.8396H297.85L293.402 57.2882L289.061 52.9478H278.454V43.4553L257.618 21.9591L259.469 20L281.106 42.3837V50.296H290.154L293.402 53.5431L296.757 50.1877H327.984V80.0724L324.293 83.7634L328.092 87.5625V95.3882H335.907L357.392 116.863L355.52 118.735Z" fill="white"/>
<path d="M318.394 82.2907L295.761 59.658L299.355 56.0645L321.728 56.584V78.9569L318.394 82.2907ZM299.517 59.658L318.405 78.5456L319.087 77.8637V59.1709L300.437 58.7379L299.517 59.658Z" fill="white"/>
<path d="M262.608 111.959V93.1253L269.394 84.4445L261.266 78.1667V56.0752H286.799L302.537 71.8131L287.914 86.4361H275.964V98.6021L262.608 111.959ZM265.26 94.0453V105.562L273.323 97.4981V83.7735H286.821L298.792 71.8023L285.706 58.7162H263.928V76.857L273.129 83.9683L265.26 94.0453Z" fill="white"/>
<path d="M286.258 115.023H267.359L280.673 101.71L291.616 100.368L290.306 90.1823L305.925 74.5635L323.979 92.6177V114.872H303.306L294.863 106.429L286.258 115.023ZM273.756 112.371H285.165L294.863 102.673L304.41 112.22H321.338V93.7109L305.936 78.3085L293.109 91.1348L294.592 102.673L281.918 104.232L273.756 112.371Z" fill="white"/>
<path d="M286.907 99.2634H278.4V90.7559H286.907V99.2634ZM281.052 96.6116H284.255V93.4077H281.052V96.6116Z" fill="white"/>
<path d="M346.06 118.659L331.458 104.058H328.655V117.685H326.003V101.406H332.562L347.932 116.776L346.06 118.659Z" fill="white"/>
<path d="M259.469 52.9475H243.861V44.5915L258.549 30.1416L260.4 32.0358L246.513 45.7063V50.2956H259.469V52.9475Z" fill="white"/>
<path d="M163.429 118.734L161.556 116.862L183.042 95.3873H190.856V87.5617L194.656 83.7625L190.965 80.0716V50.1869H222.192L225.547 53.5423L228.794 50.2951H237.843V42.3829L258.516 21.0166L260.421 22.8567L240.484 43.4545V52.947H229.887L225.547 57.2874L221.098 52.8388H193.617V78.9784L198.412 83.7625L193.508 88.6657V98.0392H184.135L163.429 118.734Z" fill="white"/>
<path d="M200.555 82.2907L197.221 78.957V56.5733L219.583 56.0537L223.177 59.6472L200.555 82.2907ZM199.862 77.8638L200.544 78.5457L219.432 59.6581L218.511 58.738L199.862 59.171V77.8638Z" fill="white"/>
<path d="M256.33 111.959L242.973 98.6021V86.4253H231.024L216.412 71.8131L232.15 56.0752H257.683V78.1667L249.554 84.4445L256.341 93.1253V111.959H256.33ZM245.625 97.4981L253.689 105.562V94.0453L245.831 83.9791L255.031 76.8678V58.727H233.243L220.157 71.8131L232.128 83.7843H245.625V97.4981Z" fill="white"/>
<path d="M251.589 115.022H232.691L224.086 106.417L215.643 114.86H194.969V92.606L213.024 74.5518L228.643 90.1706L227.333 100.356L238.276 101.698L251.589 115.022ZM233.795 112.37H245.203L237.053 104.22L224.378 102.661L225.861 91.1231L213.024 78.2968L197.611 93.71V112.219H214.539L224.086 102.672L233.795 112.37Z" fill="white"/>
<path d="M240.549 99.2624H232.041V90.7549H240.549V99.2624ZM234.682 96.6106H237.886V93.4067H234.682V96.6106Z" fill="white"/>
<path d="M171.98 119.568L170.107 117.684L186.386 101.405H192.946V117.684H190.294V104.057H187.479L171.98 119.568Z" fill="white"/>
<path d="M259.469 206.171L257.607 204.288L272.436 189.676V185.086H259.469V182.435H275.088V190.78L259.469 206.171Z" fill="white"/>
<path d="M260.421 214.364L258.516 212.524L278.454 191.926V182.433H289.061L293.402 178.093L297.85 182.542H325.332V156.402L320.537 151.618L325.44 146.715V137.341H334.814L356.343 115.812L358.215 117.685L335.907 139.993H328.092V147.808L324.293 151.618L327.984 155.309V185.193H296.757L293.402 181.838L290.155 185.085H281.106V192.997L260.421 214.364Z" fill="white"/>
<path d="M299.366 179.316L295.772 175.723L318.405 153.09L321.739 156.424V178.797L299.366 179.316ZM299.517 175.723L300.437 176.643L319.087 176.21V157.517L318.405 156.835L299.517 175.723Z" fill="white"/>
<path d="M286.81 179.305H261.276V157.214L269.405 150.936L262.619 142.255V123.422L275.986 136.789V148.955H287.936L302.559 163.578L286.81 179.305ZM263.928 176.654H285.717L298.803 163.568L286.832 151.596H273.334V137.872L265.27 129.808V141.325L273.128 151.391L263.928 158.502V176.654Z" fill="white"/>
<path d="M305.925 160.829L290.306 145.21L291.616 135.025L280.673 133.682L267.359 120.369H286.258L294.863 128.974L303.306 120.531H323.979V142.785L305.925 160.829ZM293.099 144.247L305.925 157.073L321.327 141.67V123.162H304.399L294.852 132.708L285.154 123.01H273.746L281.896 131.161L294.571 132.719L293.099 144.247Z" fill="white"/>
<path d="M286.907 144.626H278.4V136.118H286.907V144.626ZM281.052 141.974H284.255V138.77H281.052V141.974Z" fill="white"/>
<path d="M292.871 123.595L286.853 117.577L292.871 111.559L298.889 117.577L292.871 123.595ZM290.598 117.577L292.871 119.85L295.144 117.577L292.871 115.304L290.598 117.577Z" fill="white"/>
<path d="M225.449 123.595L219.431 117.577L225.449 111.559L231.468 117.577L225.449 123.595ZM223.176 117.577L225.449 119.85L227.722 117.577L225.449 115.304L223.176 117.577Z" fill="white"/>
<path d="M332.562 133.964H326.003V117.685H328.655V131.323H331.458L346.969 115.812L348.842 117.685L332.562 133.964Z" fill="white"/>
<path d="M258.549 205.239L243.861 190.779V182.434H259.469V185.085H246.513V189.675L260.4 203.345L258.549 205.239Z" fill="white"/>
<path d="M259.469 215.316L237.843 192.997V185.085H228.794L225.547 181.838L222.192 185.193H190.965V155.309L194.656 151.618L190.856 147.808V139.993H183.042L160.734 117.696L162.606 115.812L184.135 137.341H193.508V146.715L198.412 151.618L193.617 156.402V182.542H221.098L225.547 178.093L229.887 182.433H240.484V191.926L261.341 213.433L259.469 215.316Z" fill="white"/>
<path d="M219.583 179.316L197.221 178.797V156.424L200.555 153.09L223.187 175.723L219.583 179.316ZM199.862 176.21L218.511 176.643L219.431 175.723L200.544 156.835L199.862 157.517V176.21Z" fill="white"/>
<path d="M257.672 179.306H232.139L216.401 163.568L231.024 148.945H242.973V136.779L256.341 123.411V142.245L249.554 150.925L257.683 157.203V179.306H257.672ZM233.243 176.654H255.031V158.513L245.831 151.402L253.689 141.335V129.819L245.625 137.883V151.607H232.128L220.157 163.568L233.243 176.654Z" fill="white"/>
<path d="M213.024 160.83L194.969 142.776V120.522H215.643L224.086 128.964L232.691 120.359H251.589L238.276 133.673L227.333 135.015L228.643 145.2L213.024 160.83ZM197.611 141.672L213.013 157.074L225.839 144.248L224.356 132.709L237.031 131.151L245.181 123H233.795L224.096 132.699L214.55 123.152H197.611V141.672Z" fill="white"/>
<path d="M240.549 144.626H232.041V136.118H240.549V144.626ZM234.682 141.974H237.886V138.77H234.682V141.974Z" fill="white"/>
<path d="M192.945 133.965H186.386L171.016 118.595L172.889 116.723L187.479 131.324H190.294V117.686H192.945V133.965Z" fill="white"/>
<path d="M40.0004 265.956H20V231.218H40.0004V237.249H27.3625V244.88H39.1169V250.911H27.3625V259.861H40.0004V265.956Z" fill="white"/>
<path d="M47.2476 265.956V231.218H54.6101V259.874H68.6948V265.956H47.2476Z" fill="white"/>
<path d="M94.7389 265.956H74.7385V231.218H94.7389V237.249H82.101V244.88H93.8554V250.911H82.101V259.861H94.7389V265.956Z" fill="white"/>
<path d="M115.162 246.442H128.939V264.444C126.711 265.174 124.599 265.686 122.627 265.981C120.655 266.275 118.645 266.416 116.583 266.416C111.346 266.416 107.338 264.88 104.573 261.794C101.807 258.708 100.424 254.291 100.424 248.529C100.424 242.92 102.025 238.554 105.239 235.417C108.44 232.28 112.896 230.718 118.581 230.718C122.14 230.718 125.585 231.435 128.888 232.856L126.442 238.746C123.907 237.478 121.27 236.851 118.529 236.851C115.341 236.851 112.793 237.914 110.885 240.052C108.965 242.19 108.017 245.059 108.017 248.669C108.017 252.434 108.785 255.315 110.335 257.3C111.884 259.284 114.125 260.283 117.07 260.283C118.606 260.283 120.168 260.129 121.756 259.809V252.575H115.175V246.442H115.162Z" fill="white"/>
<path d="M158.466 265.955L155.944 257.684H143.28L140.758 265.955H132.819L145.073 231.076H154.074L166.379 265.955H158.466ZM154.19 251.512C151.859 244.021 150.553 239.783 150.259 238.797C149.964 237.811 149.759 237.043 149.631 236.467C149.106 238.49 147.608 243.509 145.137 251.499H154.19V251.512Z" fill="white"/>
<path d="M201.591 265.956H192.231L177.122 239.681H176.904C177.199 244.317 177.353 247.633 177.353 249.605V265.943H170.771V231.218H180.054L195.138 257.236H195.304C195.074 252.729 194.946 249.528 194.946 247.659V231.218H201.566V265.956H201.591Z" fill="white"/>
<path d="M223.73 265.956H216.367V237.351H206.931V231.218H233.154V237.351H223.717V265.956H223.73Z" fill="white"/>
<path d="M265.306 265.956L256.944 238.708H256.727C257.021 244.253 257.175 247.953 257.175 249.797V265.956H250.594V231.218H260.619L268.84 257.774H268.981L277.7 231.218H287.726V265.943H280.863V249.515C280.863 248.734 280.876 247.851 280.901 246.826C280.927 245.815 281.029 243.126 281.221 238.747H281.004L272.054 265.943H265.306V265.956Z" fill="white"/>
<path d="M327.996 248.542C327.996 254.291 326.574 258.708 323.719 261.794C320.864 264.88 316.779 266.429 311.465 266.429C306.139 266.429 302.054 264.88 299.211 261.794C296.369 258.708 294.935 254.278 294.935 248.491C294.935 242.716 296.369 238.298 299.224 235.251C302.08 232.203 306.177 230.68 311.516 230.68C316.856 230.68 320.94 232.216 323.757 235.289C326.574 238.349 327.996 242.767 327.996 248.542ZM302.643 248.542C302.643 252.421 303.386 255.341 304.858 257.313C306.331 259.272 308.533 260.258 311.465 260.258C317.342 260.258 320.275 256.352 320.275 248.542C320.275 240.718 317.355 236.813 311.504 236.813C308.571 236.813 306.369 237.799 304.871 239.771C303.386 241.73 302.643 244.662 302.643 248.542Z" fill="white"/>
<path d="M342.554 252.627V265.956H335.192V231.218H345.307C350.019 231.218 353.515 232.076 355.781 233.791C358.047 235.507 359.174 238.119 359.174 241.615C359.174 243.664 358.611 245.482 357.484 247.07C356.357 248.657 354.77 249.912 352.708 250.808C357.932 258.619 361.338 263.664 362.926 265.943H354.757L346.472 252.614H342.554V252.627ZM342.554 246.634H344.923C347.253 246.634 348.969 246.25 350.083 245.469C351.197 244.688 351.748 243.472 351.748 241.807C351.748 240.155 351.184 238.99 350.045 238.286C348.918 237.594 347.164 237.236 344.782 237.236H342.554V246.634Z" fill="white"/>
<path d="M398.829 248.542C398.829 254.291 397.408 258.708 394.553 261.794C391.697 264.88 387.613 266.429 382.299 266.429C376.972 266.429 372.888 264.88 370.045 261.794C367.203 258.708 365.768 254.278 365.768 248.491C365.768 242.716 367.203 238.298 370.058 235.251C372.913 232.203 377.011 230.68 382.35 230.68C387.689 230.68 391.774 232.216 394.591 235.289C397.421 238.349 398.829 242.767 398.829 248.542ZM373.477 248.542C373.477 252.421 374.219 255.341 375.692 257.313C377.164 259.272 379.367 260.258 382.299 260.258C388.176 260.258 391.108 256.352 391.108 248.542C391.108 240.718 388.189 236.813 382.337 236.813C379.405 236.813 377.203 237.799 375.705 239.771C374.232 241.73 373.477 244.662 373.477 248.542Z" fill="white"/>
<path d="M420.776 236.851C418.01 236.851 415.859 237.888 414.335 239.975C412.812 242.063 412.056 244.956 412.056 248.682C412.056 256.429 414.963 260.296 420.776 260.296C423.222 260.296 426.167 259.681 429.636 258.465V264.637C426.781 265.827 423.606 266.416 420.084 266.416C415.027 266.416 411.173 264.88 408.496 261.82C405.82 258.759 404.476 254.355 404.476 248.618C404.476 245.008 405.129 241.845 406.448 239.13C407.767 236.416 409.649 234.329 412.107 232.882C414.566 231.435 417.46 230.705 420.763 230.705C424.131 230.705 427.524 231.525 430.93 233.151L428.561 239.143C427.268 238.529 425.949 237.991 424.643 237.53C423.337 237.082 422.044 236.851 420.776 236.851Z" fill="white"/>
<path d="M451.775 236.851C449.009 236.851 446.858 237.888 445.335 239.975C443.811 242.063 443.055 244.956 443.055 248.682C443.055 256.429 445.962 260.296 451.775 260.296C454.221 260.296 457.166 259.681 460.636 258.465V264.637C457.78 265.827 454.605 266.416 451.084 266.416C446.026 266.416 442.172 264.88 439.496 261.82C436.82 258.759 435.475 254.355 435.475 248.618C435.475 245.008 436.128 241.845 437.447 239.13C438.766 236.416 440.648 234.329 443.107 232.882C445.565 231.435 448.459 230.705 451.762 230.705C455.13 230.705 458.523 231.525 461.929 233.151L459.56 239.143C458.267 238.529 456.948 237.991 455.642 237.53C454.336 237.082 453.043 236.851 451.775 236.851Z" fill="white"/>
<path d="M499.548 248.542C499.548 254.291 498.127 258.708 495.272 261.794C492.416 264.88 488.332 266.429 483.018 266.429C477.691 266.429 473.607 264.88 470.764 261.794C467.909 258.708 466.487 254.278 466.487 248.491C466.487 242.716 467.921 238.298 470.777 235.251C473.632 232.203 477.73 230.68 483.069 230.68C488.408 230.68 492.493 232.216 495.31 235.289C498.14 238.349 499.548 242.767 499.548 248.542ZM474.208 248.542C474.208 252.421 474.951 255.341 476.424 257.313C477.896 259.272 480.098 260.258 483.031 260.258C488.908 260.258 491.84 256.352 491.84 248.542C491.84 240.718 488.921 236.813 483.069 236.813C480.137 236.813 477.934 237.799 476.436 239.771C474.951 241.73 474.208 244.662 474.208 248.542Z" fill="white"/>
<path d="M56.8742 284.101C56.3876 282.769 55.4657 282.103 54.1085 282.103C53.3786 282.103 52.8024 282.308 52.3671 282.73C51.9317 283.153 51.714 283.627 51.714 284.19C51.714 284.766 51.8805 285.24 52.2262 285.599C52.5719 285.957 53.0073 286.277 53.5195 286.572C54.0444 286.866 54.595 287.148 55.1968 287.417C55.7986 287.686 56.362 288.019 56.887 288.403C57.412 288.8 57.8473 289.273 58.193 289.837C58.5388 290.4 58.7052 291.117 58.7052 292.001C58.7052 292.769 58.5644 293.473 58.2699 294.114C57.9754 294.754 57.5656 295.304 57.0278 295.765C56.4901 296.226 55.8498 296.572 55.0944 296.828C54.3389 297.084 53.5067 297.212 52.5975 297.212C51.7653 297.212 51.0226 297.11 50.3696 296.918C49.7166 296.726 49.2172 296.495 48.8843 296.226C49.0379 295.676 49.166 295.176 49.2812 294.728C49.3836 294.28 49.4861 293.806 49.5501 293.294H49.9983C50.0495 293.627 50.1647 293.947 50.3184 294.254C50.4848 294.562 50.7025 294.818 50.9586 295.048C51.2275 295.279 51.5476 295.458 51.9189 295.586C52.2902 295.714 52.7128 295.778 53.1737 295.778C54.0957 295.778 54.7743 295.548 55.2224 295.087C55.6578 294.626 55.8755 294.075 55.8755 293.435C55.8755 292.846 55.709 292.372 55.3633 292.001C55.0176 291.629 54.595 291.309 54.0957 291.015C53.5835 290.72 53.0329 290.451 52.4311 290.183C51.8293 289.914 51.2787 289.594 50.7665 289.197C50.2543 288.813 49.8318 288.339 49.4989 287.775C49.1532 287.225 48.9867 286.508 48.9867 285.624C48.9867 284.818 49.1276 284.101 49.4221 283.486C49.7166 282.871 50.1007 282.346 50.5745 281.949C51.0482 281.54 51.5988 281.232 52.2262 281.002C52.8536 280.784 53.5066 280.669 54.2109 280.669C55.0304 280.669 55.7474 280.771 56.3748 280.976C57.0022 281.181 57.54 281.463 57.9882 281.809C57.8473 282.167 57.7193 282.5 57.6296 282.846C57.54 283.179 57.3992 283.601 57.2455 284.113H56.8742V284.101Z" fill="white"/>
<path d="M68.6798 297.2C67.6939 297.2 66.7719 297.085 65.9141 296.867C65.0562 296.649 64.3135 296.291 63.6861 295.804C63.0587 295.318 62.5593 294.69 62.188 293.922C61.8295 293.154 61.6502 292.232 61.6502 291.131C61.6502 290.516 61.6502 289.965 61.6502 289.479C61.6502 288.992 61.663 288.544 61.663 288.122C61.663 287.699 61.6758 287.302 61.6886 286.918C61.7014 286.534 61.7142 286.137 61.7142 285.727C61.7142 284.485 61.7014 283.474 61.6886 282.693C61.6758 281.911 61.6374 281.335 61.6118 280.951C61.9319 280.977 62.252 281.002 62.5721 281.028C62.8923 281.054 63.2123 281.066 63.5197 281.066C63.827 281.066 64.1471 281.054 64.4672 281.028C64.7873 281.002 65.1074 280.977 65.4275 280.951C65.3507 281.707 65.2867 282.424 65.2482 283.115C65.2098 283.807 65.1714 284.472 65.1586 285.125C65.133 285.778 65.1202 286.431 65.1202 287.072C65.1202 287.725 65.1074 288.378 65.1074 289.031C65.1074 290.439 65.2098 291.579 65.4019 292.437C65.6068 293.295 65.9013 293.96 66.2854 294.421C66.6823 294.895 67.1561 295.202 67.7323 295.369C68.3085 295.523 68.9615 295.612 69.7169 295.612C70.6389 295.612 71.3559 295.382 71.8809 294.908C72.4059 294.447 72.8028 293.82 73.0717 293.051C73.3534 292.283 73.5198 291.4 73.5711 290.414C73.6351 289.428 73.6607 288.378 73.6607 287.302C73.6607 286.252 73.6479 285.189 73.6095 284.127C73.5839 283.064 73.5326 282.001 73.4814 280.951C73.904 281.028 74.3009 281.066 74.6466 281.066C74.8515 281.066 75.0435 281.054 75.2228 281.028C75.4149 281.002 75.5941 280.977 75.799 280.951C75.7734 281.284 75.735 281.745 75.6966 282.321C75.6582 282.897 75.6197 283.55 75.5813 284.293C75.5557 285.036 75.5301 285.855 75.5173 286.764C75.5045 287.661 75.4917 288.621 75.4917 289.62C75.4917 292.296 74.9155 294.216 73.7631 295.407C72.5979 296.611 70.9078 297.2 68.6798 297.2Z" fill="white"/>
<path d="M81.4329 286.406C81.1896 288.173 81.0104 289.927 80.8823 291.668C80.7543 293.41 80.639 295.164 80.511 296.918C80.3445 296.88 80.1525 296.854 79.9732 296.829C79.7812 296.803 79.6019 296.79 79.4354 296.79C79.2562 296.79 79.0769 296.803 78.8977 296.829C78.7184 296.854 78.5391 296.88 78.347 296.918C78.8336 294.242 79.2818 291.579 79.6659 288.941C80.0628 286.303 80.4214 283.653 80.7287 280.964C80.8951 280.99 81.0616 281.015 81.2024 281.041C81.3433 281.066 81.5097 281.079 81.6762 281.079C81.9451 281.079 82.2524 281.041 82.5981 280.964C83.0078 281.886 83.4432 282.821 83.9041 283.781C84.3523 284.741 84.8132 285.689 85.2614 286.636C85.7095 287.584 86.1705 288.506 86.6187 289.415C87.0668 290.324 87.515 291.182 87.9375 292.001C88.8466 290.286 89.7685 288.467 90.6905 286.572C91.6124 284.677 92.483 282.808 93.3153 280.951C93.6738 281.028 94.0068 281.066 94.3141 281.066C94.6086 281.066 94.9287 281.028 95.2744 280.951C95.4152 282.27 95.5817 283.691 95.7481 285.228C95.9146 286.764 96.0939 288.25 96.2731 289.697C96.4524 291.143 96.6188 292.501 96.7853 293.768C96.9517 295.036 97.1054 296.073 97.2463 296.893C96.939 296.854 96.6316 296.829 96.3115 296.803C95.9914 296.777 95.6841 296.765 95.364 296.765C95.0695 296.765 94.7494 296.777 94.4293 296.803C94.1092 296.829 93.7891 296.854 93.4562 296.893C93.3794 295.266 93.2385 293.525 93.072 291.668C92.8928 289.812 92.7135 287.981 92.5343 286.175H92.4959C91.6124 287.981 90.7417 289.773 89.8966 291.54C89.0515 293.307 88.2064 295.1 87.3741 296.893C87.2973 296.867 87.2205 296.854 87.1564 296.841C87.0924 296.841 87.0156 296.841 86.9388 296.841C86.862 296.841 86.7851 296.841 86.7211 296.841C86.6571 296.841 86.5802 296.867 86.5034 296.893C85.6711 295.138 84.8389 293.384 84.0194 291.643C83.1999 289.901 82.342 288.147 81.4713 286.38H81.4329V286.406Z" fill="white"/>
<path d="M99.9095 287.366C99.9095 286.713 99.9095 286.111 99.9095 285.561C99.9095 285.01 99.8967 284.472 99.8839 283.96C99.8711 283.448 99.8455 282.949 99.8199 282.462C99.7943 281.975 99.7558 281.476 99.7302 280.964C99.9863 280.989 100.281 281.015 100.588 281.041C100.895 281.066 101.241 281.079 101.625 281.079C102.176 281.079 102.739 281.066 103.315 281.028C103.892 280.989 104.455 280.977 105.006 280.977C106.107 280.977 106.965 281.053 107.579 281.22C108.194 281.374 108.68 281.617 109.039 281.937C109.526 282.321 109.884 282.769 110.115 283.256C110.345 283.755 110.46 284.344 110.46 285.061C110.46 285.932 110.307 286.675 110.012 287.302C109.718 287.929 109.308 288.442 108.783 288.839C108.258 289.235 107.631 289.53 106.901 289.709C106.171 289.888 105.377 289.978 104.506 289.978H103.341C103.341 291.131 103.354 292.283 103.379 293.435C103.405 294.588 103.456 295.753 103.52 296.905C103.264 296.867 102.983 296.841 102.675 296.816C102.368 296.79 102.009 296.777 101.612 296.777C101.228 296.777 100.883 296.79 100.575 296.816C100.268 296.841 99.9863 296.867 99.7174 296.905C99.7558 296.393 99.7814 295.894 99.807 295.407C99.8327 294.933 99.8582 294.421 99.8711 293.909C99.8839 293.384 99.8967 292.859 99.8967 292.296C99.8967 291.745 99.8967 291.143 99.8967 290.503V287.366H99.9095ZM106.798 285.407C106.798 284.831 106.734 284.344 106.593 283.947C106.452 283.55 106.286 283.23 106.068 282.987C105.851 282.744 105.595 282.577 105.287 282.462C104.98 282.36 104.673 282.296 104.34 282.296H103.815C103.648 282.296 103.508 282.308 103.379 282.321C103.367 283.409 103.367 284.498 103.354 285.573C103.341 286.649 103.341 287.725 103.341 288.8C103.725 288.8 104.122 288.762 104.532 288.685C104.942 288.608 105.313 288.454 105.659 288.211C106.004 287.968 106.273 287.635 106.491 287.187C106.683 286.739 106.798 286.15 106.798 285.407Z" fill="white"/>
<path d="M115.684 284.741C115.684 284.306 115.684 283.896 115.684 283.525C115.684 283.14 115.659 282.872 115.62 282.705C115.39 282.705 115.108 282.718 114.763 282.731C114.417 282.744 114.058 282.769 113.674 282.808C113.29 282.833 112.906 282.872 112.496 282.897C112.099 282.923 111.728 282.961 111.395 283.012C111.421 282.846 111.446 282.68 111.472 282.513C111.497 282.347 111.51 282.167 111.51 281.988C111.51 281.822 111.497 281.655 111.472 281.489C111.446 281.322 111.421 281.156 111.395 280.977C111.92 280.989 112.394 281.015 112.816 281.028C113.239 281.041 113.661 281.053 114.11 281.053C114.545 281.053 115.019 281.066 115.531 281.079C116.043 281.092 116.658 281.092 117.387 281.092C118.105 281.092 118.719 281.092 119.244 281.079C119.769 281.066 120.256 281.066 120.678 281.053C121.114 281.053 121.523 281.041 121.92 281.028C122.317 281.015 122.765 281.002 123.252 280.977C123.226 281.143 123.201 281.322 123.175 281.489C123.149 281.655 123.137 281.822 123.137 281.988C123.137 282.167 123.149 282.347 123.175 282.513C123.201 282.68 123.226 282.846 123.252 283.012C122.945 282.961 122.599 282.936 122.215 282.897C121.831 282.872 121.446 282.846 121.062 282.808C120.678 282.782 120.32 282.756 119.987 282.731C119.654 282.718 119.372 282.705 119.129 282.705C119.103 282.872 119.09 283.14 119.09 283.525V290.529C119.09 291.169 119.09 291.771 119.103 292.321C119.116 292.872 119.129 293.41 119.142 293.935C119.154 294.46 119.167 294.959 119.193 295.433C119.206 295.906 119.244 296.406 119.27 296.931C119.014 296.892 118.732 296.867 118.425 296.841C118.117 296.816 117.759 296.803 117.362 296.803C116.978 296.803 116.632 296.816 116.325 296.841C116.017 296.867 115.736 296.892 115.48 296.931C115.505 296.419 115.531 295.919 115.556 295.433C115.582 294.959 115.595 294.447 115.62 293.935C115.633 293.41 115.646 292.885 115.659 292.321C115.659 291.771 115.659 291.169 115.659 290.529V284.741H115.684Z" fill="white"/>
<path d="M132.868 297.2C131.882 297.2 130.96 297.085 130.102 296.867C129.244 296.649 128.502 296.291 127.874 295.804C127.247 295.318 126.747 294.69 126.376 293.922C126.018 293.154 125.838 292.232 125.838 291.131C125.838 290.516 125.838 289.965 125.838 289.479C125.838 288.992 125.851 288.544 125.851 288.122C125.851 287.699 125.864 287.302 125.877 286.918C125.89 286.534 125.902 286.137 125.902 285.727C125.902 284.485 125.89 283.474 125.877 282.693C125.864 281.911 125.826 281.335 125.8 280.951C126.12 280.977 126.44 281.002 126.76 281.028C127.08 281.054 127.4 281.066 127.708 281.066C128.015 281.066 128.335 281.054 128.655 281.028C128.975 281.002 129.296 280.977 129.616 280.951C129.539 281.707 129.475 282.424 129.436 283.115C129.398 283.807 129.36 284.472 129.347 285.125C129.321 285.778 129.308 286.431 129.308 287.072C129.308 287.725 129.296 288.378 129.296 289.031C129.296 290.439 129.398 291.579 129.59 292.437C129.795 293.295 130.089 293.96 130.474 294.421C130.87 294.895 131.344 295.202 131.92 295.369C132.497 295.523 133.15 295.612 133.905 295.612C134.827 295.612 135.544 295.382 136.069 294.908C136.594 294.447 136.991 293.82 137.26 293.051C137.542 292.283 137.708 291.4 137.759 290.414C137.823 289.428 137.849 288.378 137.849 287.302C137.849 286.252 137.836 285.189 137.798 284.127C137.772 283.064 137.721 282.001 137.67 280.951C138.092 281.028 138.489 281.066 138.835 281.066C139.04 281.066 139.232 281.054 139.411 281.028C139.603 281.002 139.782 280.977 139.987 280.951C139.962 281.284 139.923 281.745 139.885 282.321C139.846 282.897 139.808 283.55 139.769 284.293C139.744 285.036 139.718 285.855 139.705 286.764C139.693 287.661 139.68 288.621 139.68 289.62C139.68 292.296 139.104 294.216 137.951 295.407C136.786 296.611 135.096 297.2 132.868 297.2Z" fill="white"/>
<path d="M142.522 288.941C142.522 287.801 142.74 286.726 143.163 285.727C143.585 284.715 144.187 283.845 144.955 283.089C145.723 282.334 146.658 281.745 147.747 281.309C148.848 280.874 150.064 280.656 151.396 280.656C152.612 280.656 153.752 280.823 154.827 281.168C155.903 281.514 156.825 282.026 157.606 282.705C158.387 283.384 159.014 284.241 159.462 285.279C159.923 286.316 160.154 287.532 160.154 288.915C160.154 290.042 159.936 291.117 159.488 292.129C159.04 293.14 158.438 294.024 157.657 294.779C156.889 295.535 155.954 296.124 154.879 296.559C153.803 296.995 152.612 297.199 151.319 297.199C150.103 297.199 148.963 297.033 147.9 296.713C146.837 296.393 145.903 295.893 145.109 295.228C144.315 294.562 143.688 293.704 143.227 292.667C142.753 291.63 142.522 290.388 142.522 288.941ZM156.364 288.428C156.364 287.43 156.249 286.533 155.993 285.752C155.749 284.959 155.404 284.28 154.968 283.729C154.533 283.179 153.995 282.743 153.368 282.436C152.74 282.129 152.062 281.988 151.319 281.988C150.538 281.988 149.846 282.18 149.219 282.564C148.604 282.948 148.067 283.46 147.631 284.101C147.196 284.754 146.863 285.509 146.645 286.38C146.428 287.25 146.312 288.172 146.312 289.158C146.312 290.388 146.44 291.425 146.697 292.27C146.953 293.115 147.311 293.794 147.759 294.318C148.208 294.831 148.72 295.215 149.309 295.445C149.898 295.676 150.512 295.791 151.165 295.791C151.857 295.791 152.51 295.65 153.15 295.356C153.79 295.061 154.341 294.626 154.802 294.024C155.275 293.422 155.647 292.654 155.928 291.732C156.223 290.797 156.364 289.696 156.364 288.428Z" fill="white"/>
<path d="M170.077 297.2C169.091 297.2 168.169 297.085 167.312 296.867C166.454 296.649 165.711 296.291 165.084 295.804C164.456 295.318 163.957 294.69 163.585 293.922C163.227 293.154 163.048 292.232 163.048 291.131C163.048 290.516 163.048 289.965 163.048 289.479C163.048 288.992 163.061 288.544 163.061 288.122C163.061 287.699 163.073 287.302 163.086 286.918C163.099 286.534 163.112 286.137 163.112 285.727C163.112 284.485 163.099 283.474 163.086 282.693C163.073 281.911 163.035 281.335 163.009 280.951C163.329 280.977 163.649 281.002 163.97 281.028C164.29 281.054 164.61 281.066 164.917 281.066C165.224 281.066 165.545 281.054 165.865 281.028C166.185 281.002 166.505 280.977 166.825 280.951C166.748 281.707 166.684 282.424 166.646 283.115C166.607 283.807 166.569 284.472 166.556 285.125C166.53 285.778 166.518 286.431 166.518 287.072C166.518 287.725 166.505 288.378 166.505 289.031C166.505 290.439 166.607 291.579 166.799 292.437C167.004 293.295 167.299 293.96 167.683 294.421C168.08 294.895 168.554 295.202 169.13 295.369C169.706 295.523 170.359 295.612 171.114 295.612C172.036 295.612 172.753 295.382 173.278 294.908C173.803 294.447 174.2 293.82 174.469 293.051C174.751 292.283 174.917 291.4 174.969 290.414C175.033 289.428 175.058 288.378 175.058 287.302C175.058 286.252 175.045 285.189 175.007 284.127C174.981 283.064 174.93 282.001 174.879 280.951C175.301 281.028 175.698 281.066 176.044 281.066C176.249 281.066 176.441 281.054 176.62 281.028C176.812 281.002 176.992 280.977 177.197 280.951C177.171 281.284 177.132 281.745 177.094 282.321C177.056 282.897 177.017 283.55 176.979 284.293C176.953 285.036 176.928 285.855 176.915 286.764C176.902 287.661 176.889 288.621 176.889 289.62C176.889 292.296 176.313 294.216 175.161 295.407C173.995 296.611 172.305 297.2 170.077 297.2Z" fill="white"/>
<path d="M187.786 284.101C187.299 282.769 186.377 282.103 185.02 282.103C184.29 282.103 183.714 282.308 183.279 282.73C182.843 283.153 182.626 283.627 182.626 284.19C182.626 284.766 182.792 285.24 183.138 285.599C183.484 285.957 183.919 286.277 184.431 286.572C184.956 286.866 185.507 287.148 186.108 287.417C186.71 287.686 187.274 288.019 187.799 288.403C188.324 288.8 188.759 289.273 189.105 289.837C189.45 290.4 189.617 291.117 189.617 292.001C189.617 292.769 189.476 293.473 189.181 294.114C188.887 294.754 188.477 295.304 187.939 295.765C187.402 296.226 186.761 296.572 186.006 296.828C185.251 297.084 184.418 297.212 183.509 297.212C182.677 297.212 181.934 297.11 181.281 296.918C180.628 296.726 180.129 296.495 179.796 296.226C179.95 295.676 180.078 295.176 180.193 294.728C180.295 294.28 180.398 293.806 180.462 293.294H180.91C180.961 293.627 181.076 293.947 181.23 294.254C181.396 294.562 181.614 294.818 181.87 295.048C182.139 295.279 182.459 295.458 182.831 295.586C183.202 295.714 183.624 295.778 184.085 295.778C185.007 295.778 185.686 295.548 186.134 295.087C186.569 294.626 186.787 294.075 186.787 293.435C186.787 292.846 186.621 292.372 186.275 292.001C185.929 291.629 185.507 291.309 185.007 291.015C184.495 290.72 183.944 290.451 183.343 290.183C182.741 289.914 182.19 289.594 181.678 289.197C181.166 288.813 180.743 288.339 180.411 287.775C180.065 287.225 179.898 286.508 179.898 285.624C179.898 284.818 180.039 284.101 180.334 283.486C180.628 282.871 181.012 282.346 181.486 281.949C181.96 281.54 182.51 281.232 183.138 281.002C183.765 280.784 184.418 280.669 185.123 280.669C185.942 280.669 186.659 280.771 187.286 280.976C187.914 281.181 188.452 281.463 188.9 281.809C188.759 282.167 188.631 282.5 188.541 282.846C188.452 283.179 188.311 283.601 188.157 284.113H187.786V284.101Z" fill="white"/>
<path d="M195.276 299.556C195.596 299.415 195.865 299.274 196.083 299.133C196.301 298.992 196.467 298.839 196.608 298.647C196.749 298.455 196.851 298.224 196.915 297.955C196.979 297.674 197.03 297.328 197.069 296.918C197.094 296.406 197.12 295.907 197.146 295.42C197.171 294.946 197.184 294.434 197.21 293.922C197.223 293.397 197.235 292.872 197.248 292.309C197.248 291.758 197.261 291.156 197.261 290.516V287.366C197.261 286.713 197.261 286.111 197.248 285.561C197.248 285.01 197.235 284.472 197.21 283.96C197.197 283.448 197.171 282.949 197.146 282.462C197.12 281.975 197.094 281.476 197.069 280.964C197.325 280.989 197.619 281.015 197.927 281.041C198.234 281.066 198.58 281.079 198.964 281.079C199.348 281.079 199.694 281.066 200.001 281.041C200.308 281.015 200.59 280.989 200.859 280.964C200.833 281.476 200.808 281.975 200.795 282.462C200.782 282.949 200.757 283.448 200.731 283.96C200.705 284.472 200.692 284.997 200.692 285.561C200.692 286.111 200.68 286.713 200.68 287.366V290.516C200.68 291.143 200.692 291.809 200.705 292.539C200.718 293.269 200.731 293.986 200.731 294.716C200.731 296.56 200.308 297.942 199.45 298.852C198.593 299.761 197.325 300.35 195.622 300.619L195.276 299.556Z" fill="white"/>
<path d="M203.599 288.941C203.599 287.801 203.817 286.726 204.239 285.727C204.662 284.715 205.264 283.845 206.032 283.089C206.8 282.334 207.735 281.745 208.823 281.309C209.924 280.874 211.141 280.656 212.473 280.656C213.689 280.656 214.829 280.823 215.904 281.168C216.98 281.514 217.902 282.026 218.683 282.705C219.464 283.384 220.091 284.241 220.539 285.279C221 286.316 221.231 287.532 221.231 288.915C221.231 290.042 221.013 291.117 220.565 292.129C220.117 293.14 219.515 294.024 218.734 294.779C217.966 295.535 217.031 296.124 215.955 296.559C214.88 296.995 213.689 297.199 212.396 297.199C211.179 297.199 210.04 297.033 208.977 296.713C207.914 296.393 206.979 295.893 206.186 295.228C205.392 294.562 204.764 293.704 204.303 292.667C203.83 291.63 203.599 290.388 203.599 288.941ZM217.441 288.428C217.441 287.43 217.325 286.533 217.069 285.752C216.826 284.959 216.48 284.28 216.045 283.729C215.61 283.179 215.072 282.743 214.444 282.436C213.817 282.129 213.138 281.988 212.396 281.988C211.615 281.988 210.923 282.18 210.296 282.564C209.681 282.948 209.143 283.46 208.708 284.101C208.273 284.754 207.94 285.509 207.722 286.38C207.504 287.25 207.389 288.172 207.389 289.158C207.389 290.388 207.517 291.425 207.773 292.27C208.029 293.115 208.388 293.794 208.836 294.318C209.284 294.831 209.796 295.215 210.385 295.445C210.974 295.676 211.589 295.791 212.242 295.791C212.933 295.791 213.586 295.65 214.227 295.356C214.867 295.061 215.418 294.626 215.878 294.024C216.352 293.422 216.724 292.654 217.005 291.732C217.3 290.797 217.441 289.696 217.441 288.428Z" fill="white"/>
<path d="M231.154 297.2C230.168 297.2 229.246 297.085 228.388 296.867C227.53 296.649 226.788 296.291 226.16 295.804C225.533 295.318 225.034 294.69 224.662 293.922C224.304 293.154 224.124 292.232 224.124 291.131C224.124 290.516 224.124 289.965 224.124 289.479C224.124 288.992 224.137 288.544 224.137 288.122C224.137 287.699 224.15 287.302 224.163 286.918C224.176 286.534 224.188 286.137 224.188 285.727C224.188 284.485 224.176 283.474 224.163 282.693C224.15 281.911 224.112 281.335 224.086 280.951C224.406 280.977 224.726 281.002 225.046 281.028C225.366 281.054 225.687 281.066 225.994 281.066C226.301 281.066 226.621 281.054 226.941 281.028C227.262 281.002 227.582 280.977 227.902 280.951C227.825 281.707 227.761 282.424 227.722 283.115C227.684 283.807 227.646 284.472 227.633 285.125C227.607 285.778 227.594 286.431 227.594 287.072C227.594 287.725 227.582 288.378 227.582 289.031C227.582 290.439 227.684 291.579 227.876 292.437C228.081 293.295 228.376 293.96 228.76 294.421C229.157 294.895 229.63 295.202 230.207 295.369C230.783 295.523 231.436 295.612 232.191 295.612C233.113 295.612 233.83 295.382 234.355 294.908C234.88 294.447 235.277 293.82 235.546 293.051C235.828 292.283 235.994 291.4 236.045 290.414C236.109 289.428 236.135 288.378 236.135 287.302C236.135 286.252 236.122 285.189 236.084 284.127C236.058 283.064 236.007 282.001 235.956 280.951C236.378 281.028 236.775 281.066 237.121 281.066C237.326 281.066 237.518 281.054 237.697 281.028C237.889 281.002 238.068 280.977 238.273 280.951C238.248 281.284 238.209 281.745 238.171 282.321C238.132 282.897 238.094 283.55 238.056 284.293C238.03 285.036 238.004 285.855 237.992 286.764C237.979 287.661 237.966 288.621 237.966 289.62C237.966 292.296 237.39 294.216 236.237 295.407C235.072 296.611 233.382 297.2 231.154 297.2Z" fill="white"/>
<path d="M245.7 289.568H245.482V290.516C245.482 291.156 245.482 291.758 245.495 292.309C245.508 292.859 245.521 293.397 245.533 293.922C245.546 294.447 245.572 294.946 245.597 295.42C245.623 295.894 245.649 296.393 245.674 296.918C245.418 296.88 245.124 296.854 244.816 296.828C244.509 296.803 244.163 296.79 243.779 296.79C243.395 296.79 243.037 296.803 242.729 296.828C242.422 296.854 242.14 296.88 241.871 296.918C241.897 296.406 241.923 295.907 241.948 295.42C241.974 294.946 241.987 294.434 241.999 293.922C242.012 293.397 242.025 292.872 242.038 292.309C242.051 291.758 242.051 291.156 242.051 290.516V287.366C242.051 286.713 242.051 286.111 242.038 285.561C242.025 285.01 242.012 284.472 241.999 283.96C241.987 283.448 241.974 282.949 241.948 282.462C241.923 281.975 241.897 281.476 241.871 280.964C242.127 280.989 242.422 281.015 242.729 281.041C243.037 281.066 243.382 281.079 243.779 281.079C244.189 281.079 244.663 281.066 245.188 281.028C245.725 280.989 246.378 280.977 247.159 280.977C247.748 280.977 248.248 280.989 248.67 281.015C249.093 281.041 249.452 281.092 249.746 281.156C250.041 281.22 250.309 281.297 250.54 281.399C250.77 281.502 250.975 281.617 251.18 281.771C251.641 282.103 252.012 282.526 252.268 283.025C252.537 283.525 252.665 284.127 252.665 284.818C252.665 285.945 252.358 286.854 251.743 287.558C251.129 288.262 250.245 288.762 249.093 289.056C249.823 290.362 250.617 291.668 251.462 292.974C252.307 294.293 253.152 295.599 253.997 296.918C253.639 296.88 253.306 296.854 252.96 296.828C252.627 296.803 252.281 296.79 251.923 296.79C251.564 296.79 251.219 296.803 250.873 296.828C250.527 296.854 250.169 296.88 249.823 296.918L245.7 289.568ZM249.131 285.305C249.131 284.639 249.067 284.101 248.927 283.691C248.786 283.294 248.581 282.987 248.286 282.769C247.992 282.564 247.62 282.424 247.159 282.372C246.699 282.308 246.161 282.283 245.533 282.283C245.482 284.383 245.469 286.47 245.469 288.557C245.572 288.57 245.661 288.582 245.738 288.595C245.815 288.595 245.905 288.595 245.982 288.595C246.993 288.595 247.774 288.314 248.312 287.763C248.863 287.225 249.131 286.406 249.131 285.305Z" fill="white"/>
<path d="M256.379 285.573C256.379 284.511 256.366 283.627 256.327 282.897C256.302 282.167 256.276 281.527 256.251 280.977C256.635 281.053 256.993 281.092 257.301 281.092C257.608 281.092 257.954 281.053 258.338 280.977C260.015 282.82 261.692 284.651 263.331 286.482C264.983 288.301 266.661 290.132 268.364 291.975V287.712C268.364 286.956 268.364 286.214 268.351 285.484C268.351 284.754 268.338 284.075 268.312 283.461C268.287 282.846 268.274 282.321 268.261 281.886C268.248 281.45 268.223 281.143 268.197 280.977C268.581 281.053 268.914 281.092 269.221 281.092C269.542 281.092 269.887 281.053 270.284 280.977C270.22 282.103 270.169 283.128 270.131 284.062C270.092 284.997 270.054 285.893 270.028 286.726C270.002 287.571 269.977 288.377 269.964 289.159C269.951 289.94 269.938 290.733 269.926 291.54C269.913 292.347 269.913 293.192 269.913 294.063V296.918C269.746 296.88 269.593 296.854 269.439 296.828C269.285 296.803 269.132 296.79 268.965 296.79C268.671 296.79 268.376 296.828 268.056 296.918C266.468 295.023 264.842 293.153 263.165 291.297C261.488 289.44 259.759 287.571 257.966 285.676C257.941 286.559 257.928 287.468 257.928 288.39V291.066C257.928 291.988 257.928 292.782 257.928 293.422C257.928 294.075 257.941 294.613 257.966 295.061C257.979 295.509 258.005 295.881 258.018 296.163C258.03 296.444 258.043 296.7 258.069 296.918C257.89 296.88 257.698 296.854 257.505 296.828C257.313 296.803 257.134 296.79 256.98 296.79C256.66 296.79 256.302 296.828 255.918 296.918C255.931 296.803 255.956 296.559 255.982 296.175C256.007 295.791 256.046 295.305 256.071 294.728C256.11 294.152 256.148 293.499 256.187 292.769C256.225 292.04 256.251 291.271 256.289 290.465C256.315 289.658 256.34 288.838 256.353 288.006C256.366 287.174 256.379 286.354 256.379 285.573Z" fill="white"/>
<path d="M273.933 287.366C273.933 286.713 273.933 286.111 273.933 285.561C273.933 285.01 273.921 284.472 273.908 283.96C273.895 283.448 273.869 282.949 273.844 282.462C273.818 281.976 273.78 281.476 273.754 280.964C274.458 280.977 275.15 281.002 275.828 281.028C276.507 281.054 277.186 281.066 277.89 281.066C278.453 281.066 278.991 281.066 279.516 281.054C280.041 281.041 280.502 281.041 280.925 281.028C281.347 281.028 281.718 281.015 282.026 281.002C282.333 280.99 282.564 280.977 282.717 280.951C282.692 281.092 282.666 281.233 282.653 281.374C282.64 281.515 282.628 281.694 282.628 281.911C282.628 282.168 282.64 282.36 282.653 282.5C282.666 282.641 282.692 282.795 282.717 282.961C282.269 282.923 281.782 282.897 281.245 282.872C280.707 282.846 280.182 282.821 279.695 282.782C279.196 282.757 278.748 282.731 278.364 282.705C277.967 282.693 277.685 282.68 277.506 282.68C277.455 283.525 277.416 284.37 277.416 285.202C277.403 286.034 277.403 286.867 277.403 287.712C278.402 287.699 279.298 287.673 280.118 287.648C280.925 287.622 281.77 287.584 282.653 287.545C282.602 287.801 282.576 288.006 282.564 288.147C282.551 288.288 282.538 288.429 282.538 288.583C282.538 288.698 282.551 288.826 282.576 288.954C282.602 289.082 282.628 289.274 282.653 289.53C280.899 289.389 279.145 289.312 277.416 289.312C277.416 289.812 277.416 290.298 277.416 290.798C277.416 291.284 277.403 291.784 277.403 292.283C277.403 293.282 277.416 294.255 277.455 295.177C278.338 295.177 279.209 295.151 280.079 295.1C280.95 295.049 281.846 294.972 282.743 294.869C282.717 295.036 282.692 295.19 282.679 295.33C282.666 295.471 282.653 295.663 282.653 295.907C282.653 296.15 282.666 296.342 282.679 296.496C282.692 296.636 282.717 296.777 282.743 296.918C282.32 296.893 281.808 296.867 281.206 296.841C280.592 296.816 279.759 296.803 278.709 296.803C277.762 296.803 276.994 296.803 276.417 296.816C275.841 296.829 275.38 296.841 275.035 296.854C274.689 296.867 274.42 296.88 274.241 296.88C274.061 296.88 273.908 296.905 273.78 296.931C273.818 296.419 273.844 295.919 273.869 295.433C273.895 294.959 273.921 294.447 273.933 293.935C273.946 293.41 273.959 292.885 273.959 292.321C273.959 291.771 273.959 291.169 273.959 290.529V287.366H273.933Z" fill="white"/>
<path d="M291.77 287.916C292.09 287.468 292.397 286.969 292.705 286.405C293.012 285.842 293.319 285.253 293.601 284.639C293.895 284.024 294.177 283.396 294.446 282.769C294.715 282.142 294.984 281.54 295.265 280.989C295.432 281.015 295.598 281.04 295.778 281.066C295.957 281.092 296.136 281.105 296.315 281.105C296.508 281.105 296.687 281.092 296.866 281.066C297.045 281.04 297.225 281.015 297.429 280.989C297.161 281.412 296.84 281.975 296.444 282.692C296.047 283.396 295.637 284.165 295.189 284.971C294.753 285.791 294.305 286.623 293.844 287.468C293.383 288.313 292.974 289.107 292.602 289.85C292.602 290.208 292.589 290.58 292.577 290.951C292.564 291.322 292.551 291.706 292.551 292.103C292.551 292.884 292.564 293.666 292.577 294.434C292.589 295.215 292.653 296.047 292.769 296.931C292.436 296.892 292.116 296.867 291.783 296.841C291.45 296.815 291.13 296.803 290.797 296.803C290.477 296.803 290.157 296.815 289.824 296.841C289.491 296.867 289.171 296.892 288.85 296.931C288.876 296.188 288.927 295.445 289.004 294.677C289.081 293.922 289.119 293.179 289.119 292.462C289.119 292.103 289.119 291.758 289.107 291.399C289.107 291.041 289.094 290.682 289.068 290.336C288.812 289.824 288.53 289.261 288.21 288.659C287.89 288.057 287.57 287.443 287.25 286.828C286.93 286.213 286.597 285.599 286.277 284.997C285.957 284.395 285.649 283.845 285.368 283.307C285.086 282.782 284.843 282.321 284.625 281.911C284.407 281.501 284.241 281.194 284.126 280.989C284.484 281.015 284.83 281.04 285.163 281.066C285.496 281.092 285.854 281.105 286.2 281.105C286.559 281.105 286.904 281.092 287.237 281.066C287.57 281.04 287.903 281.015 288.249 280.989C288.518 281.553 288.825 282.18 289.158 282.871C289.491 283.563 289.811 284.242 290.131 284.907C290.451 285.56 290.746 286.162 291.027 286.7C291.309 287.238 291.527 287.648 291.706 287.916H291.77Z" fill="white"/>
<path d="M306.584 284.101C306.098 282.769 305.176 282.103 303.819 282.103C303.089 282.103 302.513 282.308 302.077 282.73C301.642 283.153 301.424 283.627 301.424 284.19C301.424 284.766 301.591 285.24 301.936 285.599C302.282 285.957 302.717 286.277 303.23 286.572C303.755 286.866 304.305 287.148 304.907 287.417C305.509 287.686 306.072 288.019 306.597 288.403C307.122 288.8 307.558 289.273 307.903 289.837C308.249 290.4 308.415 291.117 308.415 292.001C308.415 292.769 308.275 293.473 307.98 294.114C307.686 294.754 307.276 295.304 306.738 295.765C306.2 296.226 305.56 296.572 304.805 296.828C304.049 297.084 303.217 297.212 302.308 297.212C301.475 297.212 300.733 297.11 300.08 296.918C299.427 296.726 298.927 296.495 298.594 296.226C298.748 295.676 298.876 295.176 298.991 294.728C299.094 294.28 299.196 293.806 299.26 293.294H299.708C299.76 293.627 299.875 293.947 300.029 294.254C300.195 294.562 300.413 294.818 300.669 295.048C300.938 295.279 301.258 295.458 301.629 295.586C302 295.714 302.423 295.778 302.884 295.778C303.806 295.778 304.484 295.548 304.933 295.087C305.368 294.626 305.586 294.075 305.586 293.435C305.586 292.846 305.419 292.372 305.073 292.001C304.728 291.629 304.305 291.309 303.806 291.015C303.294 290.72 302.743 290.451 302.141 290.183C301.539 289.914 300.989 289.594 300.477 289.197C299.965 288.813 299.542 288.339 299.209 287.775C298.863 287.225 298.697 286.508 298.697 285.624C298.697 284.818 298.838 284.101 299.132 283.486C299.427 282.871 299.811 282.346 300.285 281.949C300.758 281.54 301.309 281.232 301.936 281.002C302.564 280.784 303.217 280.669 303.921 280.669C304.741 280.669 305.458 280.771 306.085 280.976C306.712 281.181 307.25 281.463 307.698 281.809C307.558 282.167 307.429 282.5 307.34 282.846C307.25 283.179 307.109 283.601 306.956 284.113H306.584V284.101Z" fill="white"/>
<path d="M316.572 284.741C316.572 284.306 316.572 283.896 316.572 283.525C316.572 283.14 316.546 282.872 316.508 282.705C316.277 282.705 315.996 282.718 315.65 282.731C315.304 282.744 314.946 282.769 314.562 282.808C314.178 282.833 313.793 282.872 313.384 282.897C312.987 282.923 312.615 282.961 312.282 283.012C312.308 282.846 312.334 282.68 312.359 282.513C312.385 282.347 312.398 282.167 312.398 281.988C312.398 281.822 312.385 281.655 312.359 281.489C312.334 281.322 312.308 281.156 312.282 280.977C312.807 280.989 313.281 281.015 313.704 281.028C314.126 281.041 314.549 281.053 314.997 281.053C315.432 281.053 315.906 281.066 316.418 281.079C316.93 281.092 317.545 281.092 318.275 281.092C318.992 281.092 319.607 281.092 320.132 281.079C320.657 281.066 321.143 281.066 321.566 281.053C322.001 281.053 322.411 281.041 322.808 281.028C323.205 281.015 323.653 281.002 324.139 280.977C324.114 281.143 324.088 281.322 324.062 281.489C324.037 281.655 324.024 281.822 324.024 281.988C324.024 282.167 324.037 282.347 324.062 282.513C324.088 282.68 324.114 282.846 324.139 283.012C323.832 282.961 323.486 282.936 323.102 282.897C322.718 282.872 322.334 282.846 321.95 282.808C321.566 282.782 321.207 282.756 320.874 282.731C320.541 282.718 320.26 282.705 320.016 282.705C319.991 282.872 319.978 283.14 319.978 283.525V290.529C319.978 291.169 319.978 291.771 319.991 292.321C320.003 292.872 320.016 293.41 320.029 293.935C320.042 294.46 320.055 294.959 320.08 295.433C320.093 295.906 320.132 296.406 320.157 296.931C319.901 296.892 319.619 296.867 319.312 296.841C319.005 296.816 318.646 296.803 318.249 296.803C317.865 296.803 317.519 296.816 317.212 296.841C316.905 296.867 316.623 296.892 316.367 296.931C316.393 296.419 316.418 295.919 316.444 295.433C316.469 294.959 316.482 294.447 316.508 293.935C316.521 293.41 316.533 292.885 316.546 292.321C316.546 291.771 316.546 291.169 316.546 290.529V284.741H316.572Z" fill="white"/>
<path d="M324.741 288.941C324.741 287.801 324.959 286.726 325.381 285.727C325.804 284.715 326.406 283.845 327.174 283.089C327.942 282.334 328.877 281.745 329.965 281.309C331.066 280.874 332.283 280.656 333.614 280.656C334.831 280.656 335.97 280.823 337.046 281.168C338.122 281.514 339.044 282.026 339.825 282.705C340.606 283.384 341.233 284.241 341.681 285.279C342.142 286.316 342.373 287.532 342.373 288.915C342.373 290.042 342.155 291.117 341.707 292.129C341.259 293.14 340.657 294.024 339.876 294.779C339.108 295.535 338.173 296.124 337.097 296.559C336.022 296.995 334.831 297.199 333.538 297.199C332.321 297.199 331.182 297.033 330.119 296.713C329.056 296.393 328.121 295.893 327.328 295.228C326.534 294.562 325.906 293.704 325.445 292.667C324.972 291.63 324.741 290.388 324.741 288.941ZM338.583 288.428C338.583 287.43 338.467 286.533 338.211 285.752C337.968 284.959 337.622 284.28 337.187 283.729C336.752 283.179 336.214 282.743 335.586 282.436C334.959 282.129 334.28 281.988 333.538 281.988C332.757 281.988 332.065 282.18 331.438 282.564C330.823 282.948 330.285 283.46 329.85 284.101C329.415 284.754 329.082 285.509 328.864 286.38C328.646 287.25 328.531 288.172 328.531 289.158C328.531 290.388 328.659 291.425 328.915 292.27C329.171 293.115 329.53 293.794 329.978 294.318C330.426 294.831 330.938 295.215 331.527 295.445C332.116 295.676 332.731 295.791 333.384 295.791C334.075 295.791 334.728 295.65 335.369 295.356C336.009 295.061 336.559 294.626 337.02 294.024C337.494 293.422 337.866 292.654 338.147 291.732C338.442 290.797 338.583 289.696 338.583 288.428Z" fill="white"/>
<path d="M351.72 286.406C351.476 288.173 351.297 289.927 351.169 291.668C351.041 293.41 350.926 295.164 350.798 296.918C350.631 296.88 350.439 296.854 350.26 296.829C350.068 296.803 349.889 296.79 349.722 296.79C349.543 296.79 349.364 296.803 349.185 296.829C349.005 296.854 348.826 296.88 348.634 296.918C349.12 294.242 349.569 291.579 349.953 288.941C350.35 286.303 350.708 283.653 351.016 280.964C351.182 280.99 351.348 281.015 351.489 281.041C351.63 281.066 351.797 281.079 351.963 281.079C352.232 281.079 352.539 281.041 352.885 280.964C353.295 281.886 353.73 282.821 354.191 283.781C354.639 284.741 355.1 285.689 355.548 286.636C355.996 287.584 356.457 288.506 356.906 289.415C357.354 290.324 357.802 291.182 358.224 292.001C359.133 290.286 360.055 288.467 360.977 286.572C361.899 284.677 362.77 282.808 363.602 280.951C363.961 281.028 364.294 281.066 364.601 281.066C364.895 281.066 365.216 281.028 365.561 280.951C365.702 282.27 365.869 283.691 366.035 285.228C366.202 286.764 366.381 288.25 366.56 289.697C366.739 291.143 366.919 292.501 367.072 293.768C367.239 295.036 367.392 296.073 367.533 296.893C367.226 296.854 366.919 296.829 366.598 296.803C366.278 296.777 365.971 296.765 365.651 296.765C365.356 296.765 365.036 296.777 364.716 296.803C364.396 296.829 364.076 296.854 363.743 296.893C363.666 295.266 363.525 293.525 363.359 291.668C363.18 289.812 363 287.981 362.821 286.175H362.783C361.899 287.981 361.029 289.773 360.183 291.54C359.338 293.307 358.493 295.1 357.661 296.893C357.584 296.867 357.507 296.854 357.443 296.841C357.379 296.841 357.302 296.841 357.226 296.841C357.149 296.841 357.072 296.841 357.008 296.841C356.944 296.841 356.867 296.867 356.79 296.893C355.958 295.138 355.126 293.384 354.306 291.643C353.487 289.901 352.629 288.147 351.758 286.38H351.72V286.406Z" fill="white"/>
<path d="M369.159 288.941C369.159 287.801 369.377 286.726 369.8 285.727C370.222 284.715 370.824 283.845 371.592 283.089C372.36 282.334 373.295 281.745 374.383 281.309C375.485 280.874 376.701 280.656 378.033 280.656C379.249 280.656 380.389 280.823 381.464 281.168C382.54 281.514 383.462 282.026 384.243 282.705C385.024 283.384 385.651 284.241 386.099 285.279C386.56 286.316 386.791 287.532 386.791 288.915C386.791 290.042 386.573 291.117 386.125 292.129C385.677 293.14 385.075 294.024 384.294 294.779C383.526 295.535 382.591 296.124 381.516 296.559C380.44 296.995 379.249 297.199 377.956 297.199C376.74 297.199 375.6 297.033 374.537 296.713C373.474 296.393 372.54 295.893 371.746 295.228C370.952 294.562 370.325 293.704 369.864 292.667C369.39 291.63 369.159 290.388 369.159 288.941ZM383.001 288.428C383.001 287.43 382.886 286.533 382.629 285.752C382.386 284.959 382.04 284.28 381.605 283.729C381.17 283.179 380.632 282.743 380.005 282.436C379.377 282.129 378.699 281.988 377.956 281.988C377.175 281.988 376.483 282.18 375.856 282.564C375.241 282.948 374.704 283.46 374.268 284.101C373.833 284.754 373.5 285.509 373.282 286.38C373.065 287.25 372.949 288.172 372.949 289.158C372.949 290.388 373.077 291.425 373.334 292.27C373.59 293.115 373.948 293.794 374.396 294.318C374.844 294.831 375.357 295.215 375.946 295.445C376.535 295.676 377.149 295.791 377.802 295.791C378.494 295.791 379.147 295.65 379.787 295.356C380.414 295.061 380.978 294.626 381.439 294.024C381.912 293.422 382.284 292.654 382.565 291.732C382.86 290.797 383.001 289.696 383.001 288.428Z" fill="white"/>
<path d="M393.296 289.568H393.078V290.516C393.078 291.156 393.078 291.758 393.091 292.309C393.103 292.859 393.116 293.397 393.129 293.922C393.142 294.447 393.167 294.946 393.193 295.42C393.219 295.894 393.244 296.393 393.27 296.918C393.014 296.88 392.719 296.854 392.412 296.828C392.105 296.803 391.759 296.79 391.375 296.79C390.991 296.79 390.632 296.803 390.325 296.828C390.018 296.854 389.736 296.88 389.467 296.918C389.493 296.406 389.518 295.907 389.544 295.42C389.569 294.946 389.582 294.434 389.595 293.922C389.608 293.397 389.621 292.872 389.634 292.309C389.646 291.758 389.646 291.156 389.646 290.516V287.366C389.646 286.713 389.646 286.111 389.634 285.561C389.621 285.01 389.608 284.472 389.595 283.96C389.582 283.448 389.569 282.949 389.544 282.462C389.518 281.975 389.493 281.476 389.467 280.964C389.723 280.989 390.018 281.015 390.325 281.041C390.632 281.066 390.978 281.079 391.375 281.079C391.785 281.079 392.258 281.066 392.783 281.028C393.321 280.989 393.974 280.977 394.755 280.977C395.344 280.977 395.844 280.989 396.266 281.015C396.689 281.041 397.034 281.092 397.342 281.156C397.636 281.22 397.905 281.297 398.136 281.399C398.366 281.502 398.571 281.617 398.776 281.771C399.237 282.103 399.608 282.526 399.864 283.025C400.133 283.525 400.261 284.127 400.261 284.818C400.261 285.945 399.954 286.854 399.339 287.558C398.725 288.262 397.841 288.762 396.689 289.056C397.419 290.362 398.212 291.668 399.057 292.974C399.903 294.293 400.748 295.599 401.593 296.918C401.234 296.88 400.901 296.854 400.556 296.828C400.223 296.803 399.877 296.79 399.518 296.79C399.16 296.79 398.814 296.803 398.468 296.828C398.123 296.854 397.764 296.88 397.419 296.918L393.296 289.568ZM396.727 285.305C396.727 284.639 396.663 284.101 396.522 283.691C396.381 283.294 396.177 282.987 395.882 282.769C395.588 282.564 395.216 282.424 394.755 282.372C394.294 282.308 393.756 282.283 393.129 282.283C393.078 284.383 393.065 286.47 393.065 288.557C393.167 288.57 393.257 288.582 393.334 288.595C393.411 288.595 393.5 288.595 393.577 288.595C394.589 288.595 395.37 288.314 395.908 287.763C396.458 287.225 396.727 286.406 396.727 285.305Z" fill="white"/>
<path d="M402.515 288.941C402.515 287.801 402.732 286.726 403.155 285.727C403.577 284.715 404.179 283.845 404.948 283.089C405.716 282.334 406.65 281.745 407.739 281.309C408.84 280.874 410.056 280.656 411.388 280.656C412.604 280.656 413.744 280.823 414.82 281.168C415.895 281.514 416.817 282.026 417.598 282.705C418.379 283.384 419.007 284.241 419.455 285.279C419.916 286.316 420.146 287.532 420.146 288.915C420.146 290.042 419.929 291.117 419.48 292.129C419.032 293.14 418.43 294.024 417.649 294.779C416.881 295.535 415.946 296.124 414.871 296.559C413.795 296.995 412.604 297.199 411.311 297.199C410.095 297.199 408.955 297.033 407.892 296.713C406.83 296.393 405.895 295.893 405.101 295.228C404.307 294.562 403.68 293.704 403.219 292.667C402.745 291.63 402.515 290.388 402.515 288.941ZM416.343 288.428C416.343 287.43 416.228 286.533 415.972 285.752C415.729 284.959 415.383 284.28 414.948 283.729C414.512 283.179 413.975 282.743 413.347 282.436C412.72 282.129 412.041 281.988 411.298 281.988C410.517 281.988 409.826 282.18 409.198 282.564C408.584 282.948 408.046 283.46 407.611 284.101C407.175 284.754 406.843 285.509 406.625 286.38C406.407 287.25 406.292 288.172 406.292 289.158C406.292 290.388 406.42 291.425 406.676 292.27C406.932 293.115 407.291 293.794 407.739 294.318C408.187 294.831 408.699 295.215 409.288 295.445C409.877 295.676 410.492 295.791 411.145 295.791C411.836 295.791 412.489 295.65 413.129 295.356C413.77 295.061 414.32 294.626 414.781 294.024C415.255 293.422 415.626 292.654 415.908 291.732C416.203 290.797 416.343 289.696 416.343 288.428Z" fill="white"/>
<path d="M435.499 294.229C435.383 294.562 435.281 294.882 435.191 295.215C435.102 295.547 435.038 295.868 434.999 296.201C434.385 296.521 433.68 296.764 432.899 296.943C432.118 297.122 431.248 297.212 430.287 297.212C428.943 297.212 427.752 297.02 426.702 296.623C425.652 296.226 424.756 295.688 424.026 294.997C423.296 294.305 422.733 293.486 422.336 292.551C421.952 291.617 421.747 290.592 421.747 289.504C421.747 287.916 422.003 286.572 422.502 285.445C423.014 284.318 423.68 283.409 424.513 282.705C425.345 282 426.318 281.488 427.419 281.168C428.533 280.848 429.698 280.682 430.915 280.682C431.312 280.682 431.734 280.707 432.182 280.771C432.63 280.835 433.066 280.912 433.476 281.027C433.885 281.13 434.282 281.258 434.666 281.399C435.05 281.54 435.371 281.68 435.627 281.834C435.473 282.218 435.358 282.602 435.268 282.999C435.191 283.396 435.127 283.793 435.076 284.203H434.782C434.193 283.473 433.591 282.948 432.976 282.615C432.362 282.295 431.632 282.129 430.787 282.129C430.185 282.129 429.57 282.269 428.943 282.538C428.315 282.82 427.752 283.243 427.24 283.819C426.728 284.395 426.318 285.125 425.998 286.008C425.69 286.892 425.524 287.955 425.524 289.171C425.524 290.362 425.691 291.373 426.011 292.218C426.331 293.063 426.753 293.742 427.265 294.267C427.778 294.792 428.367 295.176 429.02 295.432C429.673 295.676 430.339 295.804 430.992 295.804C431.35 295.804 431.721 295.765 432.118 295.676C432.502 295.586 432.887 295.471 433.258 295.33C433.629 295.189 433.988 294.997 434.321 294.792C434.654 294.574 434.948 294.331 435.191 294.075L435.499 294.229Z" fill="white"/>
<path d="M450.902 294.229C450.787 294.562 450.684 294.882 450.595 295.215C450.505 295.547 450.441 295.868 450.403 296.201C449.788 296.521 449.084 296.764 448.303 296.943C447.522 297.122 446.651 297.212 445.691 297.212C444.346 297.212 443.155 297.02 442.106 296.623C441.056 296.226 440.159 295.688 439.429 294.997C438.7 294.305 438.136 293.486 437.739 292.551C437.355 291.617 437.15 290.592 437.15 289.504C437.15 287.916 437.406 286.572 437.906 285.445C438.418 284.318 439.084 283.409 439.916 282.705C440.748 282 441.721 281.488 442.823 281.168C443.937 280.848 445.102 280.682 446.318 280.682C446.715 280.682 447.138 280.707 447.586 280.771C448.034 280.835 448.469 280.912 448.879 281.027C449.289 281.13 449.686 281.258 450.07 281.399C450.454 281.54 450.774 281.68 451.03 281.834C450.877 282.218 450.761 282.602 450.672 282.999C450.595 283.396 450.531 283.793 450.48 284.203H450.185C449.596 283.473 448.994 282.948 448.38 282.615C447.765 282.295 447.035 282.129 446.19 282.129C445.588 282.129 444.974 282.269 444.346 282.538C443.719 282.82 443.155 283.243 442.643 283.819C442.131 284.395 441.721 285.125 441.401 286.008C441.094 286.892 440.928 287.955 440.928 289.171C440.928 290.362 441.094 291.373 441.414 292.218C441.734 293.063 442.157 293.742 442.669 294.267C443.181 294.792 443.77 295.176 444.423 295.432C445.076 295.676 445.742 295.804 446.395 295.804C446.754 295.804 447.125 295.765 447.522 295.676C447.906 295.586 448.29 295.471 448.661 295.33C449.033 295.189 449.391 294.997 449.724 294.792C450.057 294.574 450.352 294.331 450.595 294.075L450.902 294.229Z" fill="white"/>
<path d="M452.58 288.941C452.58 287.801 452.797 286.726 453.22 285.727C453.642 284.715 454.244 283.845 455.012 283.089C455.781 282.334 456.715 281.745 457.804 281.309C458.905 280.874 460.121 280.656 461.453 280.656C462.669 280.656 463.809 280.823 464.885 281.168C465.96 281.514 466.882 282.026 467.663 282.705C468.444 283.384 469.072 284.241 469.52 285.279C469.981 286.316 470.211 287.532 470.211 288.915C470.211 290.042 469.993 291.117 469.545 292.129C469.097 293.14 468.495 294.024 467.714 294.779C466.946 295.535 466.011 296.124 464.936 296.559C463.86 296.995 462.669 297.199 461.376 297.199C460.16 297.199 459.02 297.033 457.957 296.713C456.895 296.393 455.96 295.893 455.166 295.228C454.372 294.562 453.745 293.704 453.284 292.667C452.81 291.63 452.58 290.388 452.58 288.941ZM466.408 288.428C466.408 287.43 466.293 286.533 466.037 285.752C465.794 284.959 465.448 284.28 465.013 283.729C464.577 283.179 464.04 282.743 463.412 282.436C462.785 282.129 462.106 281.988 461.363 281.988C460.582 281.988 459.891 282.18 459.263 282.564C458.649 282.948 458.111 283.46 457.676 284.101C457.24 284.754 456.907 285.509 456.69 286.38C456.472 287.25 456.357 288.172 456.357 289.158C456.357 290.388 456.485 291.425 456.741 292.27C456.997 293.115 457.356 293.794 457.804 294.318C458.252 294.831 458.764 295.215 459.353 295.445C459.942 295.676 460.557 295.791 461.21 295.791C461.901 295.791 462.554 295.65 463.194 295.356C463.835 295.061 464.385 294.626 464.846 294.024C465.32 293.422 465.691 292.654 465.973 291.732C466.267 290.797 466.408 289.696 466.408 288.428Z" fill="white"/>
</g>
<defs>
<filter id="filter0_d_2412_474" x="0" y="0" width="547.548" height="348.618" filterUnits="userSpaceOnUse" color-interpolation-filters="sRGB">
<feFlood flood-opacity="0" result="BackgroundImageFix"/>
<feColorMatrix in="SourceAlpha" type="matrix" values="0 0 0 0 0 0 0 0 0 0 0 0 0 0 0 0 0 0 127 0" result="hardAlpha"/>
<feOffset dx="14" dy="14"/>
<feGaussianBlur stdDeviation="17"/>
<feComposite in2="hardAlpha" operator="out"/>
<feColorMatrix type="matrix" values="0 0 0 0 0 0 0 0 0 0 0 0 0 0 0 0 0 0 0.65 0"/>
<feBlend mode="normal" in2="BackgroundImageFix" result="effect1_dropShadow_2412_474"/>
<feBlend mode="normal" in="SourceGraphic" in2="effect1_dropShadow_2412_474" result="shape"/>
</filter>
</defs>
</svg>
