<svg width="18" height="19" viewBox="0 0 18 19" fill="none" xmlns="http://www.w3.org/2000/svg">
<g clip-path="url(#clip0_2128_2475)">
<path d="M9 0.0449219C4.02948 0.0449219 0 4.0744 0 9.04492C0 13.2656 2.90592 16.8072 6.82596 17.78V11.7953H4.97016V9.04492H6.82596V7.8598C6.82596 4.79656 8.21232 3.37672 11.2198 3.37672C11.79 3.37672 12.7739 3.48868 13.1764 3.60028V6.09328C12.964 6.07096 12.595 6.0598 12.1367 6.0598C10.661 6.0598 10.0908 6.61888 10.0908 8.0722V9.04492H13.0306L12.5255 11.7953H10.0908V17.979C14.5472 17.4408 18.0004 13.6464 18.0004 9.04492C18 4.0744 13.9705 0.0449219 9 0.0449219Z" fill="white"/>
</g>
<defs>
<clipPath id="clip0_2128_2475">
<rect width="18" height="18" fill="white" transform="translate(0 0.0449219)"/>
</clipPath>
</defs>
</svg>
