<svg width="157" height="27" viewBox="0 0 157 27" fill="none" xmlns="http://www.w3.org/2000/svg">
<path d="M8.23125 26.3286C6.84774 26.3286 5.54562 26.0845 4.36557 25.5555C3.18551 25.0265 2.24961 24.2127 1.55786 23.0733C0.866103 21.934 0.499878 20.4284 0.499878 18.5159V8.34303C0.499878 6.47122 0.866103 4.92495 1.55786 3.78559C2.24961 2.64623 3.18551 1.8324 4.36557 1.30341C5.54562 0.77442 6.84774 0.530273 8.23125 0.530273C9.81822 0.530273 11.2424 0.815114 12.3818 1.3441C13.5618 1.87309 14.457 2.64623 15.1488 3.58213C15.7999 4.51804 16.1254 5.6167 16.1254 6.83745C16.1254 7.61059 15.9626 8.13957 15.6778 8.38372C15.3929 8.62787 14.9046 8.74994 14.2943 8.74994C13.7246 8.74994 13.277 8.66856 12.9515 8.46511C12.6259 8.26165 12.4632 7.97681 12.4225 7.5292C12.3818 7.24436 12.3411 6.87814 12.2597 6.43053C12.1783 6.02362 11.9749 5.6167 11.7307 5.1691C11.4459 4.76218 11.0797 4.43665 10.51 4.15181C9.98099 3.86697 9.24853 3.7449 8.31263 3.7449C6.96981 3.7449 5.91184 4.11112 5.22009 4.84357C4.48764 5.57601 4.12141 6.71537 4.12141 8.26165V18.4345C4.12141 19.9808 4.48764 21.1201 5.22009 21.8526C5.95254 22.585 7.01051 22.9513 8.39402 22.9513C9.28923 22.9513 9.98099 22.8292 10.51 22.5443C11.039 22.2595 11.4052 21.934 11.69 21.5271C11.9342 21.1201 12.1376 20.6725 12.219 20.2249C12.3004 19.7773 12.3818 19.3704 12.4225 18.9635C12.4632 18.5159 12.6259 18.1904 12.9515 18.0276C13.277 17.8241 13.7246 17.7428 14.2129 17.7428C14.864 17.7428 15.3523 17.8648 15.6371 18.109C15.9219 18.3531 16.0847 18.8821 16.0847 19.6553C16.0847 20.9167 15.7592 22.0561 15.1081 23.0326C14.457 24.0092 13.5211 24.7824 12.3411 25.3521C11.2424 26.0438 9.81822 26.3286 8.23125 26.3286Z" fill="#F5B400"/>
<path d="M21.4555 26.1252C21.0079 26.1252 20.5603 26.0438 20.1941 25.8404C19.8278 25.6369 19.6244 25.3521 19.6244 24.9045V1.71032C19.6244 1.30341 19.8278 0.977878 20.1941 0.815112C20.5603 0.611655 21.0079 0.530273 21.4555 0.530273C21.9031 0.530273 22.3507 0.611655 22.7169 0.815112C23.0832 1.01857 23.2866 1.30341 23.2866 1.71032V11.3542H31.9946V1.71032C31.9946 1.30341 32.198 0.977878 32.5643 0.815112C32.9305 0.611655 33.3781 0.530273 33.8257 0.530273C34.2733 0.530273 34.7209 0.611655 35.0871 0.815112C35.4534 1.01857 35.6568 1.30341 35.6568 1.71032V24.8638C35.6568 25.2707 35.4534 25.5962 35.0871 25.7997C34.7209 26.0031 34.2733 26.0845 33.8257 26.0845C33.3781 26.0845 32.9305 26.0031 32.5643 25.7997C32.198 25.5962 31.9946 25.3114 31.9946 24.8638V14.284H23.3273V24.8638C23.3273 25.2707 23.1238 25.5962 22.7576 25.7997C22.3507 26.0031 21.9438 26.1252 21.4555 26.1252Z" fill="#F5B400"/>
<path d="M41.9214 26.1252C41.5144 26.1252 41.1482 26.0031 40.8227 25.7997C40.4565 25.5962 40.2937 25.2707 40.2937 24.9045V1.75102C40.2937 1.3441 40.4565 1.05926 40.8227 0.855803C41.1889 0.652346 41.5551 0.530273 41.9214 0.530273H54.3323C54.7799 0.530273 55.1054 0.693037 55.2682 1.05926C55.4716 1.42548 55.553 1.79171 55.553 2.15793C55.553 2.60554 55.4309 3.01245 55.2275 3.33798C55.024 3.66351 54.6985 3.82628 54.3323 3.82628H43.9966V11.8425H49.3679C49.7748 11.8425 50.0597 12.0053 50.2631 12.2901C50.4666 12.5749 50.5886 12.9412 50.5886 13.3481C50.5886 13.6736 50.5073 13.9991 50.3038 14.3247C50.1003 14.6502 49.8155 14.813 49.3679 14.813H43.9966V22.8699H54.3323C54.7392 22.8699 55.024 23.0326 55.2275 23.3582C55.4309 23.6837 55.553 24.0906 55.553 24.5382C55.553 24.9045 55.4716 25.2707 55.2682 25.6369C55.0647 26.0031 54.7799 26.1659 54.3323 26.1659H41.9214V26.1252Z" fill="#F5B400"/>
<path d="M60.3146 26.1252C59.867 26.1252 59.4194 26.0031 59.0532 25.7997C58.687 25.5962 58.4835 25.2707 58.4835 24.9045V1.75102C58.4835 1.30341 58.687 0.977878 59.0532 0.815112C59.4194 0.611655 59.867 0.530273 60.3146 0.530273C60.7622 0.530273 61.1285 0.611656 61.454 0.733731C61.7795 0.855805 62.0644 1.05926 62.3085 1.38479C62.5527 1.66963 62.8375 2.11724 63.1223 2.64623L70.8537 17.7835V1.71032C70.8537 1.30341 71.0572 0.977878 71.4234 0.815112C71.7896 0.611655 72.2372 0.530273 72.6848 0.530273C73.1324 0.530273 73.5801 0.611655 73.9463 0.815112C74.3125 1.01857 74.516 1.30341 74.516 1.71032V24.8638C74.516 25.2707 74.3125 25.5555 73.9463 25.759C73.5801 25.9624 73.1324 26.0845 72.6848 26.0845C72.2372 26.0845 71.7896 25.9624 71.4234 25.7183C71.0572 25.4741 70.7316 25.1486 70.4875 24.701L62.1458 8.79064V24.8638C62.1458 25.2707 61.9423 25.5555 61.5761 25.759C61.2099 26.0031 60.8029 26.1252 60.3146 26.1252Z" fill="#F5B400"/>
<path d="M86.682 26.3286C85.2171 26.3286 83.915 26.0845 82.7349 25.5555C81.5549 25.0265 80.619 24.2127 79.9272 23.0733C79.2354 21.934 78.9099 20.4284 78.9099 18.5159V8.34303C78.9099 6.47122 79.2354 4.92495 79.9272 3.78559C80.619 2.64623 81.5549 1.8324 82.7349 1.30341C83.915 0.77442 85.2578 0.530273 86.7227 0.530273C88.1876 0.530273 89.5304 0.77442 90.7104 1.30341C91.8905 1.8324 92.8264 2.64623 93.5182 3.78559C94.2099 4.92495 94.5761 6.43053 94.5761 8.34303V18.5159C94.5761 20.3877 94.2099 21.934 93.5182 23.0733C92.8264 24.2127 91.8905 25.0265 90.7104 25.5555C89.4897 26.0438 88.1876 26.3286 86.682 26.3286ZM86.682 23.0326C87.9841 23.0326 89.0014 22.6664 89.7339 21.934C90.4663 21.2015 90.8325 20.0622 90.8325 18.5159V8.34303C90.8325 6.79676 90.4663 5.65739 89.7339 4.92495C89.0014 4.1925 87.9841 3.82628 86.682 3.82628C85.3799 3.82628 84.3626 4.1925 83.6301 4.92495C82.8977 5.65739 82.5315 6.79676 82.5315 8.34303V18.5159C82.5315 20.0622 82.8977 21.2015 83.6301 21.934C84.3626 22.6664 85.3799 23.0326 86.682 23.0326Z" fill="#F5B400"/>
<path d="M106.337 26.3286C104.954 26.3286 103.652 26.0845 102.472 25.5555C101.291 25.0265 100.356 24.2127 99.6638 23.0733C98.972 21.934 98.6058 20.4284 98.6058 18.5159V8.34303C98.6058 6.47122 98.972 4.92495 99.6638 3.78559C100.356 2.64623 101.291 1.8324 102.472 1.30341C103.652 0.77442 104.954 0.530273 106.337 0.530273C107.924 0.530273 109.348 0.815114 110.488 1.3441C111.668 1.87309 112.563 2.64623 113.255 3.58213C113.906 4.51804 114.231 5.6167 114.231 6.83745C114.231 7.61059 114.069 8.13957 113.784 8.38372C113.499 8.62787 113.011 8.74994 112.4 8.74994C111.831 8.74994 111.383 8.66856 111.057 8.46511C110.732 8.26165 110.569 7.97681 110.528 7.5292C110.488 7.24436 110.447 6.87814 110.366 6.43053C110.284 6.02362 110.081 5.6167 109.837 5.1691C109.552 4.76218 109.186 4.43665 108.616 4.15181C108.087 3.86697 107.355 3.7449 106.419 3.7449C105.076 3.7449 104.018 4.11112 103.326 4.84357C102.594 5.57601 102.227 6.71537 102.227 8.26165V18.4345C102.227 19.9808 102.594 21.1201 103.326 21.8526C104.058 22.585 105.116 22.9513 106.5 22.9513C107.395 22.9513 108.087 22.8292 108.616 22.5443C109.145 22.2595 109.511 21.934 109.796 21.5271C110.04 21.1201 110.244 20.6725 110.325 20.2249C110.406 19.7773 110.488 19.3704 110.528 18.9635C110.569 18.5159 110.732 18.1904 111.057 18.0276C111.383 17.8241 111.831 17.7428 112.319 17.7428C112.97 17.7428 113.458 17.8648 113.743 18.109C114.028 18.3531 114.191 18.8821 114.191 19.6553C114.191 20.9167 113.865 22.0561 113.214 23.0326C112.563 24.0092 111.627 24.7824 110.447 25.3521C109.348 26.0438 107.965 26.3286 106.337 26.3286Z" fill="white"/>
<path d="M125.258 26.3286C123.793 26.3286 122.491 26.0845 121.311 25.5555C120.131 25.0265 119.195 24.2127 118.503 23.0733C117.811 21.934 117.486 20.4284 117.486 18.5159V8.34303C117.486 6.47122 117.811 4.92495 118.503 3.78559C119.195 2.64623 120.131 1.8324 121.311 1.30341C122.491 0.77442 123.834 0.530273 125.298 0.530273C126.763 0.530273 128.106 0.77442 129.286 1.30341C130.466 1.8324 131.402 2.64623 132.094 3.78559C132.786 4.92495 133.152 6.43053 133.152 8.34303V18.5159C133.152 20.3877 132.786 21.934 132.094 23.0733C131.402 24.2127 130.466 25.0265 129.286 25.5555C128.106 26.0438 126.763 26.3286 125.258 26.3286ZM125.258 23.0326C126.56 23.0326 127.577 22.6664 128.31 21.934C129.042 21.2015 129.408 20.0622 129.408 18.5159V8.34303C129.408 6.79676 129.042 5.65739 128.31 4.92495C127.577 4.1925 126.56 3.82628 125.258 3.82628C123.956 3.82628 122.938 4.1925 122.206 4.92495C121.473 5.65739 121.107 6.79676 121.107 8.34303V18.5159C121.107 20.0622 121.473 21.2015 122.206 21.934C122.938 22.6664 123.956 23.0326 125.258 23.0326Z" fill="white"/>
<path d="M139.297 26.1239C138.849 26.1239 138.402 26.0018 138.035 25.7984C137.669 25.5949 137.466 25.2694 137.466 24.9032V2.36009C137.466 1.66834 137.669 1.18004 138.035 0.895196C138.402 0.610356 138.849 0.488281 139.297 0.488281C139.745 0.488281 140.111 0.569664 140.436 0.691739C140.762 0.813813 141.047 1.01727 141.332 1.3428C141.616 1.66834 141.901 2.07525 142.186 2.60424L147.069 11.8819L152.033 2.60424C152.318 2.07525 152.603 1.62764 152.888 1.3428C153.173 1.05796 153.458 0.813813 153.783 0.691739C154.109 0.569664 154.475 0.488281 154.922 0.488281C155.411 0.488281 155.858 0.610356 156.225 0.895196C156.591 1.18004 156.794 1.62764 156.794 2.36009V24.8625C156.794 25.2694 156.591 25.5542 156.225 25.7577C155.858 25.9611 155.411 26.0832 154.963 26.0832C154.516 26.0832 154.068 25.9611 153.702 25.7577C153.335 25.5542 153.132 25.2287 153.132 24.8625V8.09759L148.453 16.7649C148.249 17.0497 148.046 17.2939 147.842 17.4159C147.598 17.538 147.354 17.6194 147.11 17.6194C146.906 17.6194 146.662 17.5787 146.459 17.4566C146.214 17.3345 146.011 17.1311 145.848 16.8056L141.169 7.93482V24.9438C141.169 25.3508 140.965 25.6356 140.599 25.8391C140.192 26.0018 139.785 26.1239 139.297 26.1239Z" fill="white"/>
</svg>
