<svg width="71" height="71" viewBox="0 0 71 71" fill="none" xmlns="http://www.w3.org/2000/svg">
<rect x="2.01636" y="2.47852" width="67.2656" height="65.625" rx="5.46875" fill="#F5B400"/>
<path fill-rule="evenodd" clip-rule="evenodd" d="M26.8104 38.0272H35.282C33.8237 33.1053 32.3874 28.5554 30.9743 23.931C29.6031 28.5718 28.212 33.1053 26.8104 38.0272ZM68.7835 0.839844H1.96397C0.759181 0.839844 0.931688 1.10016 0.931688 2.25351V68.6406C0.931688 69.7929 0.759181 69.7458 1.8791 69.7458H68.8684C69.9878 69.7458 70.3752 69.7929 70.3752 68.64V2.33773C70.3752 1.10016 69.9883 0.839844 68.7835 0.839844ZM42.9825 52.7928C42.0803 52.7928 41.1748 52.72 40.277 52.784C39.6294 52.8321 39.4128 52.562 39.2403 52.0042C38.4059 49.3075 37.5191 46.612 36.6841 43.9159C36.516 43.3734 36.2757 43.1755 35.6832 43.1826C32.6393 43.2176 29.5937 43.2143 26.5492 43.1787C25.9082 43.1711 25.6134 43.3406 25.4304 43.9717C24.6555 46.6536 23.8078 49.3136 23.0247 51.9927C22.8549 52.5735 22.597 52.7764 21.9753 52.7605C20.1466 52.7151 18.3152 52.743 16.3129 52.743C16.8414 51.0778 17.3209 49.5378 17.8169 48.0043C20.8559 38.5981 23.9054 29.1919 26.9223 19.7797C27.1329 19.1245 27.4255 18.9227 28.1034 18.9375C30.2451 18.9845 32.3885 18.9495 34.5313 18.9375C34.932 18.9348 35.2054 18.9583 35.352 19.41C38.9371 30.4109 42.535 41.4796 46.1295 52.4794C46.145 52.5292 46.135 52.7928 46.1433 52.7928H42.9825ZM54.3922 52.7928H47.7785V28.1835H54.3922V52.7928ZM50.8925 24.8634C48.8725 24.8607 47.4263 23.4809 47.4126 21.5439C47.3993 19.6123 48.9045 18.1757 50.9432 18.1735C52.9978 18.1713 54.4457 19.5609 54.4616 21.5483C54.476 23.4869 52.9918 24.8667 50.8925 24.8634Z" fill="#330000"/>
</svg>
