<svg width="18" height="19" viewBox="0 0 18 19" fill="none" xmlns="http://www.w3.org/2000/svg">
<g clip-path="url(#clip0_2128_2471)">
<path d="M9 1.66562C11.4047 1.66562 11.6895 1.67617 12.6352 1.71836C13.5141 1.75703 13.9887 1.90469 14.3051 2.02773C14.7234 2.18945 15.0258 2.38633 15.3387 2.69922C15.6551 3.01562 15.8484 3.31445 16.0102 3.73281C16.1332 4.04922 16.2809 4.52734 16.3195 5.40273C16.3617 6.35195 16.3723 6.63672 16.3723 9.03789C16.3723 11.4426 16.3617 11.7273 16.3195 12.673C16.2809 13.552 16.1332 14.0266 16.0102 14.343C15.8484 14.7613 15.6516 15.0637 15.3387 15.3766C15.0223 15.693 14.7234 15.8863 14.3051 16.048C13.9887 16.1711 13.5105 16.3187 12.6352 16.3574C11.6859 16.3996 11.4012 16.4102 9 16.4102C6.59531 16.4102 6.31055 16.3996 5.36484 16.3574C4.48594 16.3187 4.01133 16.1711 3.69492 16.048C3.27656 15.8863 2.97422 15.6895 2.66133 15.3766C2.34492 15.0602 2.15156 14.7613 1.98984 14.343C1.8668 14.0266 1.71914 13.5484 1.68047 12.673C1.63828 11.7238 1.62773 11.4391 1.62773 9.03789C1.62773 6.6332 1.63828 6.34844 1.68047 5.40273C1.71914 4.52383 1.8668 4.04922 1.98984 3.73281C2.15156 3.31445 2.34844 3.01211 2.66133 2.69922C2.97773 2.38281 3.27656 2.18945 3.69492 2.02773C4.01133 1.90469 4.48945 1.75703 5.36484 1.71836C6.31055 1.67617 6.59531 1.66562 9 1.66562ZM9 0.0449219C6.55664 0.0449219 6.25078 0.0554687 5.29102 0.0976562C4.33477 0.139844 3.67734 0.294531 3.10781 0.516016C2.51367 0.748047 2.01094 1.05391 1.51172 1.55664C1.00898 2.05586 0.703125 2.55859 0.471094 3.14922C0.249609 3.72227 0.0949219 4.37617 0.0527344 5.33242C0.0105469 6.2957 0 6.60156 0 9.04492C0 11.4883 0.0105469 11.7941 0.0527344 12.7539C0.0949219 13.7102 0.249609 14.3676 0.471094 14.9371C0.703125 15.5312 1.00898 16.034 1.51172 16.5332C2.01094 17.0324 2.51367 17.3418 3.1043 17.5703C3.67734 17.7918 4.33125 17.9465 5.2875 17.9887C6.24727 18.0309 6.55312 18.0414 8.99648 18.0414C11.4398 18.0414 11.7457 18.0309 12.7055 17.9887C13.6617 17.9465 14.3191 17.7918 14.8887 17.5703C15.4793 17.3418 15.982 17.0324 16.4813 16.5332C16.9805 16.034 17.2898 15.5312 17.5184 14.9406C17.7398 14.3676 17.8945 13.7137 17.9367 12.7574C17.9789 11.7977 17.9895 11.4918 17.9895 9.04844C17.9895 6.60508 17.9789 6.29922 17.9367 5.33945C17.8945 4.3832 17.7398 3.72578 17.5184 3.15625C17.2969 2.55859 16.991 2.05586 16.4883 1.55664C15.9891 1.05742 15.4863 0.748047 14.8957 0.519531C14.3227 0.298047 13.6688 0.143359 12.7125 0.101172C11.7492 0.0554688 11.4434 0.0449219 9 0.0449219Z" fill="white"/>
<path d="M9 4.42188C6.44766 4.42188 4.37695 6.49258 4.37695 9.04492C4.37695 11.5973 6.44766 13.668 9 13.668C11.5523 13.668 13.623 11.5973 13.623 9.04492C13.623 6.49258 11.5523 4.42188 9 4.42188ZM9 12.0437C7.34414 12.0437 6.00117 10.7008 6.00117 9.04492C6.00117 7.38906 7.34414 6.04609 9 6.04609C10.6559 6.04609 11.9988 7.38906 11.9988 9.04492C11.9988 10.7008 10.6559 12.0437 9 12.0437Z" fill="white"/>
<path d="M14.8852 4.23945C14.8852 4.83711 14.4 5.31875 13.8059 5.31875C13.2082 5.31875 12.7266 4.8336 12.7266 4.23945C12.7266 3.6418 13.2117 3.16016 13.8059 3.16016C14.4 3.16016 14.8852 3.64531 14.8852 4.23945Z" fill="white"/>
</g>
<defs>
<clipPath id="clip0_2128_2471">
<rect width="18" height="18" fill="white" transform="translate(0 0.0449219)"/>
</clipPath>
</defs>
</svg>
