<svg width="70" height="70" viewBox="0 0 70 70" fill="none" xmlns="http://www.w3.org/2000/svg">
<path d="M0.77002 0.769531H69.23V69.2301H0.77002V0.769531Z" fill="#F0DB4F"/>
<path d="M63.6272 52.9034C63.1257 49.7802 61.0891 47.1568 55.0565 44.7107C52.9609 43.7476 50.6247 43.058 49.9285 41.4699C49.6813 40.5457 49.6485 40.025 49.8049 39.4656C50.2539 37.65 52.4212 37.0839 54.1389 37.6046C55.2452 37.9753 56.2925 38.8279 56.9241 40.188C59.8783 38.275 59.8723 38.2876 61.9351 36.9729C61.1799 35.8021 60.7769 35.2618 60.2825 34.7608C58.5057 32.7762 56.0847 31.7541 52.2128 31.8323L50.1959 32.0932C48.2633 32.5815 46.4214 33.596 45.3413 34.956C42.1005 38.6332 43.0247 45.0689 46.9683 47.7174C50.8533 50.6333 56.5604 51.2967 57.2894 54.0234C57.9987 57.3615 54.8362 58.4421 51.6927 58.0582C49.3762 57.5764 48.0877 56.399 46.6948 54.258C44.1311 55.7417 44.1311 55.7417 41.4951 57.2576C42.1202 58.6243 42.777 59.2428 43.8248 60.4268C48.7839 65.4569 61.1936 65.2097 63.4194 57.5961C63.5096 57.3347 64.109 55.5913 63.6272 52.9034ZM37.9869 32.2353H31.5836L31.5573 48.7903C31.5573 52.3111 31.7394 55.5388 31.1669 56.5281C30.2301 58.4739 27.8025 58.2327 26.6962 57.8553C25.5701 57.3019 24.9976 56.515 24.3342 55.4026C24.1521 55.0832 24.0154 54.836 23.9694 54.8169L18.7632 58.0052C19.6289 59.782 20.9042 61.3242 22.5377 62.326C24.9779 63.7906 28.2575 64.2396 31.6875 63.4521C33.9198 62.8018 35.8459 61.4549 36.8544 59.4046C38.3123 56.7168 37.9995 53.4634 37.9864 49.865C38.0192 43.9943 37.9869 38.1246 37.9869 32.2353Z" fill="#323330"/>
</svg>
