<svg width="70" height="70" viewBox="0 0 70 70" fill="none" xmlns="http://www.w3.org/2000/svg">
<mask id="mask0_2179_367" style="mask-type:luminance" maskUnits="userSpaceOnUse" x="0" y="0" width="70" height="70">
<path d="M0 0H70V70H0V0Z" fill="white"/>
</mask>
<g mask="url(#mask0_2179_367)">
<path d="M0 4C0 1.79086 1.79086 0 4 0H66C68.2091 0 70 1.79086 70 4V66C70 68.2091 68.2091 70 66 70H4C1.79086 70 0 68.2091 0 66V4Z" fill="white"/>
</g>
<path d="M45.7686 52.3971C47.1141 54.5827 48.5763 56.6768 51.6737 56.6768C54.2755 56.6768 55.6405 55.3839 55.6405 53.5949C55.6405 51.454 54.2287 50.6938 51.3666 49.4475L49.7974 48.7785C45.2687 46.8575 42.2569 44.4503 42.2569 39.3655C42.2569 34.6793 45.8443 31.1133 51.4501 31.1133C55.4421 31.1133 58.3102 32.4957 60.3791 36.1163L55.4908 39.2411C54.4155 37.3199 53.2526 36.5636 51.4501 36.5636C49.6107 36.5636 48.4461 37.7243 48.4461 39.2411C48.4461 41.1154 49.6126 41.8739 52.3056 43.0346L53.8748 43.7036C59.2123 45.9765 62.2224 48.2982 62.2224 53.5171C62.2224 59.1406 57.7812 62.2224 51.8195 62.2224C45.9881 62.2224 42.6768 59.2961 40.8335 55.6735L45.7686 52.3971ZM23.2401 52.5565C24.224 54.3183 25.7194 55.6735 27.8698 55.6735C29.927 55.6735 31.1113 54.8607 31.1113 51.701V31.1113H37.592V52.6967C37.592 59.2435 33.7946 62.2224 28.249 62.2224C23.2382 62.2224 19.6214 58.8274 18.1476 55.6735L23.2401 52.5565Z" fill="#1A1B1E"/>
</svg>
