<svg width="111" height="30" viewBox="0 0 111 30" fill="none" xmlns="http://www.w3.org/2000/svg">
<g clip-path="url(#clip0_2128_2176)">
<g clip-path="url(#clip1_2128_2176)">
<mask id="mask0_2128_2176" style="mask-type:luminance" maskUnits="userSpaceOnUse" x="0" y="2" width="111" height="26">
<path d="M110.17 2.93359H0.169983V27.0662H110.17V2.93359Z" fill="white"/>
</mask>
<g mask="url(#mask0_2128_2176)">
<path d="M96.3257 24.9091C101.047 25.5657 105.891 24.9165 109.96 22.2937C109.976 22.2829 109.995 22.2767 110.015 22.276C110.035 22.275 110.054 22.2795 110.071 22.2891C110.089 22.2984 110.103 22.3125 110.113 22.3293C110.123 22.3463 110.128 22.3658 110.128 22.3854L110.122 24.6266C110.121 24.6864 110.093 24.7289 110.038 24.7538C105.754 26.6507 101.551 27.3466 97.0291 26.9089C91.5198 26.3738 86.1563 23.4929 85.0021 17.6169C84.5494 15.3197 84.6859 12.7287 85.5371 10.5193C87.55 5.2887 93.3288 3.16166 98.4771 2.96336C102.641 2.80435 106.334 3.64993 110.046 5.20078C110.069 5.21015 110.089 5.22639 110.103 5.2474C110.117 5.26841 110.124 5.29321 110.124 5.31863L110.122 7.66081C110.122 7.67639 110.118 7.69164 110.11 7.70496C110.102 7.71828 110.09 7.72921 110.076 7.73663C110.063 7.74406 110.047 7.74771 110.032 7.7472C110.016 7.7467 110.001 7.74206 109.988 7.73377C105.477 4.87527 99.9475 4.14568 94.7823 5.36166C89.0317 6.71608 86.2443 11.0431 87.0767 16.8219C87.7951 21.8055 91.6769 24.2618 96.3257 24.9091Z" fill="white"/>
<path d="M2.47098 24.584L19.0926 24.5859C19.1322 24.5859 19.1704 24.6016 19.1985 24.6296C19.2265 24.6577 19.2422 24.6957 19.2422 24.7355L19.2385 26.4173C19.2385 26.437 19.2346 26.4564 19.2271 26.4746C19.2196 26.4927 19.2086 26.5092 19.1947 26.523C19.1807 26.5371 19.1642 26.5481 19.1461 26.5556C19.1279 26.5631 19.1085 26.567 19.0888 26.567L0.323366 26.5857C0.283674 26.5857 0.245607 26.5698 0.21754 26.5417C0.189474 26.5137 0.173706 26.4757 0.173706 26.436L0.177448 3.54175C0.177448 3.52209 0.181318 3.50263 0.188839 3.48447C0.196361 3.46632 0.207385 3.44982 0.221282 3.43592C0.235179 3.42202 0.251677 3.411 0.269835 3.40348C0.287992 3.39596 0.307454 3.39208 0.327107 3.39208L2.16979 3.38086C2.20949 3.38086 2.24756 3.39663 2.27562 3.42469C2.30368 3.45276 2.31945 3.49083 2.31945 3.53052L2.32132 24.4343C2.32132 24.474 2.33709 24.512 2.36515 24.54C2.39323 24.5681 2.43128 24.584 2.47098 24.584Z" fill="white"/>
<path d="M78.5539 7.08851C78.5543 7.07785 78.5511 7.06745 78.545 7.0589C78.5386 7.05035 78.5296 7.04412 78.5193 7.04114C78.5089 7.03819 78.4978 7.03865 78.4875 7.04247C78.4772 7.04631 78.4683 7.05327 78.4623 7.06232L65.9956 26.4002C65.9571 26.4599 65.9043 26.5089 65.8422 26.5426C65.7801 26.5763 65.7105 26.5935 65.6402 26.5929L64.2521 26.5873C64.1699 26.5867 64.0893 26.5658 64.0175 26.5261C63.9455 26.4867 63.8847 26.43 63.8405 26.3609L51.4393 7.09225C51.3308 6.92388 51.2766 6.93949 51.2766 7.13902L51.2878 26.4956C51.2878 26.5175 51.279 26.5385 51.2631 26.5538C51.2474 26.5693 51.2259 26.5779 51.2036 26.5779L49.2973 26.5723C49.2541 26.5723 49.2128 26.5551 49.1823 26.5246C49.1518 26.4941 49.1346 26.4528 49.1346 26.4096L49.1327 3.4892C49.1327 3.46191 49.1435 3.43574 49.1628 3.41644C49.1821 3.39715 49.2083 3.38631 49.2356 3.38631H51.2747C51.3194 3.38633 51.3632 3.3973 51.4021 3.41822C51.441 3.43914 51.4737 3.46933 51.4973 3.50603L64.8863 24.2133C64.8967 24.2296 64.9111 24.2429 64.9282 24.252C64.9452 24.2614 64.9643 24.2663 64.9835 24.2663C65.0028 24.2663 65.0219 24.2614 65.0389 24.252C65.0559 24.2429 65.0703 24.2296 65.0808 24.2133L78.2827 3.55654C78.3165 3.50434 78.3629 3.46142 78.4176 3.43169C78.472 3.40197 78.5332 3.38636 78.5951 3.38631L80.5687 3.37695C80.6009 3.37695 80.632 3.38976 80.6548 3.41257C80.6774 3.43537 80.6903 3.4663 80.6903 3.49855L80.6866 26.4582C80.6866 26.4764 80.6827 26.4943 80.675 26.511C80.6671 26.5276 80.6559 26.5428 80.6417 26.5555C80.6273 26.5682 80.6105 26.5781 80.5918 26.5849C80.5732 26.5918 80.5532 26.595 80.5332 26.5948L78.6681 26.5723C78.6376 26.572 78.6086 26.5594 78.5872 26.5377C78.5659 26.516 78.5539 26.4868 78.5539 26.4563V7.08851Z" fill="white"/>
<path d="M39.6067 14.1078C39.1628 14.2038 39.1676 14.2612 39.6217 14.2799C40.8988 14.3335 42.126 14.7544 43.3033 15.5426C45.2713 16.8578 45.5482 20.0324 45.0412 22.1258C44.0123 26.3836 38.5853 26.6268 35.1525 26.6137C31.3487 26.5987 27.5447 26.5944 23.7409 26.6006C23.2932 26.6019 22.8461 26.5795 22.3996 26.5333C22.3709 26.5308 22.3442 26.5177 22.3247 26.4962C22.3055 26.4747 22.2946 26.4465 22.2948 26.4173L22.3004 3.62596C22.3004 3.4738 22.3771 3.39711 22.5305 3.39586C27.0553 3.37964 31.621 3.39087 36.2281 3.42953C39.5936 3.45759 43.2528 4.45844 43.5428 8.51235C43.7579 11.4924 42.6991 13.4399 39.6067 14.1078ZM24.448 5.33581L24.4218 13.2678C24.4218 13.2742 24.4232 13.2805 24.4256 13.2864C24.428 13.2923 24.4316 13.2977 24.4361 13.3022C24.4406 13.3067 24.446 13.3103 24.452 13.3127C24.4578 13.3152 24.4641 13.3164 24.4705 13.3164L36.5742 13.3595C37.2301 13.3618 37.8798 13.2752 38.4865 13.1044C39.093 12.9337 39.6445 12.6821 40.1094 12.3642C40.5743 12.0463 40.9434 11.6682 41.1959 11.2516C41.4483 10.8349 41.5788 10.3879 41.5803 9.93598L41.5841 8.78735C41.5871 7.87494 41.0638 6.99811 40.1296 6.34978C39.1953 5.70143 37.9266 5.33469 36.6023 5.3302L24.4985 5.28719C24.492 5.28693 24.4855 5.288 24.4793 5.29034C24.4733 5.29267 24.4677 5.29621 24.463 5.30076C24.4581 5.3053 24.4544 5.31075 24.452 5.31677C24.4493 5.32279 24.448 5.32927 24.448 5.33581ZM37.0101 24.6083C39.6217 24.5802 42.8094 23.9423 43.0264 20.7527C43.1649 18.7098 42.5438 16.9101 40.544 16.0496C39.2619 15.4984 37.698 15.2246 35.8521 15.2284C32.0644 15.2358 28.2887 15.2414 24.5247 15.2452C24.471 15.2452 24.4443 15.272 24.4443 15.3256L24.4293 24.496C24.4293 24.5896 24.4761 24.6363 24.5696 24.6363C28.7053 24.6601 32.852 24.6507 37.0101 24.6083Z" fill="white"/>
</g>
</g>
</g>
<defs>
<clipPath id="clip0_2128_2176">
<rect width="110" height="30" fill="white" transform="translate(0.169983)"/>
</clipPath>
<clipPath id="clip1_2128_2176">
<rect width="110" height="24.1327" fill="white" transform="translate(0.169983 2.93359)"/>
</clipPath>
</defs>
</svg>
