<svg width="490" height="152" viewBox="0 0 490 152" fill="none" xmlns="http://www.w3.org/2000/svg">
<g filter="url(#filter0_d_2144_148848)">
<path d="M450.652 109.305L459.274 106.072V57.2525C459.274 53.0855 457.801 49.3495 454.855 46.0446C451.981 42.6679 448.569 40.9795 444.617 40.9795C439.157 40.9795 434.631 42.6679 431.038 46.0446C427.518 49.4213 425.758 53.2292 425.758 57.468V106.072L435.565 109.305H403.665L412.61 106.072V41.0873L403.665 37.7464H425.758V45.7213C428.847 42.8475 432.008 40.728 435.241 39.363C438.546 37.9261 442.749 37.3872 447.85 37.7464C454.747 38.2494 460.567 40.7999 465.309 45.398C470.05 49.9961 472.421 55.636 472.421 62.3176V106.072L483.953 109.305H450.652Z" fill="white"/>
<path d="M349.889 48.2006C356.211 41.2316 363.827 37.7471 372.736 37.7471C381.645 37.7471 389.224 41.2316 395.475 48.2006C401.797 55.1696 404.958 63.5756 404.958 73.4184C404.958 83.2612 401.797 91.7031 395.475 98.744C389.224 105.713 381.645 109.197 372.736 109.197C363.827 109.197 356.211 105.713 349.889 98.744C343.638 91.7031 340.513 83.2612 340.513 73.4184C340.513 63.5756 343.638 55.1696 349.889 48.2006ZM358.295 96.4808C362.318 102.803 367.132 105.964 372.736 105.964C378.34 105.964 383.117 102.803 387.069 96.4808C391.092 90.1584 393.104 82.4709 393.104 73.4184C393.104 64.3659 391.092 56.7143 387.069 50.4637C383.117 44.1413 378.34 40.9801 372.736 40.9801C367.132 40.9801 362.318 44.1413 358.295 50.4637C354.343 56.7143 352.367 64.3659 352.367 73.4184C352.367 82.4709 354.343 90.1584 358.295 96.4808Z" fill="white"/>
<path d="M299.13 101.869C307.464 105.317 315.978 104.742 324.671 100.144C319.929 104.455 314.505 107.257 308.398 108.55C302.291 109.772 296.22 109.197 290.185 106.826C283.791 104.168 278.798 99.8569 275.205 93.8937C271.613 87.8587 269.889 81.213 270.032 73.9566C270.104 63.8982 273.266 55.3486 279.516 48.3077C285.767 41.195 293.346 37.6387 302.255 37.6387C311.164 37.6387 318.78 41.195 325.102 48.3077C331.424 55.4204 334.586 64.006 334.586 74.0644H282.857C282.857 80.4586 284.222 86.1703 286.952 91.1995C289.682 96.1569 293.741 99.7132 299.13 101.869ZM302.255 40.9795C298.663 40.9795 295.322 42.6679 292.233 46.0446C289.143 49.4213 286.808 53.3728 285.228 57.8991C283.647 62.4254 282.857 66.7361 282.857 70.8313L321.33 70.9391C320.899 62.3176 318.852 55.169 315.187 49.4932C311.595 43.8174 307.284 40.9795 302.255 40.9795Z" fill="white"/>
<path d="M264.213 92.4928C264.213 96.4443 265.434 99.9647 267.877 103.054C270.32 106.143 273.445 108.191 277.253 109.197H268.308C263.566 109.197 259.507 107.508 256.13 104.132C252.754 100.755 251.065 96.6957 251.065 91.9539V5.73926L242.12 2.39844H264.213V92.4928Z" fill="white"/>
<path d="M250.419 92.4921C250.419 96.4436 251.64 99.9641 254.083 103.053C256.525 106.143 259.651 108.19 263.459 109.196H254.514C248.766 109.196 244.168 106.897 240.719 102.299C234.397 106.897 226.53 109.196 217.118 109.196C207.778 109.196 199.911 106.933 193.517 102.407C187.195 97.8087 184.033 92.1688 184.033 85.4872C184.033 78.8056 187.195 73.1657 193.517 68.5676C199.911 63.9694 207.778 61.6704 217.118 61.6704C224.662 61.6704 231.38 63.2869 237.271 66.52V59.9461C237.271 55.0606 235.618 50.7499 232.314 47.0139C229.08 43.2779 225.057 41.2662 220.243 40.9789C215.071 40.6915 210.616 42.3439 206.88 45.9362C203.144 49.5285 201.276 53.8751 201.276 58.9762C198.043 58.9762 195.708 57.5033 194.271 54.5577C192.906 51.5402 193.337 48.846 195.565 46.475C198.51 43.3138 201.959 40.9789 205.91 39.4701C209.862 37.8895 214.244 37.3866 219.058 37.9614C223.944 38.4643 228.685 40.1526 233.283 43.0265C238.672 46.4032 242.875 51.0013 245.892 56.8208C248.91 62.5685 250.419 68.6753 250.419 75.1414V92.4921ZM237.271 85.595V85.3794C237.199 80.2065 235.187 75.4288 231.236 71.0462C227.356 66.6637 222.686 64.4724 217.226 64.4724C211.694 64.4724 206.952 66.6996 203.001 71.154C199.121 75.5366 197.181 80.3143 197.181 85.4872C197.181 90.6601 199.121 95.366 203.001 99.6048C206.952 103.772 211.694 105.855 217.226 105.855C222.758 105.855 227.464 103.772 231.344 99.6048C235.223 95.366 237.199 90.696 237.271 85.595Z" fill="white"/>
<path d="M145.991 37.7471C154.9 37.7471 162.516 41.2316 168.838 48.2006C175.16 55.1696 178.322 63.5756 178.322 73.4184C178.322 83.2612 175.16 91.7031 168.838 98.744C162.516 105.713 154.9 109.197 145.991 109.197C138.16 109.197 131.227 106.36 125.192 100.684V137.864L134.999 141.205H103.099L112.044 137.864V40.9801L103.099 37.7471H125.192V46.2608C131.227 40.585 138.16 37.7471 145.991 37.7471ZM131.55 96.4808C135.573 102.803 140.387 105.964 145.991 105.964C151.595 105.964 156.409 102.803 160.432 96.4808C164.455 90.1584 166.467 82.4709 166.467 73.4184C166.467 64.4377 164.455 56.7861 160.432 50.4637C156.409 44.1413 151.595 40.9801 145.991 40.9801C140.387 40.9801 135.573 44.1413 131.55 50.4637C127.599 56.7143 125.623 64.3659 125.623 73.4184C125.623 82.4709 127.599 90.1584 131.55 96.4808Z" fill="white"/>
<path d="M31.9722 9.72668C40.0189 4.84119 48.7481 2.39844 58.1599 2.39844C67.5716 2.39844 76.265 4.84119 84.2398 9.72668C92.2865 14.6122 98.6449 21.2579 103.315 29.6638C107.985 38.0698 110.32 47.1941 110.32 57.037C110.32 66.8798 107.985 76.0042 103.315 84.4101C98.6449 92.8161 92.2865 99.4618 84.2398 104.347C76.265 109.233 67.5716 111.676 58.1599 111.676C48.7481 111.676 40.0189 109.233 31.9722 104.347C23.9973 99.4618 17.6749 92.8161 13.0049 84.4101C8.33498 76.0042 6 66.8798 6 57.037C6 47.1941 8.33498 38.0698 13.0049 29.6638C17.6749 21.2579 23.9973 14.6122 31.9722 9.72668ZM30.5712 93.3549C38.1868 103.413 47.383 108.442 58.1599 108.442C68.9367 108.442 78.1329 103.413 85.7486 93.3549C93.3642 83.2965 97.172 71.1906 97.172 57.037C97.172 42.8834 93.3642 30.7774 85.7486 20.7191C78.1329 10.6607 68.9367 5.63149 58.1599 5.63149C47.383 5.63149 38.1868 10.6607 30.5712 20.7191C22.9556 30.7774 19.1477 42.8834 19.1477 57.037C19.1477 71.1906 22.9556 83.2965 30.5712 93.3549Z" fill="white"/>
</g>
<defs>
<filter id="filter0_d_2144_148848" x="0" y="0.398438" width="489.953" height="150.807" filterUnits="userSpaceOnUse" color-interpolation-filters="sRGB">
<feFlood flood-opacity="0" result="BackgroundImageFix"/>
<feColorMatrix in="SourceAlpha" type="matrix" values="0 0 0 0 0 0 0 0 0 0 0 0 0 0 0 0 0 0 127 0" result="hardAlpha"/>
<feOffset dy="4"/>
<feGaussianBlur stdDeviation="3"/>
<feComposite in2="hardAlpha" operator="out"/>
<feColorMatrix type="matrix" values="0 0 0 0 0 0 0 0 0 0 0 0 0 0 0 0 0 0 0.3 0"/>
<feBlend mode="normal" in2="BackgroundImageFix" result="effect1_dropShadow_2144_148848"/>
<feBlend mode="normal" in="SourceGraphic" in2="effect1_dropShadow_2144_148848" result="shape"/>
</filter>
</defs>
</svg>
