<svg width="71" height="71" viewBox="0 0 71 71" fill="none" xmlns="http://www.w3.org/2000/svg">
<rect x="1.24121" y="2.27148" width="67.2656" height="65.625" rx="14" fill="#001E36"/>
<path fill-rule="evenodd" clip-rule="evenodd" d="M69.1753 0.484249C49.3658 0.478233 29.6449 0.47878 9.83494 0.47878C7.00158 0.47878 4.11955 0.476593 1.28619 0.484796C1.10682 0.485343 0.697754 0.568468 0.697754 0.613858V69.5398H69.604V0.613858C69.604 0.568468 69.3776 0.484249 69.1753 0.484249ZM62.2103 62.7946C44.3597 62.7739 26.5152 62.7782 8.66463 62.7782C7.80275 62.7782 7.80658 62.7766 7.80658 61.8885V8.40573C7.80713 7.52691 7.79838 7.74292 8.66955 7.74292H62.1528C63.0486 7.74292 63.0415 7.52636 63.0415 8.44894V35.1567C63.0415 44.0817 63.0377 53.0067 63.0612 61.9311C63.0634 62.6109 62.9031 62.7952 62.2103 62.7946ZM31.2243 21.767C27.5778 20.9122 23.9071 21.3339 20.2403 21.7085C19.4621 21.7883 19.3134 22.1214 19.3156 22.8121C19.3391 31.1284 19.2915 39.4447 19.2915 47.7611V48.2117H24.2134V38.4439C26.9478 38.649 29.4503 38.6003 31.8964 37.7275C35.817 36.3286 37.7764 33.2918 37.5648 28.8578C37.3936 25.2768 35.1443 22.6857 31.2243 21.767ZM30.1563 33.9864C28.4096 34.8378 26.5524 34.8176 24.6848 34.565C24.5393 34.5453 24.3156 34.2855 24.3146 34.1362C24.2927 31.2208 24.2981 28.306 24.2981 25.3107C26.0104 25.0439 27.6341 24.9137 29.2539 25.3206C31.2626 25.8253 32.428 27.1357 32.6451 29.1033C32.8835 31.2657 31.9631 33.1059 30.1563 33.9864ZM48.3678 37.8725C47.5644 37.4322 46.6834 37.1358 45.8488 36.7497C45.0778 36.3926 44.2996 36.041 43.5662 35.6144C43.0549 35.3175 42.8224 34.7985 42.8224 34.1865C42.8224 33.1518 43.5301 32.3178 44.7387 32.2189C45.6405 32.145 46.5767 32.238 47.4698 32.4048C48.2223 32.5448 48.936 32.8964 49.7021 33.1677L50.6685 29.7393C48.8392 28.8512 46.9776 28.5171 45.0438 28.5854C43.3999 28.6428 41.8643 29.0618 40.4763 30.0068C37.8825 31.7726 36.6171 36.4637 40.5042 38.9843C41.4913 39.6246 42.6332 40.0261 43.704 40.5379C44.3701 40.8568 45.0652 41.128 45.6952 41.507C46.4892 41.985 46.7594 42.7632 46.6216 43.6617C46.4865 44.5449 45.8942 45.1043 45.0706 45.2334C44.1519 45.3778 43.1752 45.4713 42.2717 45.3121C40.9926 45.0874 39.7567 44.6116 38.4578 44.2299C38.2249 45.0994 38.0034 46.0614 37.701 46.9971C37.5353 47.51 37.6326 47.7632 38.1357 47.9639C41.2075 49.184 44.334 49.435 47.4774 48.3561C49.8268 47.5494 51.2591 45.882 51.4456 43.3418C51.6271 40.8661 50.5115 39.0482 48.3678 37.8725Z" fill="#30A6FD"/>
</svg>
