<svg width="466" height="114" viewBox="0 0 466 114" fill="none" xmlns="http://www.w3.org/2000/svg">
<g filter="url(#filter0_d_2144_148890)">
<path fill-rule="evenodd" clip-rule="evenodd" d="M434.841 48.4357H435.203C435.268 48.4357 435.322 48.4156 435.364 48.3765C435.408 48.3387 435.428 48.2902 435.428 48.2322C435.428 48.1754 435.408 48.1269 435.364 48.0878C435.322 48.05 435.268 48.0299 435.203 48.0299H434.841V48.4357ZM435.835 49.3834H435.474L435.134 48.7516H434.841V49.3834H434.503V47.7128H435.203C435.358 47.7128 435.492 47.7672 435.602 47.8737C435.712 47.9802 435.766 48.108 435.766 48.2547C435.766 48.3481 435.74 48.4298 435.688 48.5031C435.635 48.5753 435.583 48.6238 435.531 48.6475L435.45 48.6842L435.835 49.3834ZM436.015 47.6229C435.758 47.3673 435.45 47.2383 435.089 47.2383C434.728 47.2383 434.421 47.3673 434.165 47.6229C433.91 47.8772 433.781 48.1861 433.781 48.5481C433.781 48.909 433.91 49.2178 434.165 49.4733C434.421 49.7289 434.728 49.8567 435.089 49.8567C435.45 49.8567 435.758 49.7289 436.015 49.4733C436.271 49.2178 436.399 48.909 436.399 48.5481C436.399 48.1861 436.271 47.8772 436.015 47.6229ZM436.278 49.7005C435.958 50.0152 435.561 50.1726 435.089 50.1726C434.617 50.1726 434.221 50.0152 433.9 49.7005C433.581 49.387 433.42 49.0024 433.42 48.5481C433.42 48.0938 433.581 47.7104 433.9 47.3957C434.221 47.081 434.617 46.9248 435.089 46.9248C435.561 46.9248 435.958 47.081 436.278 47.3957C436.598 47.7104 436.759 48.0938 436.759 48.5481C436.759 49.0024 436.598 49.387 436.278 49.7005Z" fill="white"/>
<path fill-rule="evenodd" clip-rule="evenodd" d="M410.548 52.0682C421.26 52.0682 425.365 56.1016 423.69 64.5245C422.01 72.9392 416.292 76.9809 405.58 76.9809C394.704 76.9809 390.839 72.9439 392.58 64.2264C393.402 60.1173 395.312 57.0541 398.355 55.032L387.506 52.6551L404.222 52.6716V52.674C406.103 52.2741 408.208 52.0682 410.548 52.0682ZM379.301 64.1755C376.704 77.1773 384.449 83.1558 404.349 83.1522C423.993 83.1558 434.374 77.1773 436.899 64.5222C439.424 51.8671 431.424 45.9383 411.771 45.9395C392.36 45.9395 381.758 51.8671 379.301 64.1755Z" fill="white"/>
<path fill-rule="evenodd" clip-rule="evenodd" d="M376.991 76.5005L362.652 76.504C357.496 76.5005 354.119 76.058 351.922 74.1625C350.269 72.7664 350.618 70.6237 351.2 67.6859C351.289 67.2363 351.379 66.7891 351.482 66.2945L355.394 46.6611H343.236L338.989 67.9391C338.045 72.6706 338.222 75.8083 342.074 78.694C346.559 82.0826 352.043 82.434 360.423 82.434H375.81L376.991 76.5005Z" fill="white"/>
<path fill-rule="evenodd" clip-rule="evenodd" d="M310.908 67.6105C310.998 67.1645 311.088 66.7184 311.19 66.2191L315.105 46.5869H302.943L298.698 67.8649C297.749 72.5963 297.934 75.7353 301.788 78.621C306.264 82.0084 311.751 82.3598 320.127 82.3598H335.512L336.696 76.4274H322.361C317.203 76.4274 313.828 75.9837 311.63 74.0883C309.978 72.6898 310.323 70.5483 310.908 67.6105Z" fill="white"/>
<path fill-rule="evenodd" clip-rule="evenodd" d="M300.548 46.6387H280.326C261.723 46.6387 251.935 52.5213 249.41 65.1682C248.112 71.6566 250.078 76.3337 255.456 79.2714C260.537 82.0613 265.861 82.4068 272.867 82.4068H293.41L294.65 76.181H274.672C265.089 76.1846 261.448 73.8419 262.654 67.4126H296.401L297.645 61.1856H263.972C265.582 55.5526 270.548 52.8621 279.328 52.8621H299.306L300.548 46.6387Z" fill="white"/>
<path fill-rule="evenodd" clip-rule="evenodd" d="M83.7193 55.7358L72.4047 52.6276L84.3357 52.6418L85.533 46.6396H72.807L65.6654 82.4125H78.3962L83.7193 55.7358Z" fill="white"/>
<path fill-rule="evenodd" clip-rule="evenodd" d="M83.5541 82.4123L90.6921 46.6406H106.077L124.623 72.3472L128.524 51.0089L141.602 46.6406L134.463 82.4159L120.36 82.4123L100.874 55.3617L97.0492 76.881L83.5541 82.4123Z" fill="white"/>
<path fill-rule="evenodd" clip-rule="evenodd" d="M159.041 67.5153H176.279L170.237 53.7635L159.041 67.5153ZM177.532 46.6396L195.045 82.4125H181.508L177.897 73.8938H152.764L145.909 82.4125H133.061L164.649 46.6396H177.532Z" fill="white"/>
<path fill-rule="evenodd" clip-rule="evenodd" d="M210.307 62.0302L211.588 55.6518L201.913 52.9932L215.349 53.011V53.0169H228.026C235.28 53.0169 238.66 53.8143 237.924 57.5011C237.201 61.1369 233.478 62.0302 226.231 62.0302H210.307ZM206.208 82.4125L209.011 68.3601L223.354 68.3613L233.267 82.4125H246.963L235.522 67.4645C243.215 66.4694 248.109 62.9294 249.214 57.3981C250.715 49.8803 244.842 46.6396 231.148 46.6396H201.184L194.038 82.4149L206.208 82.4125Z" fill="white"/>
<path fill-rule="evenodd" clip-rule="evenodd" d="M27.923 63.5788L29.5889 55.2458L21.4203 53.0013L34.8539 53.0167H46.7281C54.7867 53.0155 58.0723 54.3122 57.2772 58.296C56.5555 61.8833 52.6771 63.5788 45.3486 63.5788H27.923ZM26.6594 69.9039H41.3945C48.6484 69.9028 54.3169 69.7561 59.6565 67.6157C64.5655 65.6197 67.3459 62.5766 68.1966 58.2983C69.0828 53.865 66.9424 50.4776 62.198 48.4308C58.9289 47.037 53.4532 46.6394 45.5592 46.6406H19.1368L12 82.4123H24.1593L26.6594 69.9039Z" fill="white"/>
<mask id="mask0_2144_148890" style="mask-type:alpha" maskUnits="userSpaceOnUse" x="169" y="10" width="51" height="52">
<path d="M169.027 10.0859H219.049V61.3137H169.027V10.0859Z" fill="white"/>
</mask>
<g mask="url(#mask0_2144_148890)">
<path fill-rule="evenodd" clip-rule="evenodd" d="M219.016 20.8487C218.734 18.7344 216.693 16.8319 214.149 15.4287C213.509 15.0737 212.834 14.7531 212.147 14.4679C211.849 14.3461 211.552 14.2301 211.254 14.1165C209.085 13.2824 206.86 12.5713 204.579 11.9892C202.772 11.5278 200.937 11.1468 199.069 10.8487C195.523 10.2819 191.925 10.0299 188.335 10.095H188.26C188.223 10.095 188.184 10.0985 188.146 10.0985C188.02 10.1021 187.9 10.1056 187.778 10.108L187.412 10.1186C187.108 10.1269 186.803 10.1364 186.5 10.153C186.467 10.1565 186.435 10.1565 186.403 10.1601C186.335 10.1601 186.268 10.166 186.198 10.1695C185.986 10.1778 185.775 10.1908 185.564 10.205C185.243 10.2239 184.926 10.2464 184.609 10.2725C184.238 10.3008 183.863 10.3316 183.491 10.3683C183.341 10.3837 183.193 10.3967 183.046 10.4132C182.889 10.4286 182.732 10.444 182.579 10.4606C182.543 10.4641 182.508 10.4712 182.472 10.4724C182.358 10.4866 182.242 10.502 182.131 10.515C181.938 10.5375 181.746 10.56 181.557 10.5848C181.386 10.6085 181.217 10.6298 181.05 10.6534C180.834 10.6842 180.616 10.7114 180.401 10.7422C180.193 10.7741 179.981 10.8072 179.772 10.8416C179.725 10.8487 179.673 10.8581 179.626 10.8652C179.478 10.8865 179.33 10.9125 179.183 10.9374C179.013 10.9658 178.84 10.9954 178.67 11.0273C178.667 11.0273 178.661 11.0273 178.654 11.0309C178.51 11.0533 178.367 11.0817 178.221 11.1078C178.199 11.1113 178.174 11.1172 178.152 11.1196C178.116 11.1267 178.081 11.1338 178.049 11.1397C178.026 11.1433 178.007 11.1468 177.985 11.1527C177.697 11.2072 177.405 11.2604 177.116 11.3219C176.7 11.4083 176.285 11.4994 175.87 11.5917C175.727 11.6236 175.585 11.6579 175.441 11.6911C175.413 11.7005 175.381 11.7064 175.352 11.7124C175.016 11.7904 174.683 11.8697 174.35 11.9561C174.032 12.0365 173.718 12.1194 173.405 12.2022C173.366 12.2164 173.328 12.2259 173.289 12.2353C172.917 12.3383 172.552 12.4412 172.184 12.5489C172.158 12.5548 172.135 12.5619 172.11 12.5713C171.771 12.6707 171.431 12.7737 171.092 12.8825C170.97 12.918 170.848 12.9559 170.726 12.9973C170.409 13.0967 170.095 13.202 169.782 13.3084C169.583 13.3759 169.388 13.4421 169.193 13.5131H169.186C169.182 13.5167 169.176 13.5167 169.173 13.5167C169.16 13.5202 169.148 13.5238 169.137 13.5285C168.952 13.5995 169.018 13.8728 169.204 13.8775H169.208C169.227 13.8752 169.247 13.8728 169.262 13.8693C169.365 13.8503 169.467 13.8338 169.57 13.8184C177.526 12.4353 185.72 12.3879 193.694 13.6539C194.185 13.732 194.67 13.8326 195.158 13.9225C195.229 13.9296 195.303 13.9296 195.372 13.9403C196.521 14.1165 198.146 14.4395 199.859 14.9164C199.992 14.9507 200.128 14.9755 200.26 15.0086C200.453 15.0595 200.648 15.1116 200.843 15.1625C200.965 15.1956 201.087 15.2275 201.209 15.2583C201.401 15.3068 201.599 15.3612 201.798 15.4228C202.557 15.6499 203.333 15.9445 204.072 16.2995C205.187 16.8331 206.275 17.5028 207.141 18.3949C207.174 18.428 207.208 18.467 207.241 18.5037C207.268 18.5309 207.293 18.5593 207.319 18.5877C207.35 18.622 207.382 18.6551 207.411 18.6918C207.729 19.0491 207.979 19.4266 208.145 19.8253C208.326 20.2323 208.431 20.6618 208.387 21.096C208.386 21.1433 208.371 21.1895 208.367 21.2368C208.364 21.2711 208.356 21.309 208.352 21.3433C208.325 21.5574 208.275 21.7669 208.2 21.9739C208.179 22.0402 208.164 22.1052 208.136 22.1703C208.133 22.181 208.125 22.1904 208.121 22.2011C208.03 22.407 207.922 22.6105 207.791 22.8092C205.544 26.5102 197.319 28.266 186.671 28.7712C185.474 28.8433 184.273 28.9013 183.065 28.9274C181.964 28.9534 180.862 28.9498 179.761 28.9345C179.661 28.9345 179.565 28.9368 179.466 28.9368L179.464 28.9297C179.006 28.9214 178.546 28.9179 178.088 28.9061C178.017 28.9025 177.947 28.9025 177.876 28.899C177.701 28.899 177.691 29.1841 177.876 29.1841C177.904 29.1865 177.93 29.1865 177.959 29.19C179.881 29.2859 181.774 29.5 183.626 29.8277C184.949 30.0585 186.253 30.3495 187.534 30.695C187.594 30.708 187.656 30.7246 187.716 30.7435C188.472 30.9636 189.795 31.7184 188.928 32.6023C188.632 32.8969 188.159 33.1335 187.713 33.2613C187.646 33.2814 187.583 33.2968 187.517 33.3121C186.947 33.4529 186.365 33.5724 185.778 33.6683C184.648 33.854 183.491 33.9534 182.313 33.9629C182.082 33.9664 181.855 33.9629 181.626 33.957H181.621C181.457 33.9641 181.454 34.2255 181.624 34.2255H181.626C183.223 34.2291 184.782 34.3853 186.291 34.687C186.894 34.8053 187.472 34.9402 188.059 35.107C188.069 35.107 188.078 35.1106 188.091 35.1129C188.217 35.1378 188.344 35.1768 188.476 35.2241C188.478 35.2241 188.482 35.2277 188.489 35.2277C188.895 35.3827 189.584 35.7341 189.511 36.27C189.44 36.7835 188.759 37.0841 188.331 37.2178C188.331 37.2178 188.326 37.2213 188.326 37.2178C188.294 37.2272 188.26 37.2367 188.229 37.2462C188.194 37.2592 188.159 37.2686 188.123 37.2757C187.934 37.3302 187.745 37.3775 187.556 37.4224C186.253 37.7336 184.891 37.8993 183.495 37.9123C183.307 37.9123 183.298 38.1974 183.489 38.1974V38.201C185.106 38.2104 186.673 38.4412 188.155 38.8671C188.376 38.9274 188.598 38.9949 188.815 39.0682C188.908 39.0978 189.001 39.1297 189.093 39.1641C189.434 39.3072 189.97 39.5947 189.969 40.0301C189.967 40.4537 189.466 40.7365 189.132 40.8796C189.125 40.8796 189.123 40.882 189.119 40.882C189.084 40.8974 189.052 40.9104 189.018 40.9234C188.994 40.9341 188.969 40.9424 188.947 40.9494C188.934 40.9518 188.924 40.9554 188.911 40.9589C188.898 40.9648 188.885 40.9684 188.872 40.9719C188.847 40.9814 188.821 40.9873 188.795 40.9968C187.956 41.2736 187.056 41.4274 186.125 41.4322C185.862 41.4357 185.605 41.4274 185.349 41.4002V41.4073C185.165 41.4073 185.157 41.7019 185.349 41.7019V41.7055C187.866 42.1504 189.905 43.9925 190.632 46.4086C190.695 46.6192 190.75 46.8369 190.792 47.0569V47.064C191.906 51.5932 192.517 56.3187 192.564 61.1815C192.564 61.3519 192.831 61.3625 192.838 61.1839V61.178C192.913 54.964 193.909 48.9701 195.703 43.3288C195.801 43.0117 195.904 42.6982 196.01 42.3846C196.01 42.3811 196.01 42.3775 196.013 42.374C196.205 41.8049 196.404 41.2334 196.611 40.6702C196.615 40.6608 196.618 40.6537 196.622 40.6442C196.744 40.3496 196.872 40.0585 197.005 39.7698C197.663 38.3548 198.489 37.0356 199.457 35.8299C201.68 33.0625 204.645 30.9174 208.057 29.6964C208.067 29.6929 208.08 29.6905 208.089 29.6869C208.387 29.5947 208.678 29.4976 208.973 29.3983C208.992 29.3923 209.012 29.3852 209.027 29.3793C209.719 29.1451 210.406 28.899 211.084 28.6387C211.094 28.6363 211.104 28.6327 211.113 28.6256C211.532 28.4683 211.952 28.3026 212.369 28.1358C215.357 26.8509 218.077 24.8786 218.839 22.6034C219.03 22.039 219.095 21.4415 219.016 20.8487Z" fill="white"/>
</g>
</g>
<defs>
<filter id="filter0_d_2144_148890" x="0" y="0.0859375" width="465.352" height="113.066" filterUnits="userSpaceOnUse" color-interpolation-filters="sRGB">
<feFlood flood-opacity="0" result="BackgroundImageFix"/>
<feColorMatrix in="SourceAlpha" type="matrix" values="0 0 0 0 0 0 0 0 0 0 0 0 0 0 0 0 0 0 127 0" result="hardAlpha"/>
<feOffset dx="8" dy="10"/>
<feGaussianBlur stdDeviation="10"/>
<feComposite in2="hardAlpha" operator="out"/>
<feColorMatrix type="matrix" values="0 0 0 0 0 0 0 0 0 0 0 0 0 0 0 0 0 0 0.55 0"/>
<feBlend mode="normal" in2="BackgroundImageFix" result="effect1_dropShadow_2144_148890"/>
<feBlend mode="normal" in="SourceGraphic" in2="effect1_dropShadow_2144_148890" result="shape"/>
</filter>
</defs>
</svg>
