<svg width="73" height="71" viewBox="0 0 73 71" fill="none" xmlns="http://www.w3.org/2000/svg">
<path d="M59.5299 0.0625H13.1649C6.1437 0.0625 0.451904 5.75461 0.451904 12.7762V57.3488C0.451904 64.3704 6.1437 70.0625 13.1649 70.0625H59.5299C66.5511 70.0625 72.2429 64.3704 72.2429 57.3488V12.7762C72.2429 5.75461 66.5511 0.0625 59.5299 0.0625Z" fill="white"/>
<path d="M16.6155 48.15V17.3742C16.6155 17.15 16.7119 17.0371 16.9045 17.0371C17.4176 17.0371 17.8861 17.0296 18.5928 17.013C19.2987 16.9972 20.0612 16.9812 20.8804 16.9649C21.6992 16.949 22.5661 16.933 23.4811 16.9167C24.396 16.9009 25.303 16.8929 26.202 16.8926C28.6417 16.8926 30.6965 17.1976 32.3665 17.8077C33.8729 18.3173 35.2467 19.1564 36.3879 20.264C37.3553 21.224 38.1029 22.3824 38.5791 23.6594C39.0296 24.9022 39.2579 26.2146 39.2534 27.5365C39.2534 30.1057 38.6595 32.2248 37.4715 33.8939C36.2757 35.5699 34.5949 36.839 32.6555 37.5302C30.6327 38.285 28.385 38.541 25.9131 38.541C25.2065 38.541 24.7088 38.5329 24.4201 38.5169C24.1312 38.501 23.6978 38.493 23.1199 38.4928V48.1019C23.1283 48.1608 23.1229 48.2208 23.1041 48.2772C23.0853 48.3336 23.0536 48.3849 23.0115 48.427C22.9694 48.469 22.9182 48.5007 22.8617 48.5195C22.8053 48.5383 22.7453 48.5437 22.6864 48.5353H16.9526C16.7277 48.5353 16.6155 48.4074 16.6155 48.15ZM23.1199 22.8166V32.8544C23.5367 32.8867 23.922 32.9028 24.2757 32.9025H25.8649C27.0343 32.8986 28.196 32.7132 29.3084 32.3528C30.2625 32.0694 31.1151 31.5177 31.7645 30.7634C32.3906 30.0252 32.7036 28.9977 32.7037 27.681C32.7291 26.7494 32.4867 25.83 32.0052 25.032C31.4991 24.2604 30.7677 23.6635 29.9103 23.3223C28.7909 22.8871 27.5951 22.6824 26.3947 22.7203C25.6241 22.7203 24.9418 22.7283 24.3479 22.7443C23.7535 22.7609 23.3441 22.785 23.1199 22.8166Z" fill="#0D0D0D"/>
<path d="M57.8746 31.0283C56.9695 30.5632 56.0056 30.223 55.0091 30.0169C53.9111 29.7649 52.7885 29.6357 51.662 29.6315C51.0526 29.615 50.4441 29.6881 49.8559 29.8483C49.4816 29.9317 49.1489 30.145 48.9168 30.4503C48.7598 30.6946 48.6763 30.9788 48.6761 31.2691C48.6849 31.5508 48.7864 31.8217 48.965 32.0397C49.2463 32.3688 49.59 32.6389 49.9763 32.8344C50.663 33.2042 51.3705 33.5338 52.0953 33.8217C53.7117 34.3628 55.2561 35.0987 56.6946 36.0131C57.6745 36.6316 58.4854 37.4839 59.0545 38.4934C59.5329 39.4494 59.7725 40.5071 59.7528 41.5759C59.7816 42.9872 59.3783 44.3736 58.597 45.5493C57.7605 46.7427 56.5986 47.6705 55.2498 48.2222C53.7885 48.8642 51.9825 49.1853 49.8319 49.1855C48.4656 49.1993 47.1017 49.0702 45.7624 48.8002C44.7071 48.6067 43.6799 48.2832 42.7042 47.837C42.5989 47.7826 42.5113 47.6994 42.4516 47.597C42.3918 47.4946 42.3625 47.3774 42.3671 47.259V42.0575C42.3613 42.0065 42.3694 41.955 42.3906 41.9083C42.4119 41.8617 42.4454 41.8217 42.4876 41.7926C42.5289 41.7692 42.5764 41.759 42.6237 41.7633C42.671 41.7676 42.7159 41.7862 42.7524 41.8167C43.9046 42.4961 45.1557 42.9917 46.4607 43.2856C47.6108 43.5739 48.7906 43.7275 49.9763 43.7432C51.0998 43.7432 51.9265 43.5987 52.4565 43.3097C52.6959 43.2001 52.8983 43.0235 53.0394 42.8013C53.1804 42.5791 53.254 42.3207 53.2512 42.0575C53.2512 41.6406 53.0104 41.2392 52.5288 40.8534C52.0473 40.4681 51.068 40.0025 49.591 39.4567C48.0788 38.9303 46.645 38.2013 45.3289 37.2894C44.3875 36.6347 43.6123 35.7687 43.0654 34.7608C42.5918 33.8118 42.3523 32.7631 42.3671 31.7026C42.3644 30.4282 42.7144 29.178 43.3784 28.0904C44.1355 26.8927 45.2226 25.9393 46.5089 25.3451C47.9213 24.6393 49.6871 24.2861 51.8065 24.2855C53.0476 24.2756 54.2876 24.3641 55.5148 24.5504C56.4034 24.6632 57.2722 24.8982 58.0964 25.2488C58.1618 25.2676 58.2219 25.3012 58.2721 25.3472C58.3222 25.3932 58.361 25.4502 58.3853 25.5137C58.4179 25.6313 58.4341 25.7529 58.4335 25.8749V30.7393C58.4369 30.7959 58.4253 30.8524 58.3999 30.9031C58.3746 30.9538 58.3364 30.997 58.2891 31.0283C58.2247 31.0603 58.1538 31.077 58.0818 31.077C58.0099 31.077 57.939 31.0603 57.8746 31.0283Z" fill="#0D0D0D"/>
</svg>
