<svg width="72" height="70" viewBox="0 0 72 70" fill="none" xmlns="http://www.w3.org/2000/svg">
<path d="M23.1723 54.8506C23.7426 54.5967 24.3218 54.363 24.9054 54.1438C25.5642 53.8962 26.2287 53.6631 26.902 53.4604C27.7402 53.2077 28.5853 52.9797 29.4411 52.7978C30.5957 52.5527 31.7642 52.3708 32.9416 52.2565C32.2815 54.3326 31.552 56.3961 30.7606 58.447C30.7947 58.8443 30.813 59.2435 30.8231 59.6446C32.4154 59.3307 34.0602 59.162 35.7441 59.162C37.4286 59.162 39.0727 59.33 40.665 59.6446C40.6758 59.2441 40.6934 58.8443 40.7275 58.447C39.9368 56.3961 39.2072 54.332 38.5466 52.2565C39.7239 52.3708 40.8924 52.5521 42.047 52.7978C42.9035 52.9797 43.7486 53.2077 44.5861 53.4604C45.2594 53.6631 45.9239 53.8962 46.5827 54.1438C47.1669 54.363 47.7455 54.5967 48.3165 54.8512C52.3664 56.6551 56.0589 59.3307 59.0875 62.802C66.6777 56.2471 71.4887 46.5612 71.4887 35.7453C71.49 16.0034 55.486 0 35.7447 0C16.0034 0 0 16.0034 0 35.7447C0 46.5606 4.81042 56.2465 12.4006 62.8014C15.4292 59.3294 19.1217 56.6539 23.1723 54.8506Z" fill="#A0DBE8"/>
<path d="M25.5284 59.8288C27.2066 59.0867 28.9783 58.5201 30.8239 58.1556C30.8132 57.7552 30.7955 57.3554 30.7614 56.9581C31.5522 54.9072 32.2817 52.8431 32.9424 50.7676C31.765 50.8819 30.5965 51.0632 29.4419 51.3089C28.5854 51.4908 27.7403 51.7188 26.9028 51.9714C26.2295 52.1742 25.565 52.4073 24.9062 52.6549L27.5117 53.2858L25.5284 59.8288Z" fill="#525353"/>
<path d="M19.3859 63.682C19.4509 63.0157 19.4907 62.3442 19.4907 61.6646C19.4907 61.256 19.8217 60.925 20.2303 60.925H20.8797L23.1718 53.3613C19.1212 55.1652 15.4288 57.8408 12.4001 61.3128C14.0695 62.7542 15.8722 64.0433 17.7898 65.16C18.3014 64.6446 18.8332 64.1513 19.3859 63.682Z" fill="#525353"/>
<path d="M48.3176 53.3613L50.6098 60.925H51.2585C51.6671 60.925 51.9981 61.2566 51.9981 61.6646C51.9981 62.3436 52.0379 63.0157 52.1029 63.682C52.6556 64.1513 53.1874 64.6452 53.6984 65.1594C55.616 64.0427 57.4187 62.7542 59.088 61.3122C56.0607 57.8408 52.3682 55.1652 48.3176 53.3613Z" fill="#525353"/>
<path d="M43.979 53.2858L46.5844 52.6549C45.9257 52.4073 45.2612 52.1742 44.5879 51.9714C43.7497 51.7188 42.9046 51.4908 42.0488 51.3089C40.8942 51.0638 39.7257 50.8819 38.5483 50.7676C39.2084 52.8437 39.9379 54.9072 40.7293 56.9581C40.6952 57.3554 40.6769 57.7546 40.6668 58.1556C42.513 58.5195 44.2847 59.0867 45.9629 59.8288L43.979 53.2858Z" fill="#525353"/>
<path d="M35.7453 60.9241H40.7819C40.6789 59.9962 40.6417 59.0709 40.6657 58.1544C39.0733 57.8405 37.4286 57.6719 35.7447 57.6719C34.0602 57.6719 32.4161 57.8399 30.8237 58.1544C30.8477 59.0715 30.8111 59.9962 30.7075 60.9241H35.7453Z" fill="#0D0D0D"/>
<path d="M17.7903 65.159C18.2059 65.4009 18.6247 65.6365 19.0504 65.862C19.1994 65.1457 19.3131 64.4187 19.3851 63.6816C18.8331 64.1509 18.3013 64.6442 17.7903 65.159Z" fill="#0D0D0D"/>
<path d="M25.1958 60.924H30.708C30.8109 59.9961 30.8482 59.0708 30.8242 58.1543C28.9786 58.5181 27.2062 59.0853 25.5287 59.8275L25.1958 60.924Z" fill="#0D0D0D"/>
<path d="M52.1038 63.6816C52.1758 64.4187 52.2895 65.1457 52.4385 65.862C52.8642 65.6365 53.2836 65.4009 53.6986 65.159C53.1889 64.6442 52.6571 64.1509 52.1038 63.6816Z" fill="#0D0D0D"/>
<path d="M46.2946 60.924L45.9624 59.8275C44.2842 59.0853 42.5125 58.5181 40.6663 58.1543C40.6423 59.0714 40.6789 59.9961 40.7825 60.924H46.2946Z" fill="#0D0D0D"/>
<path d="M25.196 60.9247L25.5282 59.8282L27.5109 53.2853L24.9054 52.6543C24.3218 52.8735 23.7433 53.1072 23.1723 53.3611L20.8801 60.9247H23.3416H25.196Z" fill="#AA9678"/>
<path d="M45.9624 59.8289L46.2947 60.9254H48.1485H50.6099L48.3177 53.3617C47.7468 53.1078 47.1682 52.8741 46.584 52.6543L43.9785 53.2853L45.9624 59.8289Z" fill="#AA9678"/>
<path d="M20.9553 62.4523C20.9781 62.4359 21.0008 62.4201 21.0229 62.4043H20.9578C20.9578 62.4201 20.956 62.4359 20.9553 62.4523Z" fill="#C8B89F"/>
<path d="M35.7447 62.4043H30.4858H24.7469H21.0229C21.0002 62.4207 20.9774 62.4365 20.9553 62.4523C20.9061 63.8494 20.7191 65.2188 20.4153 66.5509C25.0615 68.7603 30.2578 70.0002 35.7447 70.0002V62.4043Z" fill="#C0B098"/>
<path d="M50.5316 62.4043H50.4666C50.4893 62.4207 50.512 62.4365 50.5341 62.4523C50.5341 62.4365 50.5322 62.4207 50.5316 62.4043Z" fill="#B19975"/>
<path d="M50.4665 62.4043H46.7431H41.0042H35.7454V70.0002C41.2323 70.0002 46.4286 68.7603 51.0748 66.5509C50.7716 65.2182 50.5847 63.8488 50.5348 62.4523C50.512 62.4365 50.4893 62.4207 50.4665 62.4043Z" fill="#AA9678"/>
<path d="M52.1038 63.6809C52.0388 63.0145 51.999 62.3431 51.999 61.6635C51.999 61.2548 51.668 60.9238 51.2594 60.9238H50.6107H48.1486H46.2948H40.782H35.7455H30.7083H25.1962H23.3417H20.8803H20.231C19.8223 60.9238 19.4914 61.2554 19.4914 61.6635C19.4914 62.3424 19.4516 63.0145 19.3865 63.6809C19.3145 64.418 19.2008 65.1449 19.0518 65.8612C19.5015 66.0993 19.9556 66.3311 20.4167 66.5503C20.7199 65.2176 20.9068 63.8482 20.9567 62.4517C20.9574 62.4353 20.9593 62.4195 20.9593 62.4037H21.0243H24.7483H30.4873H35.7461H41.005H46.7439H50.4667H50.5317C50.5324 62.4201 50.5343 62.4359 50.5343 62.4517C50.5835 63.8489 50.7705 65.2182 51.0743 66.5503C51.5354 66.3311 51.9889 66.0993 52.4392 65.8612C52.2902 65.1449 52.1765 64.418 52.1038 63.6809Z" fill="#8B7460"/>
<path d="M59.1619 34.5903C59.1619 34.5867 59.1625 34.5837 59.1625 34.5801C59.1625 34.5837 59.1619 34.5873 59.1619 34.5903Z" fill="white"/>
<path d="M59.5448 26.3011C59.5385 26.2929 59.5328 26.2859 59.5272 26.2777H59.5278C59.2309 25.8652 58.9246 25.4888 58.61 25.1471C58.6094 25.1458 58.6081 25.1446 58.6075 25.1439C58.6081 25.1452 58.6094 25.1465 58.61 25.1471C58.6075 25.1439 58.6044 25.1408 58.6018 25.1376C58.4591 24.9829 58.3151 24.8351 58.1685 24.6949C58.113 24.6424 58.0567 24.5957 58.0005 24.5452C57.9083 24.4618 57.8174 24.3759 57.7239 24.2988V24.3007V27.6249L58.9972 33.4554C59.0111 33.5009 59.0275 33.5432 59.0402 33.59L59.9225 34.5785L59.9314 34.569H60.8542C60.8555 34.4837 60.8605 34.3991 60.8605 34.3132V34.3119C60.8605 31.5618 60.4083 28.9198 59.5903 26.4444C59.5739 26.3971 59.5606 26.3484 59.5448 26.3011Z" fill="#BBBCBD"/>
<path d="M59.1625 34.5793C59.1625 34.5763 59.1619 34.5733 59.1619 34.5703C59.1619 34.5739 59.1625 34.5763 59.1625 34.5793Z" fill="#C7C6C7"/>
<path d="M59.1229 34.0238C59.1242 34.0332 59.1267 34.0421 59.128 34.0516C59.1286 34.0572 59.1305 34.0623 59.1311 34.0686C59.1311 34.0692 59.1311 34.0699 59.1311 34.0705C59.1482 34.2069 59.1545 34.3497 59.1577 34.4937C59.1583 34.5202 59.1627 34.5449 59.1627 34.5714C59.1627 34.5745 59.1633 34.5777 59.1633 34.5809C59.1633 34.5846 59.1627 34.5878 59.1627 34.5916C59.1627 34.62 59.1583 34.6465 59.1577 34.675C59.1545 34.8158 59.1482 34.956 59.1318 35.0899C59.1318 35.0906 59.1318 35.0912 59.1318 35.0918C59.1311 35.0988 59.1292 35.1051 59.128 35.112C59.1267 35.1228 59.1236 35.1329 59.1217 35.1436C59.1015 35.2895 59.0762 35.4316 59.0414 35.5668C59.0414 35.5674 59.0414 35.5681 59.0408 35.5687L59.0459 35.563C59.0465 35.5605 59.0471 35.5586 59.0478 35.5567L59.9219 34.5783L59.0396 33.5898C59.0396 33.5905 59.0396 33.5911 59.0402 33.5917C59.0756 33.7294 59.1021 33.8741 59.1229 34.0238Z" fill="#676A6A"/>
<path d="M59.1214 35.1432C59.124 35.1249 59.129 35.1079 59.1315 35.0895C59.148 34.9556 59.1543 34.8154 59.1574 34.6746C59.1581 34.643 59.1631 34.6127 59.1631 34.5804C59.1631 34.5508 59.1587 34.523 59.1581 34.4933C59.1549 34.3493 59.1486 34.2072 59.1315 34.0701C59.1296 34.0543 59.1252 34.0398 59.1233 34.0234C59.1031 33.8743 59.0766 33.7297 59.0412 33.592C59.0286 33.544 59.0115 33.501 58.9976 33.4549C58.913 33.1751 58.7974 32.9281 58.661 32.7229C58.6427 32.6957 58.6237 32.6692 58.6048 32.6433C58.5675 32.5927 58.5296 32.5435 58.4892 32.4993C58.4298 32.4355 58.3692 32.3761 58.3048 32.3275C58.2801 32.3085 58.2542 32.2959 58.229 32.2795C58.1734 32.2435 58.1165 32.2119 58.0572 32.1879C58.0319 32.1778 58.0066 32.1677 57.9807 32.1594C57.8974 32.1335 57.8127 32.1152 57.7249 32.1152C57.6371 32.1152 57.5525 32.1335 57.4691 32.1594C57.4432 32.1677 57.418 32.1778 57.3927 32.1879C57.3339 32.2119 57.2765 32.2435 57.2209 32.2795C57.1963 32.2959 57.1697 32.3085 57.1457 32.3275C57.0813 32.3761 57.02 32.4355 56.9607 32.4993C56.9209 32.5435 56.883 32.5921 56.8457 32.6426C56.8261 32.6685 56.8078 32.6951 56.7889 32.7229C56.6518 32.9281 56.5368 33.1751 56.4522 33.4555C56.4484 33.4669 56.4446 33.4776 56.4415 33.489C56.4042 33.6172 56.3751 33.753 56.3505 33.8914C56.3429 33.9337 56.3335 33.9747 56.3278 34.0177C56.3057 34.1731 56.2943 34.3347 56.2911 34.5009C56.2905 34.5236 56.2874 34.5457 56.2874 34.5684H56.293C56.293 35.9302 56.9373 37.0337 57.7319 37.0337C57.8689 37.0337 58.0003 36.9977 58.1254 36.9364C58.1456 36.9263 58.1652 36.9162 58.1847 36.9048C58.2365 36.8751 58.2877 36.8423 58.337 36.8031C58.3641 36.781 58.3894 36.7551 58.4153 36.7305C58.4791 36.6711 58.5391 36.6042 58.5966 36.5296C58.6364 36.4778 58.6755 36.4254 58.7115 36.3667C58.7349 36.3294 58.7564 36.2896 58.7778 36.2498C58.8176 36.1759 58.8555 36.0982 58.8903 36.0161C58.9029 35.9864 58.9162 35.958 58.9275 35.9277C58.9711 35.8134 59.0096 35.6927 59.0419 35.5664C59.0753 35.4312 59.1012 35.2898 59.1214 35.1432ZM57.7755 34.2526C57.4773 34.2526 57.236 33.8389 57.236 33.3279C57.236 32.8176 57.478 32.4033 57.7755 32.4033C58.0736 32.4033 58.3149 32.817 58.3149 33.3279C58.3149 33.8389 58.0736 34.2526 57.7755 34.2526Z" fill="black"/>
<path d="M57.7755 32.4043C57.4774 32.4043 57.2361 32.818 57.2361 33.329C57.2361 33.8393 57.478 34.2537 57.7755 34.2537C58.0736 34.2537 58.3149 33.84 58.3149 33.329C58.3149 32.818 58.0736 32.4043 57.7755 32.4043Z" fill="white"/>
<path d="M56.4512 33.4549C56.5358 33.1751 56.6514 32.9281 56.7878 32.7222C56.8061 32.6944 56.8251 32.6679 56.8447 32.642C56.8819 32.5914 56.9198 32.5428 56.9596 32.4986C57.0184 32.4342 57.0803 32.3761 57.1447 32.3268C57.1693 32.3078 57.1952 32.2952 57.2199 32.2788C57.2754 32.2421 57.3329 32.2118 57.3917 32.1872C57.4169 32.1771 57.4422 32.167 57.4681 32.1588C57.5515 32.1329 57.6361 32.1146 57.7239 32.1146C57.8117 32.1146 57.897 32.1329 57.9797 32.1588C58.0056 32.167 58.0309 32.1771 58.0561 32.1872C58.1149 32.2112 58.1717 32.2421 58.2279 32.2788C58.2532 32.2952 58.2791 32.3078 58.3037 32.3268C58.3681 32.3761 58.4294 32.4342 58.4881 32.4986C58.5286 32.5428 58.5658 32.5921 58.6037 32.6426C58.6227 32.6685 58.6416 32.6944 58.6599 32.7222C58.797 32.9275 58.912 33.1744 58.9966 33.4542V33.4549L57.7233 27.625L56.4512 33.4549Z" fill="#909393"/>
<path d="M40.8553 34.5269C40.8534 34.4094 40.8458 34.2938 40.8326 34.1801C40.8326 34.1789 40.8319 34.177 40.8319 34.1757C40.8187 34.0633 40.7997 33.9527 40.7757 33.8441C40.7751 33.841 40.7744 33.8384 40.7738 33.8359C40.7498 33.7285 40.7208 33.6224 40.6866 33.5195C40.686 33.5169 40.6848 33.515 40.6841 33.5125C40.6494 33.4089 40.6102 33.3079 40.566 33.2087C40.5654 33.2068 40.5641 33.2049 40.5629 33.2024C40.5186 33.1032 40.4694 33.0059 40.4157 32.9125C40.2521 32.6257 40.0474 32.3661 39.8106 32.14C39.5093 31.8532 39.155 31.6208 38.764 31.4604C38.7608 31.4591 38.7577 31.4578 38.7545 31.4566C38.5619 31.3783 38.3604 31.3164 38.152 31.2747C38.1469 31.2734 38.1419 31.2734 38.1362 31.2721C37.9271 31.2311 37.7117 31.209 37.49 31.209C37.2727 31.209 37.0611 31.2311 36.8552 31.2709C36.8483 31.2721 36.8407 31.2728 36.8331 31.274C36.6285 31.3151 36.4308 31.3745 36.2419 31.4509C36.2369 31.4528 36.2318 31.4547 36.2268 31.4566C36.0348 31.5349 35.851 31.6303 35.6785 31.7414C35.6779 31.7421 35.6773 31.7421 35.6766 31.7421C35.5023 31.8539 35.3393 31.9815 35.189 32.1229L35.1852 32.1343L35.1726 32.1375C34.9326 32.3655 34.726 32.6282 34.5612 32.9175C34.5593 32.9207 34.5568 32.9245 34.5549 32.9276C34.5043 33.0167 34.4589 33.1083 34.4172 33.2024C34.4128 33.2125 34.4071 33.222 34.4027 33.2321C34.3641 33.3192 34.3313 33.4089 34.301 33.4992C34.2953 33.5169 34.2877 33.534 34.282 33.5517C34.2549 33.6363 34.2334 33.7228 34.2125 33.81C34.2069 33.8346 34.1986 33.8586 34.1936 33.8839C34.1753 33.9698 34.1633 34.0576 34.1519 34.146C34.1487 34.1732 34.1424 34.1991 34.1399 34.2262C34.1279 34.3418 34.1216 34.4587 34.1216 34.5774C34.1216 34.8004 34.1443 35.0177 34.186 35.228C34.1866 35.2324 34.1873 35.2368 34.1879 35.2413C34.2302 35.4516 34.2921 35.6543 34.3717 35.8482C34.373 35.8508 34.3736 35.8539 34.3749 35.8565C34.5372 36.2493 34.7715 36.6049 35.0608 36.9068C35.2895 37.1456 35.5535 37.3502 35.8434 37.5138C35.8446 37.5145 35.8459 37.5157 35.8478 37.5164C35.9381 37.5669 36.0316 37.613 36.127 37.6553C36.1352 37.6591 36.1421 37.6629 36.1504 37.6667C36.2388 37.7052 36.3297 37.7387 36.4219 37.7696C36.4377 37.7747 36.4529 37.7816 36.4681 37.7867C36.5533 37.8138 36.6405 37.8353 36.7283 37.8555C36.7523 37.8612 36.775 37.8688 36.799 37.8738C36.8843 37.8915 36.9721 37.9035 37.0599 37.9149C37.0864 37.9181 37.1129 37.9244 37.1395 37.9269C37.2544 37.9389 37.3713 37.9452 37.4894 37.9452C37.9543 37.9452 38.3977 37.8511 38.8 37.6806C39.0015 37.5953 39.1929 37.4911 39.3722 37.3698C39.7304 37.1279 40.0399 36.8184 40.2818 36.4603C40.4024 36.2809 40.5073 36.0895 40.5925 35.888C40.7631 35.4851 40.8572 35.0423 40.8572 34.5774C40.8572 34.5698 40.8559 34.5623 40.8559 34.554C40.8566 34.5439 40.8553 34.5357 40.8553 34.5269ZM37.49 34.1321C36.7914 34.1321 36.2249 33.5656 36.2249 32.867C36.2249 32.1684 36.7914 31.6019 37.49 31.6019C38.1886 31.6019 38.7552 32.1684 38.7552 32.867C38.7552 33.5662 38.1886 34.1321 37.49 34.1321Z" fill="black"/>
<path d="M37.4897 31.6016C36.7912 31.6016 36.2246 32.1681 36.2246 32.8667C36.2246 33.5653 36.7912 34.1318 37.4897 34.1318C38.1883 34.1318 38.7549 33.5653 38.7549 32.8667C38.7549 32.1681 38.1883 31.6016 37.4897 31.6016Z" fill="white"/>
<path d="M35.173 32.1352L35.1857 32.132L35.1894 32.1206L37.5088 25.0275C37.5088 25.0275 37.5088 24.6075 37.5088 24.1881C37.5088 24.07 37.5088 23.9525 37.5088 23.8439C37.5088 23.8079 37.5088 23.7719 37.5088 23.7378C37.5088 23.6847 37.5088 23.6367 37.5088 23.5919C37.5088 23.5603 37.5088 23.53 37.5088 23.5034C37.5088 23.4681 37.5088 23.4396 37.5088 23.415C37.5088 23.3954 37.5088 23.3784 37.5088 23.367C37.5088 23.355 37.5088 23.3481 37.5088 23.3481C36.2171 23.0834 34.8888 22.9375 33.5295 22.9375C33.0754 22.9375 32.6257 22.9564 32.1785 22.9874C32.1128 22.9918 32.0478 22.9956 31.9827 23.0007C29.6546 23.1775 27.3618 23.7845 25.2389 24.7534C23.4186 25.5846 21.7265 26.6792 20.2061 27.9778C20.2055 27.9785 20.2042 27.9791 20.2036 27.9804C19.7956 28.3271 19.404 28.6935 19.0219 29.0686C18.9505 29.1388 18.8778 29.2076 18.8071 29.279C18.4471 29.6415 18.0997 30.0161 17.7637 30.4014C17.6904 30.4854 17.619 30.5706 17.547 30.6559C17.2097 31.0545 16.8807 31.4606 16.5693 31.88C16.5434 31.9154 16.5187 31.952 16.4928 31.9874C16.1953 32.3922 15.9124 32.8072 15.6395 33.2291C15.5865 33.3112 15.5315 33.3927 15.4791 33.4761C15.2587 33.826 15.0534 34.1854 14.8494 34.5461H25.3968H25.4151L35.173 32.1352Z" fill="#BBBCBD"/>
<path d="M44.0934 31.3364C44.1149 31.0597 44.1326 30.7831 44.1471 30.5064C44.1667 30.1313 44.1793 29.7567 44.1863 29.3815C44.192 29.0904 44.1913 28.7992 44.1901 28.5074C44.1894 28.4234 44.192 28.3394 44.1907 28.2554C44.1831 27.5044 44.1541 26.7527 44.108 26.0005C44.1061 25.9992 44.1035 25.9979 44.1016 25.996C44.1004 25.9941 44.0998 25.9923 44.0985 25.9904C44.0953 25.9885 44.0846 25.9828 44.0751 25.9771C44.0663 25.972 44.0581 25.9676 44.0416 25.9575C43.9033 25.8786 43.5648 25.684 43.2597 25.511C43.2534 25.5072 43.2464 25.5034 43.2401 25.5002C43.1631 25.4566 43.0885 25.4143 43.0216 25.3764C43.0203 25.3758 43.0191 25.3752 43.0178 25.3739C42.9597 25.3411 42.911 25.3139 42.8662 25.2893C42.8574 25.2842 42.8447 25.2773 42.8365 25.2728C42.7872 25.245 42.7487 25.2242 42.726 25.2128C42.2403 24.9608 41.7444 24.7277 41.2404 24.5149C40.0391 24.0077 38.4202 23.563 37.5088 23.3477V23.9862V24.1353V24.1871C37.5088 24.6071 37.5088 25.0265 37.5088 25.0265L39.8079 32.1316L39.8104 32.1379C40.0479 32.364 40.2519 32.6243 40.4155 32.9104C40.4692 33.0045 40.5178 33.1011 40.5627 33.2003C40.5639 33.2022 40.5646 33.2041 40.5658 33.2066C40.61 33.3052 40.6492 33.4068 40.6839 33.5104C40.6846 33.513 40.6858 33.5149 40.6865 33.5174C40.7206 33.621 40.7496 33.7264 40.7736 33.8338C40.7743 33.837 40.7749 33.8395 40.7755 33.842C40.7995 33.9507 40.8185 34.0612 40.8317 34.1736C40.8317 34.1755 40.8324 34.1768 40.8324 34.1781C40.8456 34.2924 40.8532 34.408 40.8551 34.5248L40.8633 34.5438H43.6785C43.8686 33.5136 44.0012 32.4695 44.0852 31.421C44.0878 31.3939 44.0909 31.3655 44.0934 31.3364Z" fill="#E2DDDB"/>
<path d="M47.7741 28.8242C47.7723 28.8272 47.7711 28.8308 47.7693 28.8339C47.7711 28.8302 47.7729 28.8272 47.7741 28.8242Z" fill="#F9B233"/>
<path d="M40.8791 44.6694C41.5177 44.034 42.1209 43.4252 42.6957 42.8289C43.0374 42.4746 43.3715 42.1234 43.6905 41.7773C46.0433 39.2236 47.7708 36.8336 48.8098 33.7588C48.8344 33.6856 48.859 33.5896 48.8824 33.4815C48.8862 33.4651 48.89 33.4487 48.8931 33.4316C48.9178 33.3167 48.9411 33.1891 48.9651 33.0457C48.9746 32.9466 48.9841 32.8506 48.9929 32.7571C48.7321 31.418 48.2249 30.1175 47.7777 28.8328C47.7796 28.8372 47.7809 28.8417 47.7821 28.8461C47.7796 28.8436 47.7714 28.8353 47.7695 28.8341C47.6836 28.7526 47.5939 28.6768 47.5067 28.5966C47.2421 28.3522 46.973 28.1147 46.6989 27.8835C45.8771 27.1906 45.0131 26.5577 44.1073 26C44.1535 26.7523 44.1825 27.5039 44.1901 28.2549C44.1914 28.3389 44.1888 28.4229 44.1895 28.5069C44.1907 28.7981 44.1914 29.0899 44.1857 29.3811C44.1787 29.7562 44.1655 30.1314 44.1465 30.506C44.132 30.7826 44.1143 31.0593 44.0928 31.3359C44.0909 31.365 44.0871 31.3934 44.0852 31.4225C44.0012 32.471 43.8686 33.515 43.6785 34.5452L43.3481 36.1091C42.6578 38.9084 41.255 41.4482 40.1016 44.0707C39.7959 44.7661 39.506 45.4691 39.2514 46.1853C39.2281 46.251 39.2034 46.3199 39.1794 46.3881C39.5395 46.0097 39.8584 45.6819 40.101 45.4419C40.3656 45.1798 40.6246 44.9227 40.8791 44.6694Z" fill="#B4B4B4"/>
<path d="M35.189 32.1198C35.3393 31.9789 35.5023 31.8513 35.6766 31.7389C35.6772 31.7383 35.6778 31.7383 35.6785 31.7383C35.8509 31.6271 36.0347 31.5317 36.2267 31.4534C36.2318 31.4515 36.2368 31.4496 36.2419 31.4477C36.4314 31.3713 36.6291 31.3119 36.8331 31.2709C36.84 31.2696 36.8476 31.269 36.8552 31.2677C37.0605 31.2279 37.2727 31.2058 37.49 31.2058C37.711 31.2058 37.927 31.2285 38.1361 31.269C38.1412 31.2702 38.1468 31.2702 38.1519 31.2715C38.3603 31.3132 38.5618 31.3744 38.7545 31.4534C38.7576 31.4547 38.7608 31.4559 38.7639 31.4572C39.1549 31.6182 39.5093 31.8501 39.8105 32.1368L39.808 32.1305L37.5089 25.0254L35.189 32.1198Z" fill="#909393"/>
<path d="M34.3721 35.8455C34.2925 35.6516 34.2306 35.4482 34.1883 35.2386C34.1876 35.2341 34.187 35.2297 34.1864 35.2253C34.1447 35.015 34.1219 34.797 34.1219 34.5747C34.1219 34.456 34.1283 34.3391 34.1403 34.2235C34.1428 34.1964 34.1491 34.1705 34.1523 34.1433C34.1636 34.0549 34.1756 33.9671 34.1939 33.8812C34.199 33.8559 34.2072 33.8319 34.2129 33.8073C34.2331 33.7201 34.2552 33.633 34.2824 33.549C34.2881 33.5313 34.2956 33.5142 34.3013 33.4965C34.3323 33.4062 34.3651 33.3165 34.403 33.2294C34.4074 33.2193 34.4131 33.2098 34.4175 33.1997C34.4599 33.1062 34.5053 33.014 34.5552 32.9249C34.5571 32.9218 34.5597 32.918 34.5615 32.9148C34.7264 32.6255 34.9329 32.3628 35.173 32.1348L25.415 34.5444H25.3967L35.0612 36.9035C34.7712 36.6016 34.5369 36.246 34.3752 35.8531C34.374 35.8506 34.3733 35.8481 34.3721 35.8455Z" fill="#676A6A"/>
<path d="M56.3268 34.0181C56.3331 33.9745 56.3419 33.9341 56.3495 33.8918C56.3741 33.7528 56.4032 33.6176 56.4405 33.4894C56.4449 33.4749 56.4462 33.4585 56.4506 33.4439L57.7239 27.6141V24.2899C56.6836 23.4309 55.5695 22.9609 54.4098 22.9609C52.9444 22.9609 51.5782 23.77 50.5563 24.7693C49.4383 25.8632 48.5743 27.2395 47.8757 28.6285C47.8435 28.6923 47.8106 28.7535 47.7791 28.818C47.9944 29.0043 48.2073 29.1938 48.4176 29.3858C48.8932 29.821 49.3587 30.2675 49.8186 30.721C50.0327 30.932 50.2424 31.148 50.4533 31.3628C50.6769 31.5901 50.9005 31.8175 51.1203 32.0487C51.4033 32.3462 51.6837 32.6462 51.9616 32.9494C52.0785 33.077 52.1953 33.2046 52.3109 33.3328C52.6457 33.7035 52.9786 34.0756 53.3064 34.4526L53.307 34.4533C53.3619 34.5108 53.4005 34.5518 53.4156 34.5695H56.287C56.287 34.5461 56.2914 34.5246 56.292 34.5019C56.2933 34.3352 56.3047 34.1728 56.3268 34.0181Z" fill="#E2DDDB"/>
<path d="M47.7779 28.8327C47.7767 28.8297 47.7761 28.8272 47.7749 28.8242C47.773 28.8272 47.7718 28.8303 47.77 28.8333C47.7718 28.8345 47.7797 28.843 47.7821 28.8448C47.7809 28.8412 47.7791 28.8369 47.7779 28.8327Z" fill="#E9E4E3"/>
<path d="M13.1182 38.2143C13.1264 38.1929 13.1352 38.172 13.1435 38.1505C13.3285 37.6674 13.5306 37.1899 13.7435 36.7174C13.8029 36.586 13.8641 36.4553 13.9254 36.3245C14.0997 35.9538 14.2835 35.5881 14.4749 35.2255C14.5526 35.0777 14.6284 34.9299 14.7086 34.784C14.7528 34.7032 14.8034 34.6261 14.8488 34.5459C15.0528 34.1859 15.2581 33.8258 15.4786 33.4759C15.531 33.3925 15.5859 33.3117 15.639 33.229C15.9119 32.807 16.1948 32.3914 16.4923 31.9872C16.5182 31.9518 16.5422 31.9152 16.5687 31.8798C16.8801 31.4604 17.2092 31.0543 17.5465 30.6557C17.6185 30.5705 17.6899 30.4852 17.7631 30.4012C18.0992 30.0159 18.4472 29.6407 18.8066 29.2788C18.8773 29.2074 18.9493 29.1386 19.0213 29.0685C19.4034 28.6933 19.7951 28.3276 20.2031 27.9802C20.2037 27.9796 20.205 27.9783 20.2056 27.9777C21.8112 22.5981 26.7246 18.6815 32.5393 18.6815C34.8801 18.6815 37.2069 19.3554 39.2016 20.5757C41.2474 21.8269 42.9143 23.6599 43.9975 25.7973C44.0032 25.808 44.0082 25.8188 44.0139 25.8295C44.0411 25.8838 44.072 25.9356 44.0992 25.99C44.0998 25.9918 44.1011 25.9937 44.1023 25.9956C44.1042 25.9969 44.1068 25.9982 44.1087 26.0001C45.0144 26.5578 45.8785 27.1907 46.7002 27.8835C46.9743 28.1147 47.2434 28.3528 47.508 28.5967C47.5946 28.6769 47.6849 28.7527 47.7708 28.8341C47.7727 28.831 47.774 28.8272 47.7759 28.824C47.7771 28.8221 47.7777 28.8196 47.779 28.8177C47.8087 28.7571 47.8377 28.6952 47.8674 28.6358C48.6866 23.4647 50.9674 19.7394 53.6581 19.7394C55.6856 19.7394 57.4826 21.8541 58.5955 25.1088L58.6069 25.1436C58.6082 25.1448 58.6088 25.1461 58.61 25.1474C58.9246 25.4891 59.2309 25.8655 59.5278 26.278H59.5272C59.5328 26.2862 59.5392 26.2931 59.5448 26.3013C59.5606 26.3487 59.5745 26.3967 59.5897 26.4441L59.5474 26.2748C56.2004 16.3659 46.8284 9.23242 35.7909 9.23242C21.9451 9.23242 10.7212 20.4563 10.7212 34.3021C10.7212 37.0313 11.1576 39.6595 11.9674 42.1045C11.9686 42.1001 11.9699 42.095 11.9705 42.0906C12.1297 41.3529 12.3205 40.6202 12.5428 39.8951C12.7152 39.3285 12.9079 38.7683 13.1182 38.2143Z" fill="#525353"/>
<path d="M59.9219 34.5785L59.0478 35.5568C59.0472 35.5594 59.0465 35.5613 59.0459 35.5632C59.013 35.6914 58.972 35.812 58.9271 35.9276C58.9151 35.9579 58.9025 35.987 58.8899 36.016C58.8551 36.0981 58.8179 36.1758 58.7775 36.2497C58.756 36.2895 58.7345 36.3293 58.7111 36.3666C58.6751 36.4247 58.636 36.4777 58.5962 36.5295C58.5387 36.6041 58.4787 36.671 58.4149 36.7304C58.389 36.755 58.3637 36.7816 58.3366 36.803C58.2873 36.8422 58.2362 36.875 58.1844 36.9047C58.1648 36.9161 58.1452 36.9268 58.125 36.9363C57.9999 36.9976 57.8679 37.0336 57.7315 37.0336C56.9369 37.0336 56.2927 35.9301 56.2927 34.5684H56.287H56.2857H53.4144H53.4055C53.4061 34.569 53.4068 34.5696 53.4074 34.5703C53.943 35.1892 54.4704 35.8164 54.9896 36.45C54.9959 36.4575 55.0023 36.4651 55.0086 36.4727C55.5139 37.0892 56.0116 37.7113 56.5036 38.3379C56.5276 38.3688 56.5522 38.3991 56.5763 38.4301C57.043 39.0257 57.5047 39.6245 57.9627 40.2258C58.0069 40.2839 58.0517 40.342 58.0959 40.4001C58.5798 41.0368 59.0598 41.6754 59.5354 42.3146C59.5386 42.319 59.5417 42.3234 59.5455 42.3278C60.3704 39.8872 60.8315 37.2805 60.8599 34.569H60.8536H59.9308L59.9219 34.5785Z" fill="white"/>
<path d="M31.9822 22.9994C32.0472 22.9943 32.1129 22.9906 32.178 22.9861C32.6252 22.9558 33.0749 22.9362 33.529 22.9362C34.8883 22.9362 36.2166 23.0821 37.5082 23.3468C37.5082 23.3468 37.5082 23.3537 37.5082 23.3657C37.5082 23.3765 37.5082 23.3942 37.5082 23.4137C37.5082 23.4377 37.5082 23.4681 37.5082 23.5022C37.5082 23.5287 37.5082 23.559 37.5082 23.5906C37.5082 23.6348 37.5082 23.6847 37.5082 23.7365C37.5082 23.77 37.5082 23.8066 37.5082 23.8426C37.5082 23.8887 37.5082 23.9374 37.5082 23.986V23.3474C38.4203 23.5622 40.0385 24.0068 41.2398 24.5147C41.7439 24.7275 42.2397 24.9606 42.7254 25.2126C42.7482 25.224 42.7861 25.2454 42.8359 25.2726C42.8442 25.277 42.8568 25.2846 42.8656 25.289C42.9105 25.3143 42.9597 25.3415 43.0172 25.3737C43.0185 25.3743 43.0197 25.3749 43.021 25.3762C43.0886 25.4141 43.1625 25.4558 43.2396 25.5C43.2459 25.5038 43.2522 25.5076 43.2591 25.5107C43.568 25.6863 43.9103 25.8821 44.0411 25.9573C44.0575 25.9668 44.0657 25.9712 44.0746 25.9769C44.0809 25.9806 44.096 25.9889 44.0979 25.9901C44.0708 25.9358 44.0404 25.884 44.0127 25.8297C44.0076 25.819 44.0019 25.8082 43.9962 25.7975C42.913 23.6601 41.2462 21.8271 39.2003 20.5759C37.2057 19.3556 34.8788 18.6816 32.538 18.6816C26.7239 18.6816 21.8099 22.5977 20.2043 27.9778C21.7247 26.6792 23.4161 25.5846 25.2371 24.7534C27.3612 23.7832 29.654 23.1763 31.9822 22.9994Z" fill="#0D0D0D"/>
<path d="M50.5563 24.7692C51.5783 23.7693 52.9445 22.9609 54.4099 22.9609C55.5701 22.9609 56.6837 23.4308 57.724 24.2898C57.724 24.2898 57.724 24.2974 57.724 24.2999C57.8168 24.3763 57.9084 24.4629 58.0006 24.5462C58.0562 24.5968 58.1131 24.6429 58.1686 24.6959C58.3145 24.8362 58.4592 24.9839 58.6019 25.1387C58.6045 25.1419 58.6076 25.145 58.6101 25.1482C58.6095 25.1469 58.6082 25.1456 58.6076 25.145L58.5962 25.1096C57.4827 21.8549 55.6864 19.7402 53.6589 19.7402C50.9682 19.7402 48.6874 23.4655 47.8682 28.6366L47.8764 28.629C48.5743 27.2395 49.4384 25.8632 50.5563 24.7692Z" fill="#0D0D0D"/>
<path d="M26.8142 57.6875C27.0428 57.7753 27.2759 57.8549 27.5083 57.9364C30.1018 58.8453 32.8866 59.3455 35.7908 59.3455C39.1017 59.3455 42.2598 58.6975 45.1539 57.5315C45.3068 57.4696 45.4571 57.402 45.6087 57.3376C45.8544 57.2327 46.0982 57.1254 46.3401 57.0129C46.5561 56.9125 46.7728 56.8127 46.985 56.7066C46.9338 56.7129 46.882 56.723 46.8309 56.7287C45.9314 56.8298 45.0383 56.8361 44.1667 56.7104C39.0082 55.9689 37.8656 53.4815 38.0292 50.8913C37.6585 50.6771 37.2801 50.4365 36.8955 50.1573C32.9283 47.279 30.5736 44.2131 30.5736 44.2131C30.5736 44.2131 33.6338 46.5754 38.2048 48.3433C38.3027 48.3812 38.3949 48.4141 38.491 48.4507C38.7044 47.7123 38.9571 47.0106 39.1794 46.3878C39.2034 46.3202 39.2281 46.2514 39.2514 46.1851C39.506 45.4688 39.7959 44.7658 40.1016 44.0704C41.2549 41.4485 42.6578 38.9082 43.3481 36.1088L43.6785 34.5449H40.8633H40.8576C40.8576 34.5468 40.8576 34.5487 40.8576 34.5506L40.8564 34.5512C40.8564 34.5588 40.8576 34.5664 40.8576 34.5746C40.8576 35.0395 40.7635 35.4829 40.593 35.8852C40.5077 36.0867 40.4035 36.2781 40.2822 36.4575C40.0403 36.8156 39.7308 37.1251 39.3727 37.367C39.1933 37.4883 39.0019 37.5925 38.8004 37.6778C38.3975 37.8483 37.9547 37.9424 37.4898 37.9424C37.3717 37.9424 37.2549 37.9361 37.1399 37.9241C37.1128 37.9216 37.0869 37.9153 37.0603 37.9121C36.9725 37.9007 36.8847 37.8887 36.7995 37.871C36.7755 37.866 36.7527 37.8584 36.7287 37.8527C36.6409 37.8325 36.5531 37.811 36.4685 37.7839C36.4527 37.7788 36.4376 37.7719 36.4224 37.7668C36.3302 37.7359 36.2392 37.7024 36.1508 37.6639C36.1426 37.6601 36.1356 37.6563 36.1274 37.6525C36.032 37.6102 35.9386 37.5641 35.8482 37.5135C35.847 37.5129 35.8457 37.5116 35.8438 37.511C35.5539 37.3474 35.2905 37.1428 35.0612 36.904L25.3968 34.5456H14.8494C14.8039 34.6258 14.754 34.7028 14.7092 34.7837C14.629 34.9296 14.5532 35.078 14.4755 35.2252C14.2847 35.5877 14.1003 35.9534 13.926 36.3242C13.8647 36.4549 13.8034 36.5857 13.7441 36.7171C13.5312 37.1895 13.3284 37.6664 13.144 38.1502C13.1358 38.1717 13.127 38.1925 13.1187 38.214C12.9084 38.7686 12.7158 39.3288 12.5427 39.8941C12.321 40.6192 12.1296 41.3525 11.9705 42.0896C13.631 47.154 16.8617 51.5058 21.0847 54.573C21.2073 54.662 21.3374 54.7416 21.4618 54.8288C22.1762 55.3284 22.9139 55.7952 23.6801 56.2196C24.6856 56.7767 25.7303 57.2713 26.8142 57.6875Z" fill="white"/>
<path d="M44.1233 49.8997C44.0848 50.1688 44.0589 50.4322 44.0513 50.6873C44.0368 51.1509 44.069 51.5912 44.1359 52.0074C44.1808 52.2847 44.2414 52.5519 44.314 52.8071C44.4233 53.1898 44.5597 53.548 44.7126 53.8783C44.8654 54.2093 45.0341 54.5131 45.2084 54.7885C45.2665 54.88 45.3246 54.9691 45.3834 55.0544C45.4712 55.1826 45.5596 55.3032 45.6461 55.4169C45.7617 55.5679 45.8729 55.7005 45.9803 55.8243C46.4401 56.3536 46.8026 56.641 46.8026 56.641C46.8026 56.641 46.8052 56.6492 46.8102 56.6644C46.8153 56.6795 46.8222 56.701 46.831 56.7275C46.8822 56.7218 46.934 56.7117 46.9852 56.7054C48.1031 56.5652 49.2293 56.2627 50.3403 55.8628C50.9069 55.6588 51.4709 55.4384 52.0261 55.1845C52.1954 55.1074 52.3615 55.0209 52.5289 54.94C58.271 52.1634 63.0801 47.252 63.0801 47.252C55.8645 50.7979 48.8124 50.657 44.1233 49.8997Z" fill="#9F2255"/>
<path d="M57.9619 40.2254C57.504 39.6247 57.0429 39.0253 56.5755 38.4297C56.5515 38.3987 56.5269 38.3684 56.5029 38.3375C56.0109 37.7115 55.5131 37.0887 55.0079 36.4723C55.0015 36.4647 54.9952 36.4571 54.9889 36.4495C54.4691 35.816 53.9423 35.1888 53.4067 34.5698C53.3726 34.5307 53.3391 34.4909 53.3044 34.4517C52.9766 34.0747 52.6437 33.702 52.3089 33.3319C52.1927 33.2036 52.0765 33.0754 51.9596 32.9485C51.6817 32.6453 51.4013 32.3453 51.1183 32.0478C50.8979 31.8172 50.6749 31.5892 50.4513 31.3618C50.2404 31.1471 50.0307 30.9317 49.8166 30.7201C49.3567 30.2672 48.8919 29.8201 48.4156 29.3849C48.2053 29.1922 47.9918 29.0034 47.7764 28.8164C47.7752 28.8183 47.7745 28.8208 47.7733 28.8227C48.2261 30.1245 48.7434 31.4427 49.0018 32.8007C49.0694 33.1537 49.1249 33.4973 49.1698 33.8334C49.8008 38.5326 48.295 41.6004 45.9037 45.6371C45.7325 45.9264 45.5563 46.2207 45.3763 46.5207C44.8293 47.4322 44.4794 48.2956 44.276 49.1066C44.2084 49.3769 44.1572 49.6409 44.1206 49.8993C48.8104 50.656 55.8618 50.7974 63.0768 47.2522C63.0768 47.2522 61.662 45.1729 59.5328 42.3135C59.0572 41.6743 58.5771 41.0357 58.0933 40.3991C58.0516 40.3416 58.0068 40.2835 57.9619 40.2254Z" fill="#E2066F"/>
<path d="M46.8018 56.642C46.8018 56.642 46.4393 56.3546 45.9795 55.8259C45.8714 55.7021 45.7603 55.5695 45.6453 55.4185C45.5588 55.3049 45.4704 55.1842 45.3826 55.056C45.3238 54.9707 45.2657 54.8817 45.2076 54.7901C45.0339 54.5147 44.8646 54.2109 44.7118 53.8799C44.5589 53.5489 44.4219 53.1915 44.3132 52.8087C44.2406 52.5535 44.18 52.2863 44.1351 52.0091C44.0675 51.5928 44.036 51.152 44.0505 50.689C44.0587 50.4338 44.0846 50.1698 44.1225 49.9013C44.1591 49.643 44.2103 49.379 44.2779 49.1087C44.4806 48.2983 44.8312 47.4349 45.3781 46.5228C45.38 46.5203 45.3813 46.5177 45.3826 46.5152C45.5607 46.2177 45.7356 45.9259 45.9055 45.6392C48.2969 41.6031 49.8026 38.5347 49.1717 33.8354C49.1268 33.5 49.0706 33.1558 49.0037 32.8027C48.9676 33.0465 48.931 33.2569 48.8937 33.4331C48.89 33.4508 48.8862 33.4666 48.883 33.483C48.859 33.5904 48.835 33.687 48.8104 33.7603C47.7714 36.8344 46.0439 39.2244 43.6911 41.7787C43.3721 42.1248 43.038 42.476 42.6963 42.8303C42.1209 43.4266 41.5177 44.0355 40.8797 44.6709C40.6252 44.9242 40.3656 45.1812 40.1016 45.4427C39.859 45.6827 39.5401 46.0099 39.1801 46.3889C38.9577 47.011 38.7051 47.7134 38.4916 48.4518C38.3956 48.4151 38.3034 48.3823 38.2055 48.3444C33.6344 46.5765 30.5742 44.2142 30.5742 44.2142C30.5742 44.2142 32.9289 47.2801 36.8961 50.1584C37.2801 50.437 37.6585 50.6782 38.0299 50.8924C37.8663 53.4826 39.0089 55.97 44.1673 56.7115C45.0396 56.8365 45.9321 56.8309 46.8315 56.7298C46.8227 56.7033 46.8151 56.6812 46.8107 56.6666C46.8043 56.6502 46.8018 56.642 46.8018 56.642Z" fill="#0D0D0D"/>
</svg>
