<svg width="63" height="70" viewBox="0 0 63 70" fill="none" xmlns="http://www.w3.org/2000/svg">
<mask id="mask0_2179_388" style="mask-type:luminance" maskUnits="userSpaceOnUse" x="0" y="0" width="63" height="70">
<path d="M0.5 0H62.1527V70H0.5V0Z" fill="white"/>
</mask>
<g mask="url(#mask0_2179_388)">
<path d="M6.09672 62.9809L0.482483 0.0332031H62.1701L56.5515 62.9721L31.2869 69.9703L6.09672 62.9809Z" fill="white"/>
</g>
<path d="M51.7396 58.963L56.5429 5.17969H31.3266V64.6215L51.7396 58.963Z" fill="#E2E2E2"/>
<path d="M31.3001 12.9004H11.9604L14.044 36.2469H31.3265V28.5273H21.1078L20.4015 20.622H31.3265V12.9004H31.3001ZM31.3265 48.5518L31.2937 48.5605L22.6928 46.2396L22.1463 40.0826H14.3894L15.4717 52.2041L31.2914 56.5753L31.3265 56.5642V48.5518Z" fill="#27282B"/>
<path d="M31.3002 36.2469H40.8104L39.9359 46.2569L31.3221 48.5802V56.6123L47.155 52.2258L49.2757 28.5229H31.3265L31.3002 36.2469ZM50.4606 14.9723L50.6442 12.9004H31.2958V20.6198H49.949L50.1021 18.8846L50.4606 14.9723Z" fill="#0D0D0D"/>
</svg>
