<svg width="23" height="23" viewBox="0 0 23 23" fill="none" xmlns="http://www.w3.org/2000/svg">
<path d="M2.00228e-05 17.3866L2.41848 13.2494C2.01452 11.7404 2.01521 10.1527 2.42299 8.63376C3.69777 3.8849 8.59827 1.05559 13.347 2.32801C15.6513 2.94621 17.5739 4.42342 18.7647 6.48794C19.9547 8.55228 20.2701 10.9568 19.6525 13.2589C18.3775 18.0085 13.477 20.8378 8.72825 19.5654C7.2868 19.1784 5.96303 18.4362 4.8887 17.4123L2.00228e-05 17.3866ZM5.51816 15.9092C6.53918 16.9554 7.5826 17.6977 9.11533 18.1092C13.0621 19.1667 17.1379 16.816 18.1982 12.8677C19.2599 8.91117 16.9195 4.84594 12.9601 3.78346C9.01045 2.72516 4.93685 5.07644 3.87748 9.02427C3.44485 10.636 3.59379 11.9694 4.04872 13.4447L2.61687 15.8935L5.51816 15.9092ZM14.828 14.1613C14.7985 14.0571 14.6694 13.965 14.4825 13.7992C14.2962 13.6336 13.3774 12.8292 13.1988 12.7045C13.021 12.5799 12.8873 12.5053 12.6852 12.6825C12.4842 12.8593 11.9412 13.234 11.7774 13.3438C11.6136 13.4537 11.4827 13.438 11.2965 13.2724C11.1103 13.1069 10.477 12.6941 9.85139 11.74C9.36467 10.9977 9.12105 10.1769 9.05357 9.92746C8.98589 9.67872 9.12943 9.59218 9.26538 9.51369C9.38827 9.44335 9.5479 9.31996 9.68962 9.22283C9.83239 9.12753 9.89196 9.04721 10.003 8.92246C10.1132 8.79824 10.1115 8.66267 10.0861 8.54017C10.0605 8.4184 9.91412 7.24323 9.85068 6.76425C9.78776 6.29782 9.59513 6.30677 9.46503 6.26492L9.05404 6.14703C8.9106 6.10859 8.66296 6.0997 8.40807 6.26278C8.15317 6.42587 7.45743 6.79694 7.17344 7.8568C6.88945 8.91666 7.3867 10.147 7.45548 10.3192C7.52499 10.4916 8.35203 13.0441 10.2618 14.5551C10.716 14.9144 11.0818 15.1545 11.3675 15.3374C11.8394 15.6394 12.315 15.742 12.7007 15.7863C13.1309 15.8355 14.1138 15.6067 14.4282 15.152C14.7428 14.6967 14.8583 14.2657 14.828 14.1613Z" fill="white"/>
</svg>
