<svg width="70" height="70" viewBox="0 0 70 70" fill="none" xmlns="http://www.w3.org/2000/svg">
<path fill-rule="evenodd" clip-rule="evenodd" d="M35.0513 69.0291C53.7955 69.0006 68.969 53.7532 68.969 34.9451C68.969 16.4427 53.8654 1.20453 35.8213 0.88242C16.871 0.544451 1.03569 15.9215 1.03076 34.5683C1.02529 53.7521 16.1311 69.0564 35.0513 69.0291ZM34.9961 2.53234C52.9921 2.52633 67.3306 17.1476 67.3251 35.498C67.3191 52.8224 52.6005 67.3152 35.0092 67.319C17.0876 67.3228 2.67522 52.7923 2.67576 34.7209C2.67686 17.1153 17.3134 2.53836 34.9961 2.53234ZM21.4139 19.6309C21.7081 20.6115 20.8845 20.9527 20.009 21.0211C19.0875 21.0922 18.1665 21.1616 17.0969 21.2431C20.6275 31.7617 24.1051 42.1245 27.6652 52.7284C27.919 52.3133 28.0234 52.1962 28.0694 52.0595C30.0239 46.2178 31.9894 40.3799 33.8941 34.5218C34.068 33.9875 33.9816 33.2798 33.7913 32.7308C32.7834 29.8214 31.5759 26.9755 30.6922 24.0311C30.0879 22.0153 29.2862 20.711 26.9034 20.9445C26.4976 20.9845 26.0022 20.1111 25.5477 19.6599C26.0973 19.3318 26.6431 18.728 27.1976 18.7198C32.0496 18.6453 36.9024 18.6467 41.7544 18.7242C42.3111 18.7335 42.8569 19.3531 43.4065 19.6894C42.9252 20.1291 42.5101 20.7887 41.9474 20.9587C41.0445 21.2311 40.0432 21.1797 38.9626 21.2759L49.544 52.7541C51.1469 47.4297 52.6383 42.5406 54.0886 37.639C55.3825 33.2634 54.6114 29.1772 52.2719 25.3234C51.5686 24.1645 50.7045 23.0402 50.3058 21.7763C49.853 20.3386 49.4768 18.7018 49.7169 17.2597C50.1243 14.8157 51.9995 13.6022 54.537 13.3698C40.6508 0.482108 18.8294 5.09555 10.7887 19.0983C13.884 18.9555 16.8393 18.768 19.7968 18.7275C20.3557 18.7204 21.2826 19.1929 21.4139 19.6309ZM26.9466 62.2713C26.8821 62.46 26.8783 62.67 26.8274 62.9834C32.8119 64.6426 38.6809 64.5228 44.6878 62.4988L35.5112 37.3644C32.5745 45.9017 29.7581 54.0852 26.9466 62.2713ZM22.3222 61.1349L8.4967 23.2091C2.25959 35.3924 7.00428 53.9807 22.3222 61.1349ZM64.1188 36.7651C64.5574 31.0043 62.5701 23.0281 60.854 21.9311C60.6626 24.0502 60.796 26.4078 60.1879 28.5559C58.7567 33.6173 57.0067 38.5905 55.3212 43.5775C53.4892 48.9981 51.585 54.3941 49.7119 59.8011C58.5122 54.5844 63.3483 46.885 64.1188 36.7651Z" fill="#0073BA"/>
</svg>
