<svg width="71" height="71" viewBox="0 0 71 71" fill="none" xmlns="http://www.w3.org/2000/svg">
<rect x="2.01514" y="3.10938" width="67.2656" height="65.625" rx="14" fill="#F75EEE"/>
<path d="M70.3706 2.72266C70.3706 1.57422 70.3706 1.46484 69.2769 1.46484H2.83154C1.73779 1.46484 1.46436 1.57422 1.46436 2.66797V69.1133C1.46436 70.207 1.62842 70.207 2.66748 70.207H69.2769C70.1519 70.207 70.3706 69.9883 70.3706 69.1133C70.3159 58.0664 70.3706 46.9648 70.3706 35.918V2.72266ZM33.019 52.3242L27.7144 40.4023L22.1362 52.3242H16.0112L23.9409 36.3008L16.5581 19.3477L22.8472 19.4023L27.4956 30.5039L33.1831 19.3477H39.0894L31.105 35.4258L39.0347 52.3242H33.019ZM56.8628 19.9492V50.9023C56.8628 51.7227 56.7534 52.2148 55.9331 52.2695C52.105 52.7617 48.2769 53.3086 44.5034 52.2148C40.4019 51.0664 38.0503 47.8398 37.8862 43.4101C37.6675 37.9414 39.7456 34.168 43.7925 32.418C46.3081 31.3242 48.8784 31.2695 51.7769 31.543V19.4023H56.8628V19.9492ZM46.1987 48.0586C48.0034 48.5508 49.8081 48.3867 51.6675 48.0586V37.1211C51.6675 36.957 51.4487 36.6289 51.2847 36.5742C49.2612 36.2461 47.1831 36.2461 45.269 37.2852C43.3003 38.3789 42.2612 40.6758 42.48 43.3555C42.644 45.8164 43.9565 47.4023 46.1987 48.0586Z" fill="#450135"/>
</svg>
