<svg width="18" height="19" viewBox="0 0 18 19" fill="none" xmlns="http://www.w3.org/2000/svg">
<path d="M17.8207 7.44453C17.8207 7.44453 17.6449 6.20352 17.1035 5.65859C16.418 4.94141 15.6516 4.93789 15.3 4.8957C12.7828 4.71289 9.00352 4.71289 9.00352 4.71289H8.99648C8.99648 4.71289 5.21719 4.71289 2.7 4.8957C2.34844 4.93789 1.58203 4.94141 0.896484 5.65859C0.355078 6.20352 0.182812 7.44453 0.182812 7.44453C0.182812 7.44453 0 8.90352 0 10.359V11.723C0 13.1785 0.179297 14.6375 0.179297 14.6375C0.179297 14.6375 0.355078 15.8785 0.892969 16.4234C1.57852 17.1406 2.47852 17.116 2.8793 17.1934C4.3207 17.3305 9 17.3727 9 17.3727C9 17.3727 12.7828 17.3656 15.3 17.1863C15.6516 17.1441 16.418 17.1406 17.1035 16.4234C17.6449 15.8785 17.8207 14.6375 17.8207 14.6375C17.8207 14.6375 18 13.182 18 11.723V10.359C18 8.90352 17.8207 7.44453 17.8207 7.44453ZM7.14023 13.3789V8.31992L12.0023 10.8582L7.14023 13.3789Z" fill="white"/>
</svg>
